{"glyphs":{"0":{"ha":867,"x_min":0,"x_max":0,"o":"m 36 463 b 433 -17 36 218 163 -17 b 831 463 704 -17 831 218 b 433 940 831 707 704 940 b 36 463 163 940 36 707 z m 589 463 b 433 194 589 299 544 194 b 278 463 322 194 278 299 b 433 729 278 626 322 729 b 589 463 544 729 589 626 z "},"1":{"ha":621,"x_min":0,"x_max":0,"o":"m 538 0 l 538 926 l 331 926 l 7 607 l 143 464 l 299 621 l 299 0 z "},"2":{"ha":843,"x_min":0,"x_max":0,"o":"m 788 0 l 788 208 l 431 208 b 781 632 679 369 781 490 b 406 940 781 818 624 940 b 31 786 276 940 129 894 l 163 628 b 406 729 229 690 307 729 b 538 632 478 729 538 696 b 61 186 538 540 463 476 l 61 0 z "},"3":{"ha":836,"x_min":0,"x_max":0,"o":"m 22 129 b 406 -17 94 46 228 -17 b 789 258 636 -17 789 96 b 571 478 789 392 669 468 b 774 686 681 496 774 578 b 406 940 774 839 642 940 b 35 790 235 940 113 878 l 147 644 b 381 736 213 701 296 736 b 536 647 469 736 536 706 b 386 568 536 596 482 568 b 261 569 351 568 279 568 l 261 364 b 386 367 275 365 346 367 b 551 282 513 367 551 336 b 396 186 551 228 499 186 b 143 286 315 186 210 221 z "},"4":{"ha":856,"x_min":0,"x_max":0,"o":"m 714 0 l 714 169 l 826 169 l 826 379 l 714 379 l 714 926 l 382 926 l 31 356 l 31 169 l 474 169 l 474 0 z m 474 379 l 263 379 l 474 718 z "},"5":{"ha":857,"x_min":0,"x_max":0,"o":"m 56 118 b 429 -17 142 33 265 -17 b 821 310 669 -17 821 110 b 522 610 821 496 681 610 b 315 535 440 610 368 579 l 315 725 l 757 725 l 757 926 l 85 926 l 85 383 l 250 343 b 433 413 301 390 360 413 b 578 300 529 413 578 365 b 426 186 578 240 528 186 b 183 278 338 186 247 218 z "},"6":{"ha":857,"x_min":0,"x_max":0,"o":"m 36 461 b 457 -17 36 196 164 -17 b 826 308 672 -17 826 118 b 506 610 826 506 672 610 b 278 503 411 610 324 564 l 278 514 b 494 738 278 644 372 738 b 672 676 571 738 621 718 l 776 851 b 494 940 707 906 604 940 b 36 461 214 940 36 757 z m 585 299 b 446 186 585 243 536 186 b 278 351 329 186 285 275 b 433 414 319 392 375 414 b 585 299 510 414 585 381 z "},"7":{"ha":778,"x_min":0,"x_max":0,"o":"m 429 0 l 756 761 l 756 926 l 29 926 l 29 718 l 481 718 l 167 0 z "},"8":{"ha":858,"x_min":0,"x_max":0,"o":"m 36 244 b 429 -17 36 63 229 -17 b 821 244 629 -17 821 64 b 633 478 821 350 740 436 b 807 693 732 515 807 582 b 429 940 807 872 610 940 b 51 693 247 940 51 872 b 224 478 51 582 125 515 b 36 244 117 436 36 350 z m 563 658 b 429 564 563 604 486 574 b 294 658 372 574 294 604 b 429 742 294 708 347 742 b 563 658 508 742 563 708 z m 579 271 b 429 182 579 217 515 182 b 279 271 340 182 279 217 b 429 375 279 332 369 367 b 579 271 488 367 579 332 z "},"9":{"ha":857,"x_min":0,"x_max":0,"o":"m 81 74 b 361 -15 150 18 253 -15 b 819 464 642 -15 819 169 b 399 942 819 731 692 942 b 29 617 183 942 29 807 b 351 315 29 419 185 315 b 578 422 444 315 532 361 l 578 411 b 361 188 578 285 489 188 b 183 249 286 188 235 207 z m 578 574 b 422 511 538 533 481 511 b 272 628 347 511 272 544 b 410 739 272 682 321 739 b 578 574 526 739 572 650 z "},"\u0000":{"ha":0,"x_min":0,"x_max":0,"o":""},"\r":{"ha":0,"x_min":0,"x_max":0,"o":""}," ":{"ha":356,"x_min":0,"x_max":0,"o":""}," ":{"ha":356,"x_min":0,"x_max":0,"o":""}," ":{"ha":174,"x_min":0,"x_max":0,"o":""}," ":{"ha":78,"x_min":0,"x_max":0,"o":""}," ":{"ha":1389,"x_min":0,"x_max":0,"o":""}," ":{"ha":1389,"x_min":0,"x_max":0,"o":""}," ":{"ha":694,"x_min":0,"x_max":0,"o":""}," ":{"ha":694,"x_min":0,"x_max":0,"o":""}," ":{"ha":347,"x_min":0,"x_max":0,"o":""}," ":{"ha":232,"x_min":0,"x_max":0,"o":""}," ":{"ha":463,"x_min":0,"x_max":0,"o":""}," ":{"ha":882,"x_min":0,"x_max":0,"o":""}," ":{"ha":375,"x_min":0,"x_max":0,"o":""},"A":{"ha":968,"x_min":0,"x_max":0,"o":"m 983 0 l 633 926 l 333 926 l -15 0 l 244 0 l 292 140 l 676 140 l 724 0 z m 614 342 l 354 342 l 483 718 z "},"B":{"ha":944,"x_min":0,"x_max":0,"o":"m 625 0 b 897 251 807 0 897 117 b 721 478 897 368 819 463 b 879 690 808 497 879 575 b 608 926 879 807 792 926 l 83 926 l 83 0 z m 322 728 l 554 728 b 636 649 603 728 636 694 b 554 568 636 603 603 568 l 322 568 z m 322 371 l 563 371 b 654 283 621 371 654 331 b 563 199 654 233 619 199 l 322 199 z "},"C":{"ha":961,"x_min":0,"x_max":0,"o":"m 531 -17 b 942 232 761 -17 882 113 l 736 329 b 531 194 706 256 626 194 b 279 463 386 194 279 311 b 531 731 279 614 386 731 b 736 596 626 731 706 669 l 942 693 b 531 942 881 815 761 942 b 36 463 253 942 36 749 b 531 -17 36 178 253 -17 z "},"D":{"ha":1010,"x_min":0,"x_max":0,"o":"m 474 0 b 974 464 764 0 974 176 b 472 926 974 751 764 926 l 83 926 l 83 0 z m 322 718 l 474 718 b 729 464 643 718 729 607 b 472 208 729 326 635 208 l 322 208 z "},"E":{"ha":818,"x_min":0,"x_max":0,"o":"m 763 0 l 763 201 l 322 201 l 322 368 l 753 368 l 753 571 l 322 571 l 322 725 l 763 725 l 763 926 l 83 926 l 83 0 z "},"F":{"ha":808,"x_min":0,"x_max":0,"o":"m 322 0 l 322 368 l 753 368 l 753 571 l 322 571 l 322 725 l 763 725 l 763 926 l 83 926 l 83 0 z "},"G":{"ha":1004,"x_min":0,"x_max":0,"o":"m 36 463 b 538 -17 36 168 261 -17 b 947 164 713 -17 847 54 l 947 526 l 500 526 l 500 328 l 713 328 l 713 250 b 538 194 675 219 610 194 b 279 463 386 194 279 311 b 538 731 279 614 386 731 b 733 621 625 731 696 682 l 933 726 b 538 942 865 842 740 942 b 36 463 261 942 36 757 z "},"H":{"ha":1029,"x_min":0,"x_max":0,"o":"m 946 0 l 946 926 l 707 926 l 707 581 l 322 581 l 322 926 l 83 926 l 83 0 l 322 0 l 322 372 l 707 372 l 707 0 z "},"I":{"ha":406,"x_min":0,"x_max":0,"o":"m 322 0 l 322 926 l 83 926 l 83 0 z "},"J":{"ha":683,"x_min":0,"x_max":0,"o":"m 4 67 b 258 -17 74 6 165 -17 b 600 318 461 -17 600 89 l 600 926 l 361 926 l 361 321 b 238 194 361 243 313 194 b 104 249 182 194 138 221 z "},"K":{"ha":908,"x_min":0,"x_max":0,"o":"m 921 0 l 542 493 l 901 926 l 607 926 l 322 546 l 322 926 l 83 926 l 83 0 l 322 0 l 322 271 l 385 349 l 628 0 z "},"L":{"ha":735,"x_min":0,"x_max":0,"o":"m 694 0 l 694 208 l 322 208 l 322 926 l 83 926 l 83 0 z "},"M":{"ha":1218,"x_min":0,"x_max":0,"o":"m 1135 0 l 1135 926 l 803 926 l 608 401 l 415 926 l 83 926 l 83 0 l 322 0 l 322 625 l 556 0 l 661 0 l 896 625 l 896 0 z "},"N":{"ha":1028,"x_min":0,"x_max":0,"o":"m 944 0 l 944 926 l 704 926 l 704 393 l 329 926 l 83 926 l 83 0 l 322 0 l 322 560 l 714 0 z "},"O":{"ha":1064,"x_min":0,"x_max":0,"o":"m 36 463 b 532 -17 36 181 249 -17 b 1026 463 815 -17 1026 181 b 532 942 1026 744 815 942 b 36 463 249 942 36 744 z m 783 463 b 532 194 783 313 685 194 b 279 463 378 194 279 313 b 532 731 279 614 378 731 b 783 463 685 731 783 614 z "},"P":{"ha":893,"x_min":0,"x_max":0,"o":"m 322 0 l 322 314 l 547 314 b 869 618 756 314 869 451 b 547 926 869 786 756 926 l 83 926 l 83 0 z m 626 619 b 515 517 626 557 579 517 l 322 517 l 322 725 l 515 725 b 626 619 579 725 626 683 z "},"Q":{"ha":1064,"x_min":0,"x_max":0,"o":"m 1026 463 b 532 942 1026 744 815 942 b 36 463 249 942 36 744 b 532 -17 36 181 249 -17 b 733 21 604 -17 672 -4 l 801 -62 l 968 71 l 910 142 b 1026 463 983 225 1026 335 z m 532 194 b 279 463 378 194 279 313 b 532 731 279 614 378 731 b 783 463 685 731 783 614 b 754 331 783 414 774 369 l 658 446 l 493 313 l 586 200 b 532 194 569 196 551 194 z "},"R":{"ha":918,"x_min":0,"x_max":0,"o":"m 874 0 l 685 340 b 869 618 771 371 869 457 b 547 926 869 790 753 926 l 83 926 l 83 0 l 322 0 l 322 314 l 444 314 l 600 0 z m 626 621 b 511 517 626 557 574 517 l 322 517 l 322 725 l 511 725 b 626 621 574 725 626 685 z "},"S":{"ha":842,"x_min":0,"x_max":0,"o":"m 17 131 b 428 -17 110 42 240 -17 b 814 293 676 -17 814 107 b 450 579 814 503 603 547 b 290 664 347 599 290 615 b 400 736 290 704 321 736 b 661 640 482 736 583 704 l 792 811 b 415 940 693 896 564 940 b 46 650 178 940 46 806 b 413 361 46 431 260 392 b 571 267 511 340 571 319 b 439 188 571 222 521 188 b 143 310 313 188 210 243 z "},"T":{"ha":818,"x_min":0,"x_max":0,"o":"m 529 0 l 529 718 l 788 718 l 788 926 l 31 926 l 31 718 l 290 718 l 290 0 z "},"U":{"ha":1026,"x_min":0,"x_max":0,"o":"m 83 375 b 514 -17 83 147 217 -17 b 943 376 811 -17 943 146 l 943 926 l 700 926 l 700 383 b 514 194 700 274 642 194 b 326 383 385 194 326 274 l 326 926 l 83 926 z "},"V":{"ha":968,"x_min":0,"x_max":0,"o":"m 633 0 l 983 926 l 713 926 l 483 258 l 256 926 l -15 926 l 333 0 z "},"W":{"ha":1300,"x_min":0,"x_max":0,"o":"m 1043 0 l 1308 926 l 1039 926 l 900 308 l 742 926 l 558 926 l 400 308 l 260 926 l -8 926 l 257 0 l 510 0 l 650 581 l 790 0 z "},"X":{"ha":939,"x_min":0,"x_max":0,"o":"m 953 0 l 631 476 l 932 926 l 649 926 l 469 636 l 288 926 l 6 926 l 308 475 l -15 0 l 268 0 l 469 311 l 671 0 z "},"Y":{"ha":910,"x_min":0,"x_max":0,"o":"m 575 0 l 575 374 l 925 926 l 654 926 l 456 585 l 254 926 l -15 926 l 336 374 l 336 0 z "},"Z":{"ha":828,"x_min":0,"x_max":0,"o":"m 774 0 l 774 208 l 368 208 l 764 736 l 764 926 l 54 926 l 54 718 l 449 718 l 54 190 l 54 0 z "},"a":{"ha":765,"x_min":0,"x_max":0,"o":"m 688 0 l 688 419 b 375 688 688 628 536 688 b 71 583 272 688 157 657 l 147 449 b 338 519 201 494 271 519 b 474 422 424 519 474 481 l 474 338 b 265 415 433 388 354 415 b 35 204 163 415 35 367 b 265 -17 35 53 163 -17 b 474 67 351 -17 432 17 l 474 0 z m 474 172 b 354 124 451 140 401 124 b 247 201 297 124 247 149 b 354 279 247 254 297 279 b 474 232 401 279 451 263 z "},"b":{"ha":821,"x_min":0,"x_max":0,"o":"m 292 0 l 292 78 b 490 -17 347 14 415 -17 b 786 336 656 -17 786 108 b 490 688 786 556 657 688 b 292 592 417 688 344 658 l 292 926 l 78 926 l 78 0 z m 292 438 b 419 499 318 474 374 499 b 568 336 504 499 568 436 b 419 172 568 235 504 172 b 292 232 374 172 318 196 z "},"c":{"ha":694,"x_min":0,"x_max":0,"o":"m 33 336 b 400 -17 33 125 190 -17 b 675 107 544 -17 635 49 l 536 238 b 410 172 510 200 467 172 b 253 336 321 172 253 235 b 410 499 253 438 321 499 b 536 435 467 499 510 474 l 675 564 b 400 688 635 624 544 688 b 33 336 190 688 33 546 z "},"d":{"ha":821,"x_min":0,"x_max":0,"o":"m 742 0 l 742 926 l 529 926 l 529 592 b 331 688 475 658 404 688 b 33 336 163 688 33 556 b 331 -17 33 108 165 -17 b 529 78 406 -17 474 14 l 529 0 z m 529 233 b 400 172 501 197 446 172 b 253 336 315 172 253 236 b 400 499 253 436 315 499 b 529 439 446 499 501 475 z "},"e":{"ha":761,"x_min":0,"x_max":0,"o":"m 33 336 b 400 -17 33 118 193 -17 b 681 72 503 -17 614 13 l 590 206 b 426 149 553 172 486 149 b 256 268 326 149 268 206 l 733 268 l 733 314 b 390 688 733 542 589 688 b 33 336 181 688 33 531 z m 390 522 b 529 407 489 522 524 454 l 253 407 b 390 522 261 456 297 522 z "},"f":{"ha":485,"x_min":0,"x_max":0,"o":"m 474 485 l 474 671 l 338 671 l 338 699 b 411 778 338 750 367 778 b 467 764 431 778 450 774 l 506 910 b 364 940 472 928 422 940 b 124 704 225 940 124 847 l 124 671 l 13 671 l 13 485 l 124 485 l 124 0 l 338 0 l 338 485 z "},"g":{"ha":819,"x_min":0,"x_max":0,"o":"m 60 -172 b 357 -272 146 -243 242 -272 b 740 60 524 -272 740 -214 l 740 671 l 528 671 l 528 592 b 329 688 474 658 404 688 b 33 350 161 688 33 571 b 329 11 33 124 165 11 b 528 108 406 11 472 43 l 528 57 b 357 -97 528 -68 428 -97 b 153 -19 279 -97 204 -75 z m 528 260 b 400 200 501 224 444 200 b 253 350 315 200 253 251 b 400 499 253 447 315 499 b 528 439 444 499 501 475 z "},"h":{"ha":825,"x_min":0,"x_max":0,"o":"m 747 0 l 747 478 b 525 688 747 601 678 688 b 293 589 413 688 333 636 l 293 926 l 79 926 l 79 0 l 293 0 l 293 433 b 422 499 318 464 360 499 b 533 390 490 499 533 472 l 533 0 z "},"i":{"ha":369,"x_min":0,"x_max":0,"o":"m 185 756 b 307 878 253 756 307 810 b 185 1000 307 946 253 1000 b 63 878 117 1000 63 946 b 185 756 63 810 117 756 z m 292 0 l 292 671 l 78 671 l 78 0 z "},"j":{"ha":369,"x_min":0,"x_max":0,"o":"m 185 756 b 307 878 253 756 307 810 b 185 1000 307 946 253 1000 b 63 878 117 1000 63 946 b 185 756 63 810 117 756 z m 78 671 l 78 6 b -3 -96 78 -64 46 -96 b -39 -93 -12 -96 -26 -96 l -44 -267 b 32 -272 -24 -271 1 -272 b 292 6 211 -272 292 -157 l 292 671 z "},"k":{"ha":758,"x_min":0,"x_max":0,"o":"m 767 0 l 507 365 l 754 671 l 496 671 l 292 403 l 292 926 l 78 926 l 78 0 l 292 0 l 292 161 l 356 238 l 503 0 z "},"l":{"ha":369,"x_min":0,"x_max":0,"o":"m 292 0 l 292 926 l 78 926 l 78 0 z "},"m":{"ha":1215,"x_min":0,"x_max":0,"o":"m 1136 0 l 1136 486 b 935 688 1136 624 1058 688 b 703 568 829 688 742 626 b 513 688 675 647 608 688 b 292 589 407 688 321 628 l 292 671 l 78 671 l 78 0 l 292 0 l 292 433 b 411 499 314 461 354 499 b 500 408 476 499 500 460 l 500 0 l 714 0 l 714 433 b 835 499 735 461 776 499 b 924 408 899 499 924 460 l 924 0 z "},"n":{"ha":824,"x_min":0,"x_max":0,"o":"m 746 0 l 746 475 b 524 688 746 599 676 688 b 292 589 411 688 332 636 l 292 671 l 78 671 l 78 0 l 292 0 l 292 433 b 422 499 317 464 358 499 b 532 388 489 499 532 469 l 532 0 z "},"o":{"ha":800,"x_min":0,"x_max":0,"o":"m 399 -17 b 765 336 629 -17 765 147 b 399 688 765 525 629 688 b 33 336 171 688 33 525 b 399 -17 33 147 171 -17 z m 399 172 b 254 336 306 172 254 246 b 399 499 254 425 306 499 b 546 336 493 499 546 425 b 399 172 546 246 493 172 z "},"p":{"ha":819,"x_min":0,"x_max":0,"o":"m 292 79 b 490 -17 347 13 415 -17 b 785 336 658 -17 785 108 b 490 688 785 563 658 688 b 292 593 414 688 344 657 l 292 671 l 78 671 l 78 -256 l 292 -256 z m 567 336 b 419 172 567 235 503 172 b 292 233 374 172 318 199 l 292 438 b 419 499 318 474 374 499 b 567 336 503 499 567 436 z "},"q":{"ha":819,"x_min":0,"x_max":0,"o":"m 740 671 l 528 671 l 528 593 b 329 688 475 657 406 688 b 33 336 160 688 33 563 b 329 -17 33 108 160 -17 b 528 79 404 -17 472 13 l 528 -256 l 740 -256 z m 528 233 b 400 172 501 199 444 172 b 253 336 317 172 253 235 b 400 499 253 436 317 499 b 528 438 444 499 501 474 z "},"r":{"ha":521,"x_min":0,"x_max":0,"o":"m 292 0 l 292 425 b 449 488 319 464 393 488 b 501 481 471 488 489 485 l 501 688 b 292 586 421 688 336 640 l 292 671 l 78 671 l 78 0 z "},"s":{"ha":672,"x_min":0,"x_max":0,"o":"m 21 86 b 335 -17 92 24 215 -17 b 640 206 528 -17 640 78 b 357 431 640 383 471 411 b 250 485 286 443 250 454 b 335 531 250 514 285 531 b 532 457 415 531 492 496 l 614 599 b 333 688 542 651 446 688 b 46 467 147 688 46 585 b 321 253 46 296 207 272 b 436 194 390 242 436 229 b 346 144 436 165 410 144 b 110 233 267 144 160 189 z "},"t":{"ha":500,"x_min":0,"x_max":0,"o":"m 332 -17 b 490 28 411 -17 464 3 l 449 189 b 394 172 442 181 418 172 b 335 240 357 172 335 201 l 335 485 l 471 485 l 471 671 l 335 671 l 335 854 l 122 854 l 122 671 l 11 671 l 11 485 l 122 485 l 122 181 b 332 -17 122 51 196 -17 z "},"u":{"ha":822,"x_min":0,"x_max":0,"o":"m 744 0 l 744 671 l 531 671 l 531 238 b 403 172 506 206 464 172 b 292 281 333 172 292 200 l 292 671 l 78 671 l 78 193 b 299 -17 78 69 146 -17 b 531 81 411 -17 489 33 l 531 0 z "},"v":{"ha":728,"x_min":0,"x_max":0,"o":"m 478 0 l 742 671 l 515 671 l 363 246 l 211 671 l -14 671 l 250 0 z "},"w":{"ha":1093,"x_min":0,"x_max":0,"o":"m 903 0 l 1101 671 l 881 671 l 774 260 l 642 671 l 451 671 l 319 260 l 211 671 l -8 671 l 190 0 l 421 0 l 546 415 l 672 0 z "},"x":{"ha":711,"x_min":0,"x_max":0,"o":"m 719 0 l 490 344 l 704 671 l 469 671 l 356 489 l 240 671 l 6 671 l 221 344 l -8 0 l 225 0 l 356 203 l 485 0 z "},"y":{"ha":728,"x_min":0,"x_max":0,"o":"m 64 -261 b 156 -272 86 -268 136 -272 b 439 -96 283 -269 385 -237 l 742 671 l 515 671 l 363 246 l 211 671 l -14 671 l 253 -10 l 238 -46 b 147 -83 226 -74 196 -83 b 94 -71 131 -83 110 -79 z "},"z":{"ha":671,"x_min":0,"x_max":0,"o":"m 618 0 l 618 185 l 338 185 l 613 519 l 613 671 l 53 671 l 53 485 l 322 485 l 53 157 l 53 0 z "},"Á":{"ha":968,"x_min":0,"x_max":0,"o":"m 771 1204 l 582 1204 l 406 1004 l 550 1004 z m 983 0 l 633 926 l 333 926 l -15 0 l 244 0 l 292 140 l 676 140 l 724 0 z m 614 342 l 354 342 l 483 718 z "},"Ă":{"ha":968,"x_min":0,"x_max":0,"o":"m 483 997 b 726 1119 583 997 671 1044 l 635 1196 b 483 1115 600 1144 547 1115 b 331 1196 417 1115 365 1149 l 239 1119 b 483 997 296 1044 385 997 z m 983 0 l 633 926 l 333 926 l -15 0 l 244 0 l 292 140 l 676 140 l 724 0 z m 614 342 l 354 342 l 483 718 z "},"Â":{"ha":968,"x_min":0,"x_max":0,"o":"m 707 1004 l 578 1204 l 390 1204 l 265 1004 l 392 1004 l 483 1117 l 579 1004 z m 983 0 l 633 926 l 333 926 l -15 0 l 244 0 l 292 140 l 676 140 l 724 0 z m 614 342 l 354 342 l 483 718 z "},"Ä":{"ha":968,"x_min":0,"x_max":0,"o":"m 336 988 b 444 1096 397 988 444 1035 b 336 1206 444 1157 397 1206 b 226 1096 275 1206 226 1157 b 336 988 226 1035 275 988 z m 633 988 b 743 1096 693 988 743 1035 b 633 1206 743 1157 693 1206 b 524 1096 572 1206 524 1157 b 633 988 524 1035 572 988 z m 983 0 l 633 926 l 333 926 l -15 0 l 244 0 l 292 140 l 676 140 l 724 0 z m 614 342 l 354 342 l 483 718 z "},"À":{"ha":968,"x_min":0,"x_max":0,"o":"m 558 1004 l 382 1204 l 193 1204 l 414 1004 z m 983 0 l 633 926 l 333 926 l -15 0 l 244 0 l 292 140 l 676 140 l 724 0 z m 614 342 l 354 342 l 483 718 z "},"Ā":{"ha":968,"x_min":0,"x_max":0,"o":"m 725 1004 l 725 1122 l 240 1122 l 240 1004 z m 983 0 l 633 926 l 333 926 l -15 0 l 244 0 l 292 140 l 676 140 l 724 0 z m 614 342 l 354 342 l 483 718 z "},"Ą":{"ha":968,"x_min":0,"x_max":0,"o":"m 983 0 l 633 926 l 333 926 l -15 0 l 244 0 l 292 140 l 676 140 l 724 0 l 778 0 b 625 -142 679 -33 625 -79 b 796 -258 625 -229 718 -258 b 931 -232 853 -258 892 -253 l 894 -126 b 858 -135 883 -132 871 -135 b 811 -93 833 -135 811 -119 b 933 0 811 -53 850 -15 z m 483 718 l 614 342 l 354 342 z "},"Å":{"ha":968,"x_min":0,"x_max":0,"o":"m 335 1111 b 486 961 335 1029 403 961 b 633 1111 568 961 633 1029 b 486 1263 633 1194 568 1263 b 335 1111 403 1263 335 1194 z m 540 1111 b 486 1056 540 1081 517 1056 b 429 1111 454 1056 429 1081 b 486 1168 429 1143 454 1168 b 540 1111 517 1168 540 1143 z m 983 0 l 633 926 l 333 926 l -15 0 l 244 0 l 292 140 l 676 140 l 724 0 z m 614 342 l 354 342 l 483 718 z "},"Ǻ":{"ha":968,"x_min":0,"x_max":0,"o":"m 771 1499 l 582 1499 l 406 1299 l 550 1299 z m 335 1111 b 486 961 335 1029 403 961 b 633 1111 568 961 633 1029 b 486 1263 633 1194 568 1263 b 335 1111 403 1263 335 1194 z m 540 1111 b 486 1056 540 1081 517 1056 b 429 1111 454 1056 429 1081 b 486 1168 429 1143 454 1168 b 540 1111 517 1168 540 1143 z m 983 0 l 633 926 l 333 926 l -15 0 l 244 0 l 292 140 l 676 140 l 724 0 z m 614 342 l 354 342 l 483 718 z "},"Ã":{"ha":968,"x_min":0,"x_max":0,"o":"m 453 1049 b 560 1001 478 1028 507 1001 b 717 1188 663 1001 717 1065 l 608 1188 b 567 1119 608 1140 589 1119 b 517 1149 547 1119 533 1133 b 410 1196 492 1169 463 1196 b 253 1010 307 1196 253 1133 l 361 1010 b 403 1078 361 1057 381 1078 b 453 1049 422 1078 436 1064 z m 983 0 l 633 926 l 333 926 l -15 0 l 244 0 l 292 140 l 676 140 l 724 0 z m 614 342 l 354 342 l 483 718 z "},"Ạ":{"ha":968,"x_min":0,"x_max":0,"o":"m 983 0 l 633 926 l 333 926 l -15 0 l 244 0 l 292 140 l 676 140 l 724 0 z m 614 342 l 354 342 l 483 718 z m 375 -167 b 483 -275 375 -226 424 -275 b 592 -167 542 -275 592 -226 b 483 -57 592 -107 542 -57 b 375 -167 424 -57 375 -107 z "},"Ả":{"ha":968,"x_min":0,"x_max":0,"o":"m 418 1093 b 474 1139 428 1119 446 1139 b 521 1089 497 1139 521 1125 b 488 1004 521 1058 511 1031 l 600 1004 b 625 1094 615 1033 625 1058 b 474 1226 625 1188 553 1226 b 325 1124 407 1226 349 1193 z m 983 0 l 633 926 l 333 926 l -15 0 l 244 0 l 292 140 l 676 140 l 724 0 z m 614 342 l 354 342 l 483 718 z "},"Ấ":{"ha":968,"x_min":0,"x_max":0,"o":"m 1031 1258 l 828 1258 l 665 1108 l 824 1108 z m 707 1004 l 582 1154 l 385 1154 l 265 1004 l 392 1004 l 483 1086 l 579 1004 z m 983 0 l 633 926 l 333 926 l -15 0 l 244 0 l 292 140 l 676 140 l 724 0 z m 614 342 l 354 342 l 483 718 z "},"Ậ":{"ha":968,"x_min":0,"x_max":0,"o":"m 707 1004 l 578 1204 l 390 1204 l 265 1004 l 392 1004 l 483 1117 l 579 1004 z m 983 0 l 633 926 l 333 926 l -15 0 l 244 0 l 292 140 l 676 140 l 724 0 z m 614 342 l 354 342 l 483 718 z m 375 -167 b 483 -275 375 -226 424 -275 b 592 -167 542 -275 592 -226 b 483 -57 592 -107 542 -57 b 375 -167 424 -57 375 -107 z "},"Ầ":{"ha":968,"x_min":0,"x_max":0,"o":"m 311 1108 l 149 1258 l -54 1258 l 153 1108 z m 707 1004 l 582 1154 l 385 1154 l 265 1004 l 392 1004 l 483 1086 l 579 1004 z m 983 0 l 633 926 l 333 926 l -15 0 l 244 0 l 292 140 l 676 140 l 724 0 z m 614 342 l 354 342 l 483 718 z "},"Ẩ":{"ha":968,"x_min":0,"x_max":0,"o":"m 596 1193 b 651 1224 606 1210 624 1224 b 699 1188 675 1224 699 1211 b 671 1136 699 1168 689 1151 l 778 1136 b 803 1203 793 1157 803 1176 b 651 1303 803 1274 731 1303 b 503 1225 585 1303 526 1278 z m 707 1004 l 582 1154 l 385 1154 l 265 1004 l 392 1004 l 483 1086 l 579 1004 z m 983 0 l 633 926 l 333 926 l -15 0 l 244 0 l 292 140 l 676 140 l 724 0 z m 614 342 l 354 342 l 483 718 z "},"Ắ":{"ha":968,"x_min":0,"x_max":0,"o":"m 772 1326 l 569 1326 l 407 1176 l 565 1176 z m 483 1004 b 726 1093 583 1004 671 1038 l 651 1171 b 483 1111 611 1133 554 1111 b 315 1171 410 1111 354 1136 l 239 1093 b 483 1004 296 1038 385 1004 z m 983 0 l 633 926 l 333 926 l -15 0 l 244 0 l 292 140 l 676 140 l 724 0 z m 614 342 l 354 342 l 483 718 z "},"Ẫ":{"ha":968,"x_min":0,"x_max":0,"o":"m 453 1207 b 560 1174 478 1192 507 1174 b 717 1313 663 1174 717 1219 l 608 1313 b 567 1265 608 1281 589 1265 b 517 1286 547 1265 533 1275 b 410 1319 492 1301 463 1319 b 253 1179 307 1319 253 1271 l 361 1179 b 406 1225 361 1211 382 1225 b 453 1207 424 1225 436 1218 z m 707 1004 l 582 1154 l 385 1154 l 265 1004 l 392 1004 l 483 1086 l 579 1004 z m 983 0 l 633 926 l 333 926 l -15 0 l 244 0 l 292 140 l 676 140 l 724 0 z m 614 342 l 354 342 l 483 718 z "},"Ằ":{"ha":968,"x_min":0,"x_max":0,"o":"m 561 1176 l 399 1326 l 196 1326 l 403 1176 z m 483 1004 b 726 1093 583 1004 671 1038 l 651 1171 b 483 1111 611 1133 554 1111 b 315 1171 410 1111 354 1136 l 239 1093 b 483 1004 296 1038 385 1004 z m 983 0 l 633 926 l 333 926 l -15 0 l 244 0 l 292 140 l 676 140 l 724 0 z m 614 342 l 354 342 l 483 718 z "},"Ẳ":{"ha":968,"x_min":0,"x_max":0,"o":"m 414 1233 b 469 1264 424 1250 442 1264 b 517 1228 493 1264 517 1251 b 489 1176 517 1208 507 1192 l 596 1176 b 621 1243 611 1197 621 1217 b 469 1343 621 1314 549 1343 b 321 1265 403 1343 344 1318 z m 483 1004 b 726 1093 583 1004 671 1038 l 651 1171 b 483 1111 611 1133 554 1111 b 315 1171 410 1111 354 1136 l 239 1093 b 483 1004 296 1038 385 1004 z m 983 0 l 633 926 l 333 926 l -15 0 l 244 0 l 292 140 l 676 140 l 724 0 z m 614 342 l 354 342 l 483 718 z "},"Ẵ":{"ha":968,"x_min":0,"x_max":0,"o":"m 453 1222 b 560 1189 478 1207 507 1189 b 717 1328 663 1189 717 1235 l 608 1328 b 567 1281 608 1296 589 1281 b 517 1301 547 1281 533 1290 b 410 1335 492 1317 463 1335 b 253 1194 307 1335 253 1286 l 361 1194 b 406 1240 361 1226 382 1240 b 453 1222 424 1240 436 1233 z m 483 1004 b 726 1093 583 1004 671 1038 l 651 1171 b 483 1111 611 1133 554 1111 b 315 1171 410 1111 354 1136 l 239 1093 b 483 1004 296 1038 385 1004 z m 983 0 l 633 926 l 333 926 l -15 0 l 244 0 l 292 140 l 676 140 l 724 0 z m 614 342 l 354 342 l 483 718 z "},"Ặ":{"ha":968,"x_min":0,"x_max":0,"o":"m 483 997 b 726 1119 583 997 671 1044 l 635 1196 b 483 1115 600 1144 547 1115 b 331 1196 417 1115 365 1149 l 239 1119 b 483 997 296 1044 385 997 z m 983 0 l 633 926 l 333 926 l -15 0 l 244 0 l 292 140 l 676 140 l 724 0 z m 614 342 l 354 342 l 483 718 z m 375 -167 b 483 -275 375 -226 424 -275 b 592 -167 542 -275 592 -226 b 483 -57 592 -107 542 -57 b 375 -167 424 -57 375 -107 z "},"Æ":{"ha":1360,"x_min":0,"x_max":0,"o":"m 1310 0 l 1310 201 l 869 201 l 869 368 l 1300 368 l 1300 571 l 869 571 l 869 725 l 1310 725 l 1310 926 l 532 926 l -24 0 l 238 0 l 315 140 l 631 140 l 631 0 z m 631 342 l 424 342 l 631 718 z "},"Ǽ":{"ha":1360,"x_min":0,"x_max":0,"o":"m 1035 1204 l 846 1204 l 669 1004 l 814 1004 z m 1310 0 l 1310 201 l 869 201 l 869 368 l 1300 368 l 1300 571 l 869 571 l 869 725 l 1310 725 l 1310 926 l 532 926 l -24 0 l 238 0 l 315 140 l 631 140 l 631 0 z m 631 342 l 424 342 l 631 718 z "},"Ḃ":{"ha":944,"x_min":0,"x_max":0,"o":"m 365 1096 b 474 988 365 1036 414 988 b 582 1096 532 988 582 1036 b 474 1206 582 1156 532 1206 b 365 1096 414 1206 365 1156 z m 625 0 b 897 251 807 0 897 117 b 721 478 897 368 819 463 b 879 690 808 497 879 575 b 608 926 879 807 792 926 l 83 926 l 83 0 z m 322 728 l 554 728 b 636 649 603 728 636 694 b 554 568 636 603 603 568 l 322 568 z m 322 371 l 563 371 b 654 283 621 371 654 331 b 563 199 654 233 619 199 l 322 199 z "},"Ć":{"ha":961,"x_min":0,"x_max":0,"o":"m 818 1204 l 629 1204 l 453 1004 l 597 1004 z m 531 -17 b 942 232 761 -17 882 113 l 736 329 b 531 194 706 256 626 194 b 279 463 386 194 279 311 b 531 731 279 614 386 731 b 736 596 626 731 706 669 l 942 693 b 531 942 881 815 761 942 b 36 463 253 942 36 749 b 531 -17 36 178 253 -17 z "},"Ç":{"ha":961,"x_min":0,"x_max":0,"o":"m 531 194 b 279 463 386 194 279 311 b 531 731 279 614 386 731 b 736 596 626 731 706 669 l 942 693 b 531 942 881 815 761 942 b 36 463 253 942 36 749 b 472 -14 36 199 224 11 l 440 -97 l 514 -139 b 554 -121 524 -129 538 -121 b 589 -150 576 -121 589 -132 b 524 -190 589 -178 557 -190 b 410 -149 486 -190 446 -175 l 371 -229 b 529 -275 400 -253 460 -275 b 689 -153 617 -275 689 -231 b 594 -54 689 -96 646 -54 b 547 -68 576 -54 561 -60 l 569 -15 b 942 232 775 -1 885 119 l 736 329 b 531 194 706 256 626 194 z "},"Ĉ":{"ha":961,"x_min":0,"x_max":0,"o":"m 754 1004 l 625 1204 l 438 1204 l 313 1004 l 439 1004 l 531 1117 l 626 1004 z m 531 -17 b 942 232 761 -17 882 113 l 736 329 b 531 194 706 256 626 194 b 279 463 386 194 279 311 b 531 731 279 614 386 731 b 736 596 626 731 706 669 l 942 693 b 531 942 881 815 761 942 b 36 463 253 942 36 749 b 531 -17 36 178 253 -17 z "},"Ċ":{"ha":961,"x_min":0,"x_max":0,"o":"m 422 1096 b 531 988 422 1036 471 988 b 639 1096 589 988 639 1036 b 531 1206 639 1156 589 1206 b 422 1096 471 1206 422 1156 z m 531 -17 b 942 232 761 -17 882 113 l 736 329 b 531 194 706 256 626 194 b 279 463 386 194 279 311 b 531 731 279 614 386 731 b 736 596 626 731 706 669 l 942 693 b 531 942 881 815 761 942 b 36 463 253 942 36 749 b 531 -17 36 178 253 -17 z "},"Č":{"ha":961,"x_min":0,"x_max":0,"o":"m 625 1004 l 750 1204 l 622 1204 l 531 1092 l 435 1204 l 308 1204 l 438 1004 z m 531 -17 b 942 232 761 -17 882 113 l 736 329 b 531 194 706 256 626 194 b 279 463 386 194 279 311 b 531 731 279 614 386 731 b 736 596 626 731 706 669 l 942 693 b 531 942 881 815 761 942 b 36 463 253 942 36 749 b 531 -17 36 178 253 -17 z "},"Ď":{"ha":1010,"x_min":0,"x_max":0,"o":"m 597 1004 l 722 1204 l 594 1204 l 503 1092 l 407 1204 l 281 1204 l 410 1004 z m 474 0 b 974 464 764 0 974 176 b 472 926 974 751 764 926 l 83 926 l 83 0 z m 322 718 l 474 718 b 729 464 643 718 729 607 b 472 208 729 326 635 208 l 322 208 z "},"Đ":{"ha":1042,"x_min":0,"x_max":0,"o":"m 115 926 l 115 553 l 11 553 l 11 368 l 115 368 l 115 0 l 506 0 b 1004 464 796 0 1004 176 b 504 926 1004 751 796 926 z m 354 208 l 354 368 l 547 368 l 547 553 l 354 553 l 354 718 l 506 718 b 761 464 675 718 761 607 b 504 208 761 326 667 208 z "},"Ḋ":{"ha":1010,"x_min":0,"x_max":0,"o":"m 396 1096 b 504 988 396 1036 444 988 b 613 1096 563 988 613 1036 b 504 1206 613 1156 563 1206 b 396 1096 444 1206 396 1156 z m 474 0 b 974 464 764 0 974 176 b 472 926 974 751 764 926 l 83 926 l 83 0 z m 322 718 l 474 718 b 729 464 643 718 729 607 b 472 208 729 326 635 208 l 322 208 z "},"É":{"ha":818,"x_min":0,"x_max":0,"o":"m 719 1204 l 531 1204 l 354 1004 l 499 1004 z m 763 0 l 763 201 l 322 201 l 322 368 l 753 368 l 753 571 l 322 571 l 322 725 l 763 725 l 763 926 l 83 926 l 83 0 z "},"Ĕ":{"ha":818,"x_min":0,"x_max":0,"o":"m 432 997 b 675 1119 532 997 619 1044 l 583 1196 b 432 1115 549 1144 496 1115 b 279 1196 365 1115 314 1149 l 188 1119 b 432 997 244 1044 333 997 z m 763 0 l 763 201 l 322 201 l 322 368 l 753 368 l 753 571 l 322 571 l 322 725 l 763 725 l 763 926 l 83 926 l 83 0 z "},"Ê":{"ha":818,"x_min":0,"x_max":0,"o":"m 656 1004 l 526 1204 l 339 1204 l 214 1004 l 340 1004 l 432 1117 l 528 1004 z m 763 0 l 763 201 l 322 201 l 322 368 l 753 368 l 753 571 l 322 571 l 322 725 l 763 725 l 763 926 l 83 926 l 83 0 z "},"Ë":{"ha":818,"x_min":0,"x_max":0,"o":"m 285 988 b 393 1096 346 988 393 1035 b 285 1206 393 1157 346 1206 b 175 1096 224 1206 175 1157 b 285 988 175 1035 224 988 z m 582 988 b 692 1096 642 988 692 1035 b 582 1206 692 1157 642 1206 b 472 1096 521 1206 472 1157 b 582 988 472 1035 521 988 z m 763 0 l 763 201 l 322 201 l 322 368 l 753 368 l 753 571 l 322 571 l 322 725 l 763 725 l 763 926 l 83 926 l 83 0 z "},"Ė":{"ha":818,"x_min":0,"x_max":0,"o":"m 324 1096 b 432 988 324 1036 372 988 b 540 1096 490 988 540 1036 b 432 1206 540 1156 490 1206 b 324 1096 372 1206 324 1156 z m 763 0 l 763 201 l 322 201 l 322 368 l 753 368 l 753 571 l 322 571 l 322 725 l 763 725 l 763 926 l 83 926 l 83 0 z "},"È":{"ha":818,"x_min":0,"x_max":0,"o":"m 507 1004 l 331 1204 l 142 1204 l 363 1004 z m 763 0 l 763 201 l 322 201 l 322 368 l 753 368 l 753 571 l 322 571 l 322 725 l 763 725 l 763 926 l 83 926 l 83 0 z "},"Ē":{"ha":818,"x_min":0,"x_max":0,"o":"m 674 1004 l 674 1122 l 189 1122 l 189 1004 z m 763 0 l 763 201 l 322 201 l 322 368 l 753 368 l 753 571 l 322 571 l 322 725 l 763 725 l 763 926 l 83 926 l 83 0 z "},"Ę":{"ha":818,"x_min":0,"x_max":0,"o":"m 763 926 l 83 926 l 83 0 l 607 0 b 453 -142 508 -33 453 -79 b 624 -258 453 -229 547 -258 b 760 -232 682 -258 719 -253 l 724 -126 b 688 -135 713 -132 700 -135 b 640 -93 663 -135 640 -119 b 763 0 640 -53 678 -15 l 763 201 l 322 201 l 322 368 l 753 368 l 753 571 l 322 571 l 322 725 l 763 725 z "},"Ě":{"ha":818,"x_min":0,"x_max":0,"o":"m 526 1004 l 651 1204 l 524 1204 l 432 1092 l 336 1204 l 210 1204 l 339 1004 z m 763 0 l 763 201 l 322 201 l 322 368 l 753 368 l 753 571 l 322 571 l 322 725 l 763 725 l 763 926 l 83 926 l 83 0 z "},"Ẹ":{"ha":818,"x_min":0,"x_max":0,"o":"m 763 0 l 763 201 l 322 201 l 322 368 l 753 368 l 753 571 l 322 571 l 322 725 l 763 725 l 763 926 l 83 926 l 83 0 z m 324 -167 b 432 -275 324 -226 372 -275 b 540 -167 490 -275 540 -226 b 432 -57 540 -107 490 -57 b 324 -167 372 -57 324 -107 z "},"Ẻ":{"ha":818,"x_min":0,"x_max":0,"o":"m 367 1093 b 422 1139 376 1119 394 1139 b 469 1089 446 1139 469 1125 b 436 1004 469 1058 460 1031 l 549 1004 b 574 1094 564 1033 574 1058 b 422 1226 574 1188 501 1226 b 274 1124 356 1226 297 1193 z m 763 0 l 763 201 l 322 201 l 322 368 l 753 368 l 753 571 l 322 571 l 322 725 l 763 725 l 763 926 l 83 926 l 83 0 z "},"Ẽ":{"ha":818,"x_min":0,"x_max":0,"o":"m 401 1049 b 508 1001 426 1028 456 1001 b 665 1188 611 1001 665 1065 l 557 1188 b 515 1119 557 1140 538 1119 b 465 1149 496 1119 482 1133 b 358 1196 440 1169 411 1196 b 201 1010 256 1196 201 1133 l 310 1010 b 351 1078 310 1057 329 1078 b 401 1049 371 1078 385 1064 z m 763 0 l 763 201 l 322 201 l 322 368 l 753 368 l 753 571 l 322 571 l 322 725 l 763 725 l 763 926 l 83 926 l 83 0 z "},"Ế":{"ha":818,"x_min":0,"x_max":0,"o":"m 979 1258 l 776 1258 l 614 1108 l 772 1108 z m 656 1004 l 531 1154 l 333 1154 l 214 1004 l 340 1004 l 432 1086 l 528 1004 z m 763 0 l 763 201 l 322 201 l 322 368 l 753 368 l 753 571 l 322 571 l 322 725 l 763 725 l 763 926 l 83 926 l 83 0 z "},"Ề":{"ha":818,"x_min":0,"x_max":0,"o":"m 260 1108 l 97 1258 l -106 1258 l 101 1108 z m 656 1004 l 531 1154 l 333 1154 l 214 1004 l 340 1004 l 432 1086 l 528 1004 z m 763 0 l 763 201 l 322 201 l 322 368 l 753 368 l 753 571 l 322 571 l 322 725 l 763 725 l 763 926 l 83 926 l 83 0 z "},"Ể":{"ha":818,"x_min":0,"x_max":0,"o":"m 544 1193 b 600 1224 554 1210 572 1224 b 647 1188 624 1224 647 1211 b 619 1136 647 1168 638 1151 l 726 1136 b 751 1203 742 1157 751 1176 b 600 1303 751 1274 679 1303 b 451 1225 533 1303 475 1278 z m 656 1004 l 531 1154 l 333 1154 l 214 1004 l 340 1004 l 432 1086 l 528 1004 z m 763 0 l 763 201 l 322 201 l 322 368 l 753 368 l 753 571 l 322 571 l 322 725 l 763 725 l 763 926 l 83 926 l 83 0 z "},"Ễ":{"ha":818,"x_min":0,"x_max":0,"o":"m 401 1207 b 508 1174 426 1192 456 1174 b 665 1313 611 1174 665 1219 l 557 1313 b 515 1265 557 1281 538 1265 b 465 1286 496 1265 482 1275 b 358 1319 440 1301 411 1319 b 201 1179 256 1319 201 1271 l 310 1179 b 354 1225 310 1211 331 1225 b 401 1207 372 1225 385 1218 z m 656 1004 l 531 1154 l 333 1154 l 214 1004 l 340 1004 l 432 1086 l 528 1004 z m 763 0 l 763 201 l 322 201 l 322 368 l 753 368 l 753 571 l 322 571 l 322 725 l 763 725 l 763 926 l 83 926 l 83 0 z "},"Ệ":{"ha":818,"x_min":0,"x_max":0,"o":"m 656 1004 l 526 1204 l 339 1204 l 214 1004 l 340 1004 l 432 1117 l 528 1004 z m 763 0 l 763 201 l 322 201 l 322 368 l 753 368 l 753 571 l 322 571 l 322 725 l 763 725 l 763 926 l 83 926 l 83 0 z m 324 -167 b 432 -275 324 -226 372 -275 b 540 -167 490 -275 540 -226 b 432 -57 540 -107 490 -57 b 324 -167 372 -57 324 -107 z "},"Ḟ":{"ha":808,"x_min":0,"x_max":0,"o":"m 318 1096 b 426 988 318 1036 367 988 b 535 1096 485 988 535 1036 b 426 1206 535 1156 485 1206 b 318 1096 367 1206 318 1156 z m 322 0 l 322 368 l 753 368 l 753 571 l 322 571 l 322 725 l 763 725 l 763 926 l 83 926 l 83 0 z "},"Ĝ":{"ha":1004,"x_min":0,"x_max":0,"o":"m 761 1004 l 632 1204 l 444 1204 l 319 1004 l 446 1004 l 538 1117 l 633 1004 z m 36 463 b 538 -17 36 168 261 -17 b 947 164 713 -17 847 54 l 947 526 l 500 526 l 500 328 l 713 328 l 713 250 b 538 194 675 219 610 194 b 279 463 386 194 279 311 b 538 731 279 614 386 731 b 733 621 625 731 696 682 l 933 726 b 538 942 865 842 740 942 b 36 463 261 942 36 757 z "},"Ğ":{"ha":1004,"x_min":0,"x_max":0,"o":"m 538 997 b 781 1119 638 997 725 1044 l 689 1196 b 538 1115 654 1144 601 1115 b 385 1196 471 1115 419 1149 l 293 1119 b 538 997 350 1044 439 997 z m 36 463 b 538 -17 36 168 261 -17 b 947 164 713 -17 847 54 l 947 526 l 500 526 l 500 328 l 713 328 l 713 250 b 538 194 675 219 610 194 b 279 463 386 194 279 311 b 538 731 279 614 386 731 b 733 621 625 731 696 682 l 933 726 b 538 942 865 842 740 942 b 36 463 261 942 36 757 z "},"Ġ":{"ha":1004,"x_min":0,"x_max":0,"o":"m 429 1096 b 538 988 429 1036 478 988 b 646 1096 596 988 646 1036 b 538 1206 646 1156 596 1206 b 429 1096 478 1206 429 1156 z m 36 463 b 538 -17 36 168 261 -17 b 947 164 713 -17 847 54 l 947 526 l 500 526 l 500 328 l 713 328 l 713 250 b 538 194 675 219 610 194 b 279 463 386 194 279 311 b 538 731 279 614 386 731 b 733 621 625 731 696 682 l 933 726 b 538 942 865 842 740 942 b 36 463 261 942 36 757 z "},"Ģ":{"ha":1004,"x_min":0,"x_max":0,"o":"m 36 463 b 538 -17 36 168 261 -17 b 947 164 713 -17 847 54 l 947 526 l 500 526 l 500 328 l 713 328 l 713 250 b 538 194 675 219 610 194 b 279 463 386 194 279 311 b 538 731 279 614 386 731 b 733 621 625 731 696 682 l 933 726 b 538 942 865 842 740 942 b 36 463 261 942 36 757 z m 524 -411 b 646 -193 597 -358 646 -281 b 538 -68 646 -114 594 -68 b 440 -167 485 -68 440 -112 b 522 -254 440 -219 476 -254 b 546 -250 532 -254 542 -253 b 456 -357 535 -290 490 -337 z "},"Ǧ":{"ha":1004,"x_min":0,"x_max":0,"o":"m 632 1004 l 757 1204 l 629 1204 l 538 1092 l 442 1204 l 315 1204 l 444 1004 z m 36 463 b 538 -17 36 168 261 -17 b 947 164 713 -17 847 54 l 947 526 l 500 526 l 500 328 l 713 328 l 713 250 b 538 194 675 219 610 194 b 279 463 386 194 279 311 b 538 731 279 614 386 731 b 733 621 625 731 696 682 l 933 726 b 538 942 865 842 740 942 b 36 463 261 942 36 757 z "},"Ħ":{"ha":1051,"x_min":0,"x_max":0,"o":"m 957 811 l 957 926 l 718 926 l 718 811 l 333 811 l 333 926 l 94 926 l 94 811 l 11 811 l 11 693 l 94 693 l 94 0 l 333 0 l 333 372 l 718 372 l 718 0 l 957 0 l 957 693 l 1042 693 l 1042 811 z m 333 581 l 333 693 l 718 693 l 718 581 z "},"Ĥ":{"ha":1029,"x_min":0,"x_max":0,"o":"m 739 1004 l 610 1204 l 422 1204 l 297 1004 l 424 1004 l 515 1117 l 611 1004 z m 946 0 l 946 926 l 707 926 l 707 581 l 322 581 l 322 926 l 83 926 l 83 0 l 322 0 l 322 372 l 707 372 l 707 0 z "},"Ḣ":{"ha":1029,"x_min":0,"x_max":0,"o":"m 407 1096 b 515 988 407 1036 456 988 b 624 1096 574 988 624 1036 b 515 1206 624 1156 574 1206 b 407 1096 456 1206 407 1156 z m 946 0 l 946 926 l 707 926 l 707 581 l 322 581 l 322 926 l 83 926 l 83 0 l 322 0 l 322 372 l 707 372 l 707 0 z "},"Í":{"ha":406,"x_min":0,"x_max":0,"o":"m 490 1204 l 301 1204 l 125 1004 l 269 1004 z m 322 0 l 322 926 l 83 926 l 83 0 z "},"Ĭ":{"ha":406,"x_min":0,"x_max":0,"o":"m 203 997 b 446 1119 303 997 390 1044 l 354 1196 b 203 1115 319 1144 267 1115 b 50 1196 136 1115 85 1149 l -42 1119 b 203 997 15 1044 104 997 z m 322 0 l 322 926 l 83 926 l 83 0 z "},"Î":{"ha":406,"x_min":0,"x_max":0,"o":"m 426 1004 l 297 1204 l 110 1204 l -15 1004 l 111 1004 l 203 1117 l 299 1004 z m 322 0 l 322 926 l 83 926 l 83 0 z "},"Ï":{"ha":406,"x_min":0,"x_max":0,"o":"m 56 988 b 164 1096 117 988 164 1035 b 56 1206 164 1157 117 1206 b -54 1096 -6 1206 -54 1157 b 56 988 -54 1035 -6 988 z m 353 988 b 463 1096 413 988 463 1035 b 353 1206 463 1157 413 1206 b 243 1096 292 1206 243 1157 b 353 988 243 1035 292 988 z m 322 0 l 322 926 l 83 926 l 83 0 z "},"İ":{"ha":406,"x_min":0,"x_max":0,"o":"m 94 1096 b 203 988 94 1036 143 988 b 311 1096 261 988 311 1036 b 203 1206 311 1156 261 1206 b 94 1096 143 1206 94 1156 z m 322 0 l 322 926 l 83 926 l 83 0 z "},"Ì":{"ha":406,"x_min":0,"x_max":0,"o":"m 278 1004 l 101 1204 l -87 1204 l 133 1004 z m 322 0 l 322 926 l 83 926 l 83 0 z "},"Ī":{"ha":406,"x_min":0,"x_max":0,"o":"m 444 1004 l 444 1122 l -40 1122 l -40 1004 z m 322 0 l 322 926 l 83 926 l 83 0 z "},"Į":{"ha":406,"x_min":0,"x_max":0,"o":"m 322 926 l 83 926 l 83 0 l 168 0 b 14 -142 68 -33 14 -79 b 185 -258 14 -229 107 -258 b 319 -232 242 -258 281 -253 l 283 -126 b 247 -135 272 -132 260 -135 b 201 -93 222 -135 201 -119 b 322 0 201 -53 239 -15 z "},"Ĩ":{"ha":406,"x_min":0,"x_max":0,"o":"m 172 1049 b 279 1001 197 1028 226 1001 b 436 1188 382 1001 436 1065 l 328 1188 b 286 1119 328 1140 308 1119 b 236 1149 267 1119 253 1133 b 129 1196 211 1169 182 1196 b -28 1010 26 1196 -28 1133 l 81 1010 b 122 1078 81 1057 100 1078 b 172 1049 142 1078 156 1064 z m 322 0 l 322 926 l 83 926 l 83 0 z "},"Ỉ":{"ha":406,"x_min":0,"x_max":0,"o":"m 138 1093 b 193 1139 147 1119 165 1139 b 240 1089 217 1139 240 1125 b 207 1004 240 1058 231 1031 l 319 1004 b 344 1094 335 1033 344 1058 b 193 1226 344 1188 272 1226 b 44 1124 126 1226 68 1193 z m 322 0 l 322 926 l 83 926 l 83 0 z "},"Ị":{"ha":406,"x_min":0,"x_max":0,"o":"m 322 0 l 322 926 l 83 926 l 83 0 z m 94 -167 b 203 -275 94 -226 143 -275 b 311 -167 261 -275 311 -226 b 203 -57 311 -107 261 -57 b 94 -167 143 -57 94 -107 z "},"Ĳ":{"ha":1089,"x_min":0,"x_max":0,"o":"m 322 0 l 322 926 l 83 926 l 83 0 z m 410 67 b 664 -17 479 6 571 -17 b 1006 318 867 -17 1006 89 l 1006 926 l 767 926 l 767 321 b 643 194 767 243 718 194 b 510 249 588 194 543 221 z "},"Ĵ":{"ha":683,"x_min":0,"x_max":0,"o":"m 707 1004 l 578 1204 l 390 1204 l 265 1004 l 392 1004 l 483 1117 l 579 1004 z m 4 67 b 258 -17 74 6 165 -17 b 600 318 461 -17 600 89 l 600 926 l 361 926 l 361 321 b 238 194 361 243 313 194 b 104 249 182 194 138 221 z "},"Ķ":{"ha":908,"x_min":0,"x_max":0,"o":"m 921 0 l 542 493 l 901 926 l 607 926 l 322 546 l 322 926 l 83 926 l 83 0 l 322 0 l 322 271 l 385 349 l 628 0 z m 450 -411 b 572 -193 524 -358 572 -281 b 464 -68 572 -114 521 -68 b 367 -167 411 -68 367 -112 b 449 -254 367 -219 403 -254 b 472 -250 458 -254 468 -253 b 382 -357 461 -290 417 -337 z "},"Ĺ":{"ha":735,"x_min":0,"x_max":0,"o":"m 676 1204 l 488 1204 l 311 1004 l 456 1004 z m 694 0 l 694 208 l 322 208 l 322 926 l 83 926 l 83 0 z "},"Ľ":{"ha":735,"x_min":0,"x_max":0,"o":"m 507 603 b 629 821 581 656 629 733 b 521 946 629 900 576 946 b 424 847 467 946 424 901 b 506 760 424 794 460 760 b 529 764 515 760 525 761 b 438 658 518 724 474 676 z m 694 0 l 694 208 l 322 208 l 322 926 l 83 926 l 83 0 z "},"Ļ":{"ha":735,"x_min":0,"x_max":0,"o":"m 694 0 l 694 208 l 322 208 l 322 926 l 83 926 l 83 0 z m 376 -411 b 499 -193 450 -358 499 -281 b 390 -68 499 -114 447 -68 b 293 -167 338 -68 293 -112 b 375 -254 293 -219 329 -254 b 399 -250 385 -254 394 -253 b 308 -357 388 -290 343 -337 z "},"Ŀ":{"ha":792,"x_min":0,"x_max":0,"o":"m 694 0 l 694 208 l 322 208 l 322 926 l 83 926 l 83 0 z m 600 346 b 729 475 671 346 729 406 b 600 606 729 546 671 606 b 469 475 529 606 469 546 b 600 346 469 406 529 346 z "},"Ł":{"ha":751,"x_min":0,"x_max":0,"o":"m 339 435 l 431 488 l 431 681 l 339 628 l 339 926 l 99 926 l 99 489 l 11 438 l 11 246 l 99 296 l 99 0 l 710 0 l 710 208 l 339 208 z "},"Ń":{"ha":1028,"x_min":0,"x_max":0,"o":"m 801 1204 l 613 1204 l 436 1004 l 581 1004 z m 944 0 l 944 926 l 704 926 l 704 393 l 329 926 l 83 926 l 83 0 l 322 0 l 322 560 l 714 0 z "},"Ň":{"ha":1028,"x_min":0,"x_max":0,"o":"m 608 1004 l 733 1204 l 606 1204 l 514 1092 l 418 1204 l 292 1204 l 421 1004 z m 944 0 l 944 926 l 704 926 l 704 393 l 329 926 l 83 926 l 83 0 l 322 0 l 322 560 l 714 0 z "},"Ņ":{"ha":1028,"x_min":0,"x_max":0,"o":"m 944 0 l 944 926 l 704 926 l 704 393 l 329 926 l 83 926 l 83 0 l 322 0 l 322 560 l 714 0 z m 500 -411 b 622 -193 574 -358 622 -281 b 514 -68 622 -114 571 -68 b 417 -167 461 -68 417 -112 b 499 -254 417 -219 453 -254 b 522 -250 508 -254 518 -253 b 432 -357 511 -290 467 -337 z "},"Ñ":{"ha":1028,"x_min":0,"x_max":0,"o":"m 482 1049 b 589 1001 507 1028 536 1001 b 746 1188 692 1001 746 1065 l 638 1188 b 596 1119 638 1140 618 1119 b 546 1149 576 1119 563 1133 b 439 1196 521 1169 492 1196 b 282 1010 336 1196 282 1133 l 390 1010 b 432 1078 390 1057 410 1078 b 482 1049 451 1078 465 1064 z m 944 0 l 944 926 l 704 926 l 704 393 l 329 926 l 83 926 l 83 0 l 322 0 l 322 560 l 714 0 z "},"Ɲ":{"ha":1028,"x_min":0,"x_max":0,"o":"m 704 393 l 329 926 l 83 926 l 83 57 b -40 -69 83 -21 35 -69 b -96 -61 -58 -69 -78 -67 l -128 -260 b -19 -272 -94 -269 -54 -272 b 322 63 183 -272 322 -167 l 322 560 l 714 0 l 944 0 l 944 926 l 704 926 z "},"Ŋ":{"ha":1028,"x_min":0,"x_max":0,"o":"m 704 411 l 329 926 l 83 926 l 83 0 l 322 0 l 322 542 l 699 22 b 581 -61 683 -31 640 -61 b 447 -7 525 -61 481 -35 l 347 -189 b 601 -272 418 -250 510 -272 b 944 61 804 -272 944 -167 l 944 926 l 704 926 z "},"Ó":{"ha":1064,"x_min":0,"x_max":0,"o":"m 818 1204 l 629 1204 l 453 1004 l 597 1004 z m 36 463 b 532 -17 36 181 249 -17 b 1026 463 815 -17 1026 181 b 532 942 1026 744 815 942 b 36 463 249 942 36 744 z m 783 463 b 532 194 783 313 685 194 b 279 463 378 194 279 313 b 532 731 279 614 378 731 b 783 463 685 731 783 614 z "},"Ŏ":{"ha":1064,"x_min":0,"x_max":0,"o":"m 531 997 b 774 1119 631 997 718 1044 l 682 1196 b 531 1115 647 1144 594 1115 b 378 1196 464 1115 413 1149 l 286 1119 b 531 997 343 1044 432 997 z m 36 463 b 532 -17 36 181 249 -17 b 1026 463 815 -17 1026 181 b 532 942 1026 744 815 942 b 36 463 249 942 36 744 z m 783 463 b 532 194 783 313 685 194 b 279 463 378 194 279 313 b 532 731 279 614 378 731 b 783 463 685 731 783 614 z "},"Ô":{"ha":1064,"x_min":0,"x_max":0,"o":"m 754 1004 l 625 1204 l 438 1204 l 313 1004 l 439 1004 l 531 1117 l 626 1004 z m 36 463 b 532 -17 36 181 249 -17 b 1026 463 815 -17 1026 181 b 532 942 1026 744 815 942 b 36 463 249 942 36 744 z m 783 463 b 532 194 783 313 685 194 b 279 463 378 194 279 313 b 532 731 279 614 378 731 b 783 463 685 731 783 614 z "},"Ö":{"ha":1064,"x_min":0,"x_max":0,"o":"m 383 988 b 492 1096 444 988 492 1035 b 383 1206 492 1157 444 1206 b 274 1096 322 1206 274 1157 b 383 988 274 1035 322 988 z m 681 988 b 790 1096 740 988 790 1035 b 681 1206 790 1157 740 1206 b 571 1096 619 1206 571 1157 b 681 988 571 1035 619 988 z m 36 463 b 532 -17 36 181 249 -17 b 1026 463 815 -17 1026 181 b 532 942 1026 744 815 942 b 36 463 249 942 36 744 z m 783 463 b 532 194 783 313 685 194 b 279 463 378 194 279 313 b 532 731 279 614 378 731 b 783 463 685 731 783 614 z "},"Ò":{"ha":1064,"x_min":0,"x_max":0,"o":"m 606 1004 l 429 1204 l 240 1204 l 461 1004 z m 36 463 b 532 -17 36 181 249 -17 b 1026 463 815 -17 1026 181 b 532 942 1026 744 815 942 b 36 463 249 942 36 744 z m 783 463 b 532 194 783 313 685 194 b 279 463 378 194 279 313 b 532 731 279 614 378 731 b 783 463 685 731 783 614 z "},"Ő":{"ha":1064,"x_min":0,"x_max":0,"o":"m 643 1204 l 479 1204 l 363 1004 l 483 1004 z m 856 1204 l 690 1204 l 575 1004 l 696 1004 z m 36 463 b 532 -17 36 181 249 -17 b 1026 463 815 -17 1026 181 b 532 942 1026 744 815 942 b 36 463 249 942 36 744 z m 783 463 b 532 194 783 313 685 194 b 279 463 378 194 279 313 b 532 731 279 614 378 731 b 783 463 685 731 783 614 z "},"Ō":{"ha":1064,"x_min":0,"x_max":0,"o":"m 772 1004 l 772 1122 l 288 1122 l 288 1004 z m 36 463 b 532 -17 36 181 249 -17 b 1026 463 815 -17 1026 181 b 532 942 1026 744 815 942 b 36 463 249 942 36 744 z m 783 463 b 532 194 783 313 685 194 b 279 463 378 194 279 313 b 532 731 279 614 378 731 b 783 463 685 731 783 614 z "},"Ø":{"ha":1064,"x_min":0,"x_max":0,"o":"m 928 924 l 832 993 l 760 893 b 532 942 693 925 615 942 b 36 463 249 942 36 744 b 190 106 36 315 94 190 l 117 3 l 213 -67 l 289 39 b 532 -17 360 3 442 -17 b 1026 463 815 -17 1026 181 b 860 831 1026 617 964 744 z m 279 463 b 532 731 279 614 378 731 b 629 713 568 731 600 724 l 329 296 b 279 463 297 342 279 399 z m 532 194 b 419 219 490 194 451 203 l 725 642 b 783 463 763 594 783 532 b 532 194 783 313 685 194 z "},"Ǿ":{"ha":1064,"x_min":0,"x_max":0,"o":"m 629 1204 l 453 1004 l 597 1004 l 818 1204 z m 928 924 l 832 993 l 760 893 b 532 942 693 925 615 942 b 36 463 249 942 36 744 b 190 106 36 315 94 190 l 117 3 l 213 -67 l 289 39 b 532 -17 360 3 442 -17 b 1026 463 815 -17 1026 181 b 860 831 1026 617 964 744 z m 279 463 b 532 731 279 614 378 731 b 629 713 568 731 600 724 l 329 296 b 279 463 297 342 279 399 z m 532 194 b 419 219 490 194 451 203 l 725 642 b 783 463 763 594 783 532 b 532 194 783 313 685 194 z "},"Õ":{"ha":1064,"x_min":0,"x_max":0,"o":"m 500 1049 b 607 1001 525 1028 554 1001 b 764 1188 710 1001 764 1065 l 656 1188 b 614 1119 656 1140 636 1119 b 564 1149 594 1119 581 1133 b 457 1196 539 1169 510 1196 b 300 1010 354 1196 300 1133 l 408 1010 b 450 1078 408 1057 428 1078 b 500 1049 469 1078 483 1064 z m 36 463 b 532 -17 36 181 249 -17 b 1026 463 815 -17 1026 181 b 532 942 1026 744 815 942 b 36 463 249 942 36 744 z m 783 463 b 532 194 783 313 685 194 b 279 463 378 194 279 313 b 532 731 279 614 378 731 b 783 463 685 731 783 614 z "},"Ǫ":{"ha":1064,"x_min":0,"x_max":0,"o":"m 631 -8 b 1026 463 863 32 1026 214 b 532 942 1026 744 815 942 b 36 463 249 942 36 744 b 474 -14 36 200 219 11 b 356 -142 397 -46 356 -87 b 526 -258 356 -229 450 -258 b 663 -232 585 -258 622 -253 l 626 -126 b 590 -135 615 -132 603 -135 b 543 -93 565 -135 543 -119 b 631 -8 543 -58 571 -26 z m 279 463 b 532 731 279 614 378 731 b 783 463 685 731 783 614 b 532 194 783 313 685 194 b 279 463 378 194 279 313 z "},"Ọ":{"ha":1064,"x_min":0,"x_max":0,"o":"m 36 463 b 532 -17 36 181 249 -17 b 1026 463 815 -17 1026 181 b 532 942 1026 744 815 942 b 36 463 249 942 36 744 z m 783 463 b 532 194 783 313 685 194 b 279 463 378 194 279 313 b 532 731 279 614 378 731 b 783 463 685 731 783 614 z m 422 -167 b 531 -275 422 -226 471 -275 b 639 -167 589 -275 639 -226 b 531 -57 639 -107 589 -57 b 422 -167 471 -57 422 -107 z "},"Ỏ":{"ha":1064,"x_min":0,"x_max":0,"o":"m 465 1093 b 521 1139 475 1119 493 1139 b 568 1089 544 1139 568 1125 b 535 1004 568 1058 558 1031 l 647 1004 b 672 1094 663 1033 672 1058 b 521 1226 672 1188 600 1226 b 372 1124 454 1226 396 1193 z m 36 463 b 532 -17 36 181 249 -17 b 1026 463 815 -17 1026 181 b 532 942 1026 744 815 942 b 36 463 249 942 36 744 z m 783 463 b 532 194 783 313 685 194 b 279 463 378 194 279 313 b 532 731 279 614 378 731 b 783 463 685 731 783 614 z "},"Ố":{"ha":1064,"x_min":0,"x_max":0,"o":"m 1078 1258 l 875 1258 l 713 1108 l 871 1108 z m 754 1004 l 629 1154 l 432 1154 l 313 1004 l 439 1004 l 531 1086 l 626 1004 z m 36 463 b 532 -17 36 181 249 -17 b 1026 463 815 -17 1026 181 b 532 942 1026 744 815 942 b 36 463 249 942 36 744 z m 783 463 b 532 194 783 313 685 194 b 279 463 378 194 279 313 b 532 731 279 614 378 731 b 783 463 685 731 783 614 z "},"Ồ":{"ha":1064,"x_min":0,"x_max":0,"o":"m 358 1108 l 196 1258 l -7 1258 l 200 1108 z m 754 1004 l 629 1154 l 432 1154 l 313 1004 l 439 1004 l 531 1086 l 626 1004 z m 36 463 b 532 -17 36 181 249 -17 b 1026 463 815 -17 1026 181 b 532 942 1026 744 815 942 b 36 463 249 942 36 744 z m 783 463 b 532 194 783 313 685 194 b 279 463 378 194 279 313 b 532 731 279 614 378 731 b 783 463 685 731 783 614 z "},"Ổ":{"ha":1064,"x_min":0,"x_max":0,"o":"m 643 1193 b 699 1224 653 1210 671 1224 b 746 1188 722 1224 746 1211 b 718 1136 746 1168 736 1151 l 825 1136 b 850 1203 840 1157 850 1176 b 699 1303 850 1274 778 1303 b 550 1225 632 1303 574 1278 z m 754 1004 l 629 1154 l 432 1154 l 313 1004 l 439 1004 l 531 1086 l 626 1004 z m 36 463 b 532 -17 36 181 249 -17 b 1026 463 815 -17 1026 181 b 532 942 1026 744 815 942 b 36 463 249 942 36 744 z m 783 463 b 532 194 783 313 685 194 b 279 463 378 194 279 313 b 532 731 279 614 378 731 b 783 463 685 731 783 614 z "},"Ỗ":{"ha":1064,"x_min":0,"x_max":0,"o":"m 500 1207 b 607 1174 525 1192 554 1174 b 764 1313 710 1174 764 1219 l 656 1313 b 614 1265 656 1281 636 1265 b 564 1286 594 1265 581 1275 b 457 1319 539 1301 510 1319 b 300 1179 354 1319 300 1271 l 408 1179 b 453 1225 408 1211 429 1225 b 500 1207 471 1225 483 1218 z m 754 1004 l 629 1154 l 432 1154 l 313 1004 l 439 1004 l 531 1086 l 626 1004 z m 36 463 b 532 -17 36 181 249 -17 b 1026 463 815 -17 1026 181 b 532 942 1026 744 815 942 b 36 463 249 942 36 744 z m 783 463 b 532 194 783 313 685 194 b 279 463 378 194 279 313 b 532 731 279 614 378 731 b 783 463 685 731 783 614 z "},"Ộ":{"ha":1064,"x_min":0,"x_max":0,"o":"m 754 1004 l 625 1204 l 438 1204 l 313 1004 l 439 1004 l 531 1117 l 626 1004 z m 36 463 b 532 -17 36 181 249 -17 b 1026 463 815 -17 1026 181 b 532 942 1026 744 815 942 b 36 463 249 942 36 744 z m 783 463 b 532 194 783 313 685 194 b 279 463 378 194 279 313 b 532 731 279 614 378 731 b 783 463 685 731 783 614 z m 422 -167 b 531 -275 422 -226 471 -275 b 639 -167 589 -275 639 -226 b 531 -57 639 -107 589 -57 b 422 -167 471 -57 422 -107 z "},"Ơ":{"ha":1064,"x_min":0,"x_max":0,"o":"m 1046 925 b 950 1036 1046 996 1001 1036 b 864 949 903 1036 864 997 b 938 871 864 903 896 871 b 958 875 946 871 956 872 b 899 794 951 847 925 814 b 532 942 810 888 681 942 b 36 463 249 942 36 744 b 532 -17 36 181 249 -17 b 1026 463 815 -17 1026 181 b 946 736 1026 568 997 661 b 1046 925 1007 783 1046 850 z m 532 194 b 279 463 378 194 279 313 b 532 731 279 614 378 731 b 783 463 685 731 783 614 b 532 194 783 313 685 194 z "},"Ớ":{"ha":1064,"x_min":0,"x_max":0,"o":"m 629 1204 l 453 1004 l 597 1004 l 818 1204 z m 1046 925 b 950 1036 1046 996 1001 1036 b 864 949 903 1036 864 997 b 938 871 864 903 896 871 b 958 875 946 871 956 872 b 899 794 951 847 925 814 b 532 942 810 888 681 942 b 36 463 249 942 36 744 b 532 -17 36 181 249 -17 b 1026 463 815 -17 1026 181 b 946 736 1026 568 997 661 b 1046 925 1007 783 1046 850 z m 532 194 b 279 463 378 194 279 313 b 532 731 279 614 378 731 b 783 463 685 731 783 614 b 532 194 783 313 685 194 z "},"Ờ":{"ha":1064,"x_min":0,"x_max":0,"o":"m 429 1204 l 240 1204 l 461 1004 l 606 1004 z m 1046 925 b 950 1036 1046 996 1001 1036 b 864 949 903 1036 864 997 b 938 871 864 903 896 871 b 958 875 946 871 956 872 b 899 794 951 847 925 814 b 532 942 810 888 681 942 b 36 463 249 942 36 744 b 532 -17 36 181 249 -17 b 1026 463 815 -17 1026 181 b 946 736 1026 568 997 661 b 1046 925 1007 783 1046 850 z m 532 194 b 279 463 378 194 279 313 b 532 731 279 614 378 731 b 783 463 685 731 783 614 b 532 194 783 313 685 194 z "},"Ở":{"ha":1064,"x_min":0,"x_max":0,"o":"m 521 1139 b 568 1089 544 1139 568 1125 b 535 1004 568 1058 558 1031 l 647 1004 b 672 1094 663 1033 672 1058 b 521 1226 672 1188 600 1226 b 372 1124 454 1226 396 1193 l 465 1093 b 521 1139 475 1119 493 1139 z m 1046 925 b 950 1036 1046 996 1001 1036 b 864 949 903 1036 864 997 b 938 871 864 903 896 871 b 958 875 946 871 956 872 b 899 794 951 847 925 814 b 532 942 810 888 681 942 b 36 463 249 942 36 744 b 532 -17 36 181 249 -17 b 1026 463 815 -17 1026 181 b 946 736 1026 568 997 661 b 1046 925 1007 783 1046 850 z m 532 194 b 279 463 378 194 279 313 b 532 731 279 614 378 731 b 783 463 685 731 783 614 b 532 194 783 313 685 194 z "},"Ỡ":{"ha":1064,"x_min":0,"x_max":0,"o":"m 450 1078 b 500 1049 469 1078 483 1064 b 607 1001 525 1028 554 1001 b 764 1188 710 1001 764 1065 l 656 1188 b 614 1119 656 1140 636 1119 b 564 1149 594 1119 581 1133 b 457 1196 539 1169 510 1196 b 300 1010 354 1196 300 1133 l 408 1010 b 450 1078 408 1057 428 1078 z m 1046 925 b 950 1036 1046 996 1001 1036 b 864 949 903 1036 864 997 b 938 871 864 903 896 871 b 958 875 946 871 956 872 b 899 794 951 847 925 814 b 532 942 810 888 681 942 b 36 463 249 942 36 744 b 532 -17 36 181 249 -17 b 1026 463 815 -17 1026 181 b 946 736 1026 568 997 661 b 1046 925 1007 783 1046 850 z m 532 194 b 279 463 378 194 279 313 b 532 731 279 614 378 731 b 783 463 685 731 783 614 b 532 194 783 313 685 194 z "},"Ợ":{"ha":1064,"x_min":0,"x_max":0,"o":"m 1046 925 b 950 1036 1046 996 1001 1036 b 864 949 903 1036 864 997 b 938 871 864 903 896 871 b 958 875 946 871 956 872 b 899 794 951 847 925 814 b 532 942 810 888 681 942 b 36 463 249 942 36 744 b 532 -17 36 181 249 -17 b 1026 463 815 -17 1026 181 b 946 736 1026 568 997 661 b 1046 925 1007 783 1046 850 z m 532 194 b 279 463 378 194 279 313 b 532 731 279 614 378 731 b 783 463 685 731 783 614 b 532 194 783 313 685 194 z m 531 -57 b 422 -167 471 -57 422 -107 b 531 -275 422 -226 471 -275 b 639 -167 589 -275 639 -226 b 531 -57 639 -107 589 -57 z "},"Œ":{"ha":1490,"x_min":0,"x_max":0,"o":"m 1440 0 l 1440 201 l 1000 201 l 1000 368 l 1431 368 l 1431 571 l 1000 571 l 1000 725 l 1440 725 l 1440 926 l 761 926 l 761 847 b 506 940 700 910 594 940 b 36 463 236 940 36 747 b 506 -17 36 178 236 -17 b 761 79 594 -17 700 14 l 761 0 z m 761 325 b 540 194 721 243 639 194 b 279 463 378 194 279 311 b 540 729 279 614 378 729 b 761 601 639 729 721 683 z "},"Ṗ":{"ha":893,"x_min":0,"x_max":0,"o":"m 356 1096 b 464 988 356 1036 404 988 b 572 1096 522 988 572 1036 b 464 1206 572 1156 522 1206 b 356 1096 404 1206 356 1156 z m 322 0 l 322 314 l 547 314 b 869 618 756 314 869 451 b 547 926 869 786 756 926 l 83 926 l 83 0 z m 626 619 b 515 517 626 557 579 517 l 322 517 l 322 725 l 515 725 b 626 619 579 725 626 683 z "},"Ŕ":{"ha":918,"x_min":0,"x_max":0,"o":"m 751 1204 l 563 1204 l 386 1004 l 531 1004 z m 874 0 l 685 340 b 869 618 771 371 869 457 b 547 926 869 790 753 926 l 83 926 l 83 0 l 322 0 l 322 314 l 444 314 l 600 0 z m 626 621 b 511 517 626 557 574 517 l 322 517 l 322 725 l 511 725 b 626 621 574 725 626 685 z "},"Ř":{"ha":918,"x_min":0,"x_max":0,"o":"m 557 1004 l 682 1204 l 554 1204 l 463 1092 l 367 1204 l 240 1204 l 369 1004 z m 874 0 l 685 340 b 869 618 771 371 869 457 b 547 926 869 790 753 926 l 83 926 l 83 0 l 322 0 l 322 314 l 444 314 l 600 0 z m 626 621 b 511 517 626 557 574 517 l 322 517 l 322 725 l 511 725 b 626 621 574 725 626 685 z "},"Ŗ":{"ha":918,"x_min":0,"x_max":0,"o":"m 874 0 l 685 340 b 869 618 771 371 869 457 b 547 926 869 790 753 926 l 83 926 l 83 0 l 322 0 l 322 314 l 444 314 l 600 0 z m 626 621 b 511 517 626 557 574 517 l 322 517 l 322 725 l 511 725 b 626 621 574 725 626 685 z m 450 -411 b 572 -193 524 -358 572 -281 b 464 -68 572 -114 521 -68 b 367 -167 411 -68 367 -112 b 449 -254 367 -219 403 -254 b 472 -250 458 -254 468 -253 b 382 -357 461 -290 417 -337 z "},"Ś":{"ha":842,"x_min":0,"x_max":0,"o":"m 703 1204 l 514 1204 l 338 1004 l 482 1004 z m 17 131 b 428 -17 110 42 240 -17 b 814 293 676 -17 814 107 b 450 579 814 503 603 547 b 290 664 347 599 290 615 b 400 736 290 704 321 736 b 661 640 482 736 583 704 l 792 811 b 415 940 693 896 564 940 b 46 650 178 940 46 806 b 413 361 46 431 260 392 b 571 267 511 340 571 319 b 439 188 571 222 521 188 b 143 310 313 188 210 243 z "},"Š":{"ha":842,"x_min":0,"x_max":0,"o":"m 508 1004 l 633 1204 l 506 1204 l 414 1092 l 318 1204 l 192 1204 l 321 1004 z m 17 131 b 428 -17 110 42 240 -17 b 814 293 676 -17 814 107 b 450 579 814 503 603 547 b 290 664 347 599 290 615 b 400 736 290 704 321 736 b 661 640 482 736 583 704 l 792 811 b 415 940 693 896 564 940 b 46 650 178 940 46 806 b 413 361 46 431 260 392 b 571 267 511 340 571 319 b 439 188 571 222 521 188 b 143 310 313 188 210 243 z "},"Ŝ":{"ha":842,"x_min":0,"x_max":0,"o":"m 638 1004 l 508 1204 l 321 1204 l 196 1004 l 322 1004 l 414 1117 l 510 1004 z m 17 131 b 428 -17 110 42 240 -17 b 814 293 676 -17 814 107 b 450 579 814 503 603 547 b 290 664 347 599 290 615 b 400 736 290 704 321 736 b 661 640 482 736 583 704 l 792 811 b 415 940 693 896 564 940 b 46 650 178 940 46 806 b 413 361 46 431 260 392 b 571 267 511 340 571 319 b 439 188 571 222 521 188 b 143 310 313 188 210 243 z "},"Ş":{"ha":842,"x_min":0,"x_max":0,"o":"m 814 293 b 450 579 814 503 603 547 b 290 664 347 599 290 615 b 400 736 290 704 321 736 b 661 640 482 736 583 704 l 792 811 b 415 940 693 896 564 940 b 46 650 178 940 46 806 b 413 361 46 431 260 392 b 571 267 511 340 571 319 b 439 188 571 222 521 188 b 143 310 313 188 210 243 l 17 131 b 358 -14 97 53 207 -1 l 326 -97 l 400 -139 b 440 -121 410 -129 424 -121 b 475 -150 463 -121 475 -132 b 410 -190 475 -178 443 -190 b 296 -149 372 -190 332 -175 l 257 -229 b 415 -275 286 -253 346 -275 b 575 -153 503 -275 575 -231 b 481 -54 575 -96 532 -54 b 433 -68 463 -54 447 -60 l 456 -17 b 814 293 686 -7 814 114 z "},"Ș":{"ha":842,"x_min":0,"x_max":0,"o":"m 17 131 b 428 -17 110 42 240 -17 b 814 293 676 -17 814 107 b 450 579 814 503 603 547 b 290 664 347 599 290 615 b 400 736 290 704 321 736 b 661 640 482 736 583 704 l 792 811 b 415 940 693 896 564 940 b 46 650 178 940 46 806 b 413 361 46 431 260 392 b 571 267 511 340 571 319 b 439 188 571 222 521 188 b 143 310 313 188 210 243 z m 401 -411 b 524 -193 475 -358 524 -281 b 415 -68 524 -114 472 -68 b 318 -167 363 -68 318 -112 b 400 -254 318 -219 354 -254 b 424 -250 410 -254 419 -253 b 333 -357 413 -290 368 -337 z "},"Ṡ":{"ha":842,"x_min":0,"x_max":0,"o":"m 307 1096 b 415 988 307 1036 356 988 b 524 1096 474 988 524 1036 b 415 1206 524 1156 474 1206 b 307 1096 356 1206 307 1156 z m 17 131 b 428 -17 110 42 240 -17 b 814 293 676 -17 814 107 b 450 579 814 503 603 547 b 290 664 347 599 290 615 b 400 736 290 704 321 736 b 661 640 482 736 583 704 l 792 811 b 415 940 693 896 564 940 b 46 650 178 940 46 806 b 413 361 46 431 260 392 b 571 267 511 340 571 319 b 439 188 571 222 521 188 b 143 310 313 188 210 243 z "},"ẞ":{"ha":1008,"x_min":0,"x_max":0,"o":"m 876 769 l 876 926 l 83 926 l 83 0 l 326 0 l 326 725 l 599 725 l 454 554 l 454 393 l 560 393 b 761 296 688 393 761 371 b 635 194 761 226 701 194 b 475 246 571 194 517 214 l 369 67 b 635 -17 413 24 497 -17 b 986 290 829 -17 986 107 b 704 569 986 457 868 554 z "},"Ŧ":{"ha":818,"x_min":0,"x_max":0,"o":"m 788 926 l 31 926 l 31 718 l 290 718 l 290 461 l 117 461 l 117 343 l 290 343 l 290 0 l 529 0 l 529 343 l 704 343 l 704 461 l 529 461 l 529 718 l 788 718 z "},"Ť":{"ha":818,"x_min":0,"x_max":0,"o":"m 504 1004 l 629 1204 l 501 1204 l 410 1092 l 314 1204 l 188 1204 l 317 1004 z m 529 0 l 529 718 l 788 718 l 788 926 l 31 926 l 31 718 l 290 718 l 290 0 z "},"Ţ":{"ha":818,"x_min":0,"x_max":0,"o":"m 529 0 l 529 718 l 788 718 l 788 926 l 31 926 l 31 718 l 290 718 l 290 0 z m 396 -411 b 518 -193 469 -358 518 -281 b 410 -68 518 -114 467 -68 b 313 -167 357 -68 313 -112 b 394 -254 313 -219 349 -254 b 418 -250 404 -254 414 -253 b 328 -357 407 -290 363 -337 z "},"Ț":{"ha":818,"x_min":0,"x_max":0,"o":"m 529 0 l 529 718 l 788 718 l 788 926 l 31 926 l 31 718 l 290 718 l 290 0 z m 396 -411 b 518 -193 469 -358 518 -281 b 410 -68 518 -114 467 -68 b 313 -167 357 -68 313 -112 b 394 -254 313 -219 349 -254 b 418 -250 404 -254 414 -253 b 328 -357 407 -290 363 -337 z "},"Ṫ":{"ha":818,"x_min":0,"x_max":0,"o":"m 301 1096 b 410 988 301 1036 350 988 b 518 1096 468 988 518 1036 b 410 1206 518 1156 468 1206 b 301 1096 350 1206 301 1156 z m 529 0 l 529 718 l 788 718 l 788 926 l 31 926 l 31 718 l 290 718 l 290 0 z "},"Ú":{"ha":1026,"x_min":0,"x_max":0,"o":"m 801 1204 l 613 1204 l 436 1004 l 581 1004 z m 83 375 b 514 -17 83 147 217 -17 b 943 376 811 -17 943 146 l 943 926 l 700 926 l 700 383 b 514 194 700 274 642 194 b 326 383 385 194 326 274 l 326 926 l 83 926 z "},"Ŭ":{"ha":1026,"x_min":0,"x_max":0,"o":"m 514 997 b 757 1119 614 997 701 1044 l 665 1196 b 514 1115 631 1144 578 1115 b 361 1196 447 1115 396 1149 l 269 1119 b 514 997 326 1044 415 997 z m 83 375 b 514 -17 83 147 217 -17 b 943 376 811 -17 943 146 l 943 926 l 700 926 l 700 383 b 514 194 700 274 642 194 b 326 383 385 194 326 274 l 326 926 l 83 926 z "},"Û":{"ha":1026,"x_min":0,"x_max":0,"o":"m 738 1004 l 608 1204 l 421 1204 l 296 1004 l 422 1004 l 514 1117 l 610 1004 z m 83 375 b 514 -17 83 147 217 -17 b 943 376 811 -17 943 146 l 943 926 l 700 926 l 700 383 b 514 194 700 274 642 194 b 326 383 385 194 326 274 l 326 926 l 83 926 z "},"Ü":{"ha":1026,"x_min":0,"x_max":0,"o":"m 365 988 b 474 1096 426 988 474 1035 b 365 1206 474 1157 426 1206 b 256 1096 304 1206 256 1157 b 365 988 256 1035 304 988 z m 663 988 b 772 1096 722 988 772 1035 b 663 1206 772 1157 722 1206 b 553 1096 601 1206 553 1157 b 663 988 553 1035 601 988 z m 83 375 b 514 -17 83 147 217 -17 b 943 376 811 -17 943 146 l 943 926 l 700 926 l 700 383 b 514 194 700 274 642 194 b 326 383 385 194 326 274 l 326 926 l 83 926 z "},"Ù":{"ha":1026,"x_min":0,"x_max":0,"o":"m 588 1004 l 411 1204 l 222 1204 l 443 1004 z m 83 375 b 514 -17 83 147 217 -17 b 943 376 811 -17 943 146 l 943 926 l 700 926 l 700 383 b 514 194 700 274 642 194 b 326 383 385 194 326 274 l 326 926 l 83 926 z "},"Ű":{"ha":1026,"x_min":0,"x_max":0,"o":"m 625 1204 l 461 1204 l 344 1004 l 465 1004 z m 838 1204 l 672 1204 l 557 1004 l 678 1004 z m 83 375 b 514 -17 83 147 217 -17 b 943 376 811 -17 943 146 l 943 926 l 700 926 l 700 383 b 514 194 700 274 642 194 b 326 383 385 194 326 274 l 326 926 l 83 926 z "},"Ū":{"ha":1026,"x_min":0,"x_max":0,"o":"m 756 1004 l 756 1122 l 271 1122 l 271 1004 z m 83 375 b 514 -17 83 147 217 -17 b 943 376 811 -17 943 146 l 943 926 l 700 926 l 700 383 b 514 194 700 274 642 194 b 326 383 385 194 326 274 l 326 926 l 83 926 z "},"Ų":{"ha":1026,"x_min":0,"x_max":0,"o":"m 83 375 b 514 -17 83 147 217 -17 l 518 -17 b 406 -142 449 -44 406 -87 b 576 -258 406 -229 499 -258 b 711 -232 633 -258 672 -253 l 675 -126 b 639 -135 664 -132 651 -135 b 592 -93 614 -135 592 -119 b 724 18 592 -54 624 -19 b 943 376 871 75 943 201 l 943 926 l 700 926 l 700 383 b 514 194 700 274 642 194 b 326 383 385 194 326 274 l 326 926 l 83 926 z "},"Ů":{"ha":1026,"x_min":0,"x_max":0,"o":"m 364 1111 b 515 961 364 1029 432 961 b 663 1111 597 961 663 1029 b 515 1263 663 1194 597 1263 b 364 1111 432 1263 364 1194 z m 569 1111 b 515 1056 569 1081 546 1056 b 458 1111 483 1056 458 1081 b 515 1168 458 1143 483 1168 b 569 1111 546 1168 569 1143 z m 83 375 b 514 -17 83 147 217 -17 b 943 376 811 -17 943 146 l 943 926 l 700 926 l 700 383 b 514 194 700 274 642 194 b 326 383 385 194 326 274 l 326 926 l 83 926 z "},"Ũ":{"ha":1026,"x_min":0,"x_max":0,"o":"m 482 1049 b 589 1001 507 1028 536 1001 b 746 1188 692 1001 746 1065 l 638 1188 b 596 1119 638 1140 618 1119 b 546 1149 576 1119 563 1133 b 439 1196 521 1169 492 1196 b 282 1010 336 1196 282 1133 l 390 1010 b 432 1078 390 1057 410 1078 b 482 1049 451 1078 465 1064 z m 83 375 b 514 -17 83 147 217 -17 b 943 376 811 -17 943 146 l 943 926 l 700 926 l 700 383 b 514 194 700 274 642 194 b 326 383 385 194 326 274 l 326 926 l 83 926 z "},"Ụ":{"ha":1026,"x_min":0,"x_max":0,"o":"m 83 375 b 514 -17 83 147 217 -17 b 943 376 811 -17 943 146 l 943 926 l 700 926 l 700 383 b 514 194 700 274 642 194 b 326 383 385 194 326 274 l 326 926 l 83 926 z m 406 -167 b 514 -275 406 -226 454 -275 b 622 -167 572 -275 622 -226 b 514 -57 622 -107 572 -57 b 406 -167 454 -57 406 -107 z "},"Ư":{"ha":1026,"x_min":0,"x_max":0,"o":"m 1090 1008 b 994 1118 1090 1078 1046 1118 b 908 1032 947 1118 908 1079 b 982 954 908 985 940 954 b 1003 957 990 954 1000 956 b 943 876 996 928 971 897 l 943 926 l 700 926 l 700 383 b 514 194 700 274 642 194 b 326 383 385 194 326 274 l 326 926 l 83 926 l 83 375 b 514 -17 83 147 217 -17 b 943 376 811 -17 943 146 l 943 790 b 1090 1008 1043 840 1090 931 z "},"Ủ":{"ha":1026,"x_min":0,"x_max":0,"o":"m 449 1093 b 504 1139 458 1119 476 1139 b 551 1089 528 1139 551 1125 b 518 1004 551 1058 542 1031 l 631 1004 b 656 1094 646 1033 656 1058 b 504 1226 656 1188 583 1226 b 356 1124 438 1226 379 1193 z m 83 375 b 514 -17 83 147 217 -17 b 943 376 811 -17 943 146 l 943 926 l 700 926 l 700 383 b 514 194 700 274 642 194 b 326 383 385 194 326 274 l 326 926 l 83 926 z "},"Ứ":{"ha":1026,"x_min":0,"x_max":0,"o":"m 613 1204 l 436 1004 l 581 1004 l 801 1204 z m 1090 1008 b 994 1118 1090 1078 1046 1118 b 908 1032 947 1118 908 1079 b 982 954 908 985 940 954 b 1003 957 990 954 1000 956 b 943 876 996 928 971 897 l 943 926 l 700 926 l 700 383 b 514 194 700 274 642 194 b 326 383 385 194 326 274 l 326 926 l 83 926 l 83 375 b 514 -17 83 147 217 -17 b 943 376 811 -17 943 146 l 943 790 b 1090 1008 1043 840 1090 931 z "},"Ừ":{"ha":1026,"x_min":0,"x_max":0,"o":"m 411 1204 l 222 1204 l 443 1004 l 588 1004 z m 1090 1008 b 994 1118 1090 1078 1046 1118 b 908 1032 947 1118 908 1079 b 982 954 908 985 940 954 b 1003 957 990 954 1000 956 b 943 876 996 928 971 897 l 943 926 l 700 926 l 700 383 b 514 194 700 274 642 194 b 326 383 385 194 326 274 l 326 926 l 83 926 l 83 375 b 514 -17 83 147 217 -17 b 943 376 811 -17 943 146 l 943 790 b 1090 1008 1043 840 1090 931 z "},"Ử":{"ha":1026,"x_min":0,"x_max":0,"o":"m 504 1139 b 551 1089 528 1139 551 1125 b 518 1004 551 1058 542 1031 l 631 1004 b 656 1094 646 1033 656 1058 b 504 1226 656 1188 583 1226 b 356 1124 438 1226 379 1193 l 449 1093 b 504 1139 458 1119 476 1139 z m 1090 1008 b 994 1118 1090 1078 1046 1118 b 908 1032 947 1118 908 1079 b 982 954 908 985 940 954 b 1003 957 990 954 1000 956 b 943 876 996 928 971 897 l 943 926 l 700 926 l 700 383 b 514 194 700 274 642 194 b 326 383 385 194 326 274 l 326 926 l 83 926 l 83 375 b 514 -17 83 147 217 -17 b 943 376 811 -17 943 146 l 943 790 b 1090 1008 1043 840 1090 931 z "},"Ữ":{"ha":1026,"x_min":0,"x_max":0,"o":"m 432 1078 b 482 1049 451 1078 465 1064 b 589 1001 507 1028 536 1001 b 746 1188 692 1001 746 1065 l 638 1188 b 596 1119 638 1140 618 1119 b 546 1149 576 1119 563 1133 b 439 1196 521 1169 492 1196 b 282 1010 336 1196 282 1133 l 390 1010 b 432 1078 390 1057 410 1078 z m 1090 1008 b 994 1118 1090 1078 1046 1118 b 908 1032 947 1118 908 1079 b 982 954 908 985 940 954 b 1003 957 990 954 1000 956 b 943 876 996 928 971 897 l 943 926 l 700 926 l 700 383 b 514 194 700 274 642 194 b 326 383 385 194 326 274 l 326 926 l 83 926 l 83 375 b 514 -17 83 147 217 -17 b 943 376 811 -17 943 146 l 943 790 b 1090 1008 1043 840 1090 931 z "},"Ự":{"ha":1026,"x_min":0,"x_max":0,"o":"m 1090 1008 b 994 1118 1090 1078 1046 1118 b 908 1032 947 1118 908 1079 b 982 954 908 985 940 954 b 1003 957 990 954 1000 956 b 943 876 996 928 971 897 l 943 926 l 700 926 l 700 383 b 514 194 700 274 642 194 b 326 383 385 194 326 274 l 326 926 l 83 926 l 83 375 b 514 -17 83 147 217 -17 b 943 376 811 -17 943 146 l 943 790 b 1090 1008 1043 840 1090 931 z m 514 -57 b 406 -167 454 -57 406 -107 b 514 -275 406 -226 454 -275 b 622 -167 572 -275 622 -226 b 514 -57 622 -107 572 -57 z "},"Ẃ":{"ha":1300,"x_min":0,"x_max":0,"o":"m 938 1204 l 749 1204 l 572 1004 l 717 1004 z m 1043 0 l 1308 926 l 1039 926 l 900 308 l 742 926 l 558 926 l 400 308 l 260 926 l -8 926 l 257 0 l 510 0 l 650 581 l 790 0 z "},"Ŵ":{"ha":1300,"x_min":0,"x_max":0,"o":"m 874 1004 l 744 1204 l 557 1204 l 432 1004 l 558 1004 l 650 1117 l 746 1004 z m 1043 0 l 1308 926 l 1039 926 l 900 308 l 742 926 l 558 926 l 400 308 l 260 926 l -8 926 l 257 0 l 510 0 l 650 581 l 790 0 z "},"Ẅ":{"ha":1300,"x_min":0,"x_max":0,"o":"m 501 988 b 610 1096 563 988 610 1035 b 501 1206 610 1157 563 1206 b 392 1096 440 1206 392 1157 b 501 988 392 1035 440 988 z m 799 988 b 908 1096 858 988 908 1035 b 799 1206 908 1157 858 1206 b 689 1096 738 1206 689 1157 b 799 988 689 1035 738 988 z m 1043 0 l 1308 926 l 1039 926 l 900 308 l 742 926 l 558 926 l 400 308 l 260 926 l -8 926 l 257 0 l 510 0 l 650 581 l 790 0 z "},"Ẁ":{"ha":1300,"x_min":0,"x_max":0,"o":"m 724 1004 l 547 1204 l 358 1204 l 579 1004 z m 1043 0 l 1308 926 l 1039 926 l 900 308 l 742 926 l 558 926 l 400 308 l 260 926 l -8 926 l 257 0 l 510 0 l 650 581 l 790 0 z "},"Ý":{"ha":910,"x_min":0,"x_max":0,"o":"m 742 1204 l 553 1204 l 376 1004 l 521 1004 z m 575 0 l 575 374 l 925 926 l 654 926 l 456 585 l 254 926 l -15 926 l 336 374 l 336 0 z "},"Ŷ":{"ha":910,"x_min":0,"x_max":0,"o":"m 678 1004 l 549 1204 l 361 1204 l 236 1004 l 363 1004 l 454 1117 l 550 1004 z m 575 0 l 575 374 l 925 926 l 654 926 l 456 585 l 254 926 l -15 926 l 336 374 l 336 0 z "},"Ÿ":{"ha":910,"x_min":0,"x_max":0,"o":"m 307 988 b 415 1096 368 988 415 1035 b 307 1206 415 1157 368 1206 b 197 1096 246 1206 197 1157 b 307 988 197 1035 246 988 z m 604 988 b 714 1096 664 988 714 1035 b 604 1206 714 1157 664 1206 b 494 1096 543 1206 494 1157 b 604 988 494 1035 543 988 z m 575 0 l 575 374 l 925 926 l 654 926 l 456 585 l 254 926 l -15 926 l 336 374 l 336 0 z "},"Ỳ":{"ha":910,"x_min":0,"x_max":0,"o":"m 529 1004 l 353 1204 l 164 1204 l 385 1004 z m 575 0 l 575 374 l 925 926 l 654 926 l 456 585 l 254 926 l -15 926 l 336 374 l 336 0 z "},"Ȳ":{"ha":910,"x_min":0,"x_max":0,"o":"m 696 1004 l 696 1122 l 211 1122 l 211 1004 z m 575 0 l 575 374 l 925 926 l 654 926 l 456 585 l 254 926 l -15 926 l 336 374 l 336 0 z "},"Ỵ":{"ha":910,"x_min":0,"x_max":0,"o":"m 575 0 l 575 374 l 925 926 l 654 926 l 456 585 l 254 926 l -15 926 l 336 374 l 336 0 z m 347 -167 b 456 -275 347 -226 396 -275 b 564 -167 514 -275 564 -226 b 456 -57 564 -107 514 -57 b 347 -167 396 -57 347 -107 z "},"Ỷ":{"ha":910,"x_min":0,"x_max":0,"o":"m 389 1093 b 444 1139 399 1119 417 1139 b 492 1089 468 1139 492 1125 b 458 1004 492 1058 482 1031 l 571 1004 b 596 1094 586 1033 596 1058 b 444 1226 596 1188 524 1226 b 296 1124 378 1226 319 1193 z m 575 0 l 575 374 l 925 926 l 654 926 l 456 585 l 254 926 l -15 926 l 336 374 l 336 0 z "},"Ỹ":{"ha":910,"x_min":0,"x_max":0,"o":"m 424 1049 b 531 1001 449 1028 478 1001 b 688 1188 633 1001 688 1065 l 579 1188 b 538 1119 579 1140 560 1119 b 488 1149 518 1119 504 1133 b 381 1196 463 1169 433 1196 b 224 1010 278 1196 224 1133 l 332 1010 b 374 1078 332 1057 351 1078 b 424 1049 393 1078 407 1064 z m 575 0 l 575 374 l 925 926 l 654 926 l 456 585 l 254 926 l -15 926 l 336 374 l 336 0 z "},"Ź":{"ha":828,"x_min":0,"x_max":0,"o":"m 701 1204 l 513 1204 l 336 1004 l 481 1004 z m 774 0 l 774 208 l 368 208 l 764 736 l 764 926 l 54 926 l 54 718 l 449 718 l 54 190 l 54 0 z "},"Ž":{"ha":828,"x_min":0,"x_max":0,"o":"m 508 1004 l 633 1204 l 506 1204 l 414 1092 l 318 1204 l 192 1204 l 321 1004 z m 774 0 l 774 208 l 368 208 l 764 736 l 764 926 l 54 926 l 54 718 l 449 718 l 54 190 l 54 0 z "},"Ż":{"ha":828,"x_min":0,"x_max":0,"o":"m 306 1096 b 414 988 306 1036 354 988 b 522 1096 472 988 522 1036 b 414 1206 522 1156 472 1206 b 306 1096 354 1206 306 1156 z m 774 0 l 774 208 l 368 208 l 764 736 l 764 926 l 54 926 l 54 718 l 449 718 l 54 190 l 54 0 z "},"Ð":{"ha":1042,"x_min":0,"x_max":0,"o":"m 115 926 l 115 553 l 11 553 l 11 368 l 115 368 l 115 0 l 506 0 b 1004 464 796 0 1004 176 b 504 926 1004 751 796 926 z m 354 208 l 354 368 l 547 368 l 547 553 l 354 553 l 354 718 l 506 718 b 761 464 675 718 761 607 b 504 208 761 326 667 208 z "},"Þ":{"ha":893,"x_min":0,"x_max":0,"o":"m 322 0 l 322 169 l 547 169 b 869 475 756 169 869 307 b 547 785 869 643 756 785 l 322 785 l 322 926 l 83 926 l 83 0 z m 626 476 b 508 371 626 414 582 371 l 322 371 l 322 583 l 508 583 b 626 476 582 583 626 539 z "},"á":{"ha":765,"x_min":0,"x_max":0,"o":"m 668 972 l 479 972 l 303 772 l 447 772 z m 688 0 l 688 419 b 375 688 688 628 536 688 b 71 583 272 688 157 657 l 147 449 b 338 519 201 494 271 519 b 474 422 424 519 474 481 l 474 338 b 265 415 433 388 354 415 b 35 204 163 415 35 367 b 265 -17 35 53 163 -17 b 474 67 351 -17 432 17 l 474 0 z m 474 172 b 354 124 451 140 401 124 b 247 201 297 124 247 149 b 354 279 247 254 297 279 b 474 232 401 279 451 263 z "},"ă":{"ha":765,"x_min":0,"x_max":0,"o":"m 381 765 b 624 888 481 765 568 813 l 532 964 b 381 883 497 913 444 883 b 228 964 314 883 263 917 l 136 888 b 381 765 193 813 282 765 z m 688 0 l 688 419 b 375 688 688 628 536 688 b 71 583 272 688 157 657 l 147 449 b 338 519 201 494 271 519 b 474 422 424 519 474 481 l 474 338 b 265 415 433 388 354 415 b 35 204 163 415 35 367 b 265 -17 35 53 163 -17 b 474 67 351 -17 432 17 l 474 0 z m 474 172 b 354 124 451 140 401 124 b 247 201 297 124 247 149 b 354 279 247 254 297 279 b 474 232 401 279 451 263 z "},"â":{"ha":765,"x_min":0,"x_max":0,"o":"m 604 772 l 475 972 l 288 972 l 163 772 l 289 772 l 381 885 l 476 772 z m 688 0 l 688 419 b 375 688 688 628 536 688 b 71 583 272 688 157 657 l 147 449 b 338 519 201 494 271 519 b 474 422 424 519 474 481 l 474 338 b 265 415 433 388 354 415 b 35 204 163 415 35 367 b 265 -17 35 53 163 -17 b 474 67 351 -17 432 17 l 474 0 z m 474 172 b 354 124 451 140 401 124 b 247 201 297 124 247 149 b 354 279 247 254 297 279 b 474 232 401 279 451 263 z "},"ä":{"ha":765,"x_min":0,"x_max":0,"o":"m 232 756 b 340 864 293 756 340 803 b 232 974 340 925 293 974 b 122 864 171 974 122 925 b 232 756 122 803 171 756 z m 529 756 b 639 864 589 756 639 803 b 529 974 639 925 589 974 b 419 864 468 974 419 925 b 529 756 419 803 468 756 z m 688 0 l 688 419 b 375 688 688 628 536 688 b 71 583 272 688 157 657 l 147 449 b 338 519 201 494 271 519 b 474 422 424 519 474 481 l 474 338 b 265 415 433 388 354 415 b 35 204 163 415 35 367 b 265 -17 35 53 163 -17 b 474 67 351 -17 432 17 l 474 0 z m 474 172 b 354 124 451 140 401 124 b 247 201 297 124 247 149 b 354 279 247 254 297 279 b 474 232 401 279 451 263 z "},"à":{"ha":765,"x_min":0,"x_max":0,"o":"m 454 772 l 278 972 l 89 972 l 310 772 z m 688 0 l 688 419 b 375 688 688 628 536 688 b 71 583 272 688 157 657 l 147 449 b 338 519 201 494 271 519 b 474 422 424 519 474 481 l 474 338 b 265 415 433 388 354 415 b 35 204 163 415 35 367 b 265 -17 35 53 163 -17 b 474 67 351 -17 432 17 l 474 0 z m 474 172 b 354 124 451 140 401 124 b 247 201 297 124 247 149 b 354 279 247 254 297 279 b 474 232 401 279 451 263 z "},"ā":{"ha":765,"x_min":0,"x_max":0,"o":"m 622 772 l 622 890 l 138 890 l 138 772 z m 688 0 l 688 419 b 375 688 688 628 536 688 b 71 583 272 688 157 657 l 147 449 b 338 519 201 494 271 519 b 474 422 424 519 474 481 l 474 338 b 265 415 433 388 354 415 b 35 204 163 415 35 367 b 265 -17 35 53 163 -17 b 474 67 351 -17 432 17 l 474 0 z m 474 172 b 354 124 451 140 401 124 b 247 201 297 124 247 149 b 354 279 247 254 297 279 b 474 232 401 279 451 263 z "},"ą":{"ha":765,"x_min":0,"x_max":0,"o":"m 688 419 b 375 688 688 628 536 688 b 71 583 272 688 157 657 l 147 449 b 338 519 201 494 271 519 b 474 422 424 519 474 481 l 474 338 b 265 415 433 388 354 415 b 35 204 163 415 35 367 b 265 -17 35 53 163 -17 b 474 67 351 -17 432 17 l 474 0 l 532 0 b 378 -142 433 -33 378 -79 b 549 -258 378 -229 472 -258 b 685 -232 607 -258 644 -253 l 649 -126 b 613 -135 638 -132 625 -135 b 565 -93 588 -135 565 -119 b 688 0 565 -53 603 -15 z m 474 172 b 354 124 451 140 401 124 b 247 201 297 124 247 149 b 354 279 247 254 297 279 b 474 232 401 279 451 263 z "},"å":{"ha":765,"x_min":0,"x_max":0,"o":"m 231 879 b 382 729 231 797 299 729 b 529 879 464 729 529 797 b 382 1031 529 963 464 1031 b 231 879 299 1031 231 963 z m 436 879 b 382 824 436 849 413 824 b 325 879 350 824 325 849 b 382 936 325 911 350 936 b 436 879 413 936 436 911 z m 688 0 l 688 419 b 375 688 688 628 536 688 b 71 583 272 688 157 657 l 147 449 b 338 519 201 494 271 519 b 474 422 424 519 474 481 l 474 338 b 265 415 433 388 354 415 b 35 204 163 415 35 367 b 265 -17 35 53 163 -17 b 474 67 351 -17 432 17 l 474 0 z m 474 172 b 354 124 451 140 401 124 b 247 201 297 124 247 149 b 354 279 247 254 297 279 b 474 232 401 279 451 263 z "},"ǻ":{"ha":765,"x_min":0,"x_max":0,"o":"m 668 1267 l 479 1267 l 303 1067 l 447 1067 z m 231 879 b 382 729 231 797 299 729 b 529 879 464 729 529 797 b 382 1031 529 963 464 1031 b 231 879 299 1031 231 963 z m 436 879 b 382 824 436 849 413 824 b 325 879 350 824 325 849 b 382 936 325 911 350 936 b 436 879 413 936 436 911 z m 688 0 l 688 419 b 375 688 688 628 536 688 b 71 583 272 688 157 657 l 147 449 b 338 519 201 494 271 519 b 474 422 424 519 474 481 l 474 338 b 265 415 433 388 354 415 b 35 204 163 415 35 367 b 265 -17 35 53 163 -17 b 474 67 351 -17 432 17 l 474 0 z m 474 172 b 354 124 451 140 401 124 b 247 201 297 124 247 149 b 354 279 247 254 297 279 b 474 232 401 279 451 263 z "},"ã":{"ha":765,"x_min":0,"x_max":0,"o":"m 349 817 b 456 769 374 796 403 769 b 613 956 558 769 613 833 l 504 956 b 463 888 504 908 485 888 b 413 917 443 888 429 901 b 306 964 388 938 358 964 b 149 778 203 964 149 901 l 257 778 b 299 846 257 825 276 846 b 349 817 318 846 332 832 z m 688 0 l 688 419 b 375 688 688 628 536 688 b 71 583 272 688 157 657 l 147 449 b 338 519 201 494 271 519 b 474 422 424 519 474 481 l 474 338 b 265 415 433 388 354 415 b 35 204 163 415 35 367 b 265 -17 35 53 163 -17 b 474 67 351 -17 432 17 l 474 0 z m 474 172 b 354 124 451 140 401 124 b 247 201 297 124 247 149 b 354 279 247 254 297 279 b 474 232 401 279 451 263 z "},"ạ":{"ha":765,"x_min":0,"x_max":0,"o":"m 688 0 l 688 419 b 375 688 688 628 536 688 b 71 583 272 688 157 657 l 147 449 b 338 519 201 494 271 519 b 474 422 424 519 474 481 l 474 338 b 265 415 433 388 354 415 b 35 204 163 415 35 367 b 265 -17 35 53 163 -17 b 474 67 351 -17 432 17 l 474 0 z m 474 172 b 354 124 451 140 401 124 b 247 201 297 124 247 149 b 354 279 247 254 297 279 b 474 232 401 279 451 263 z m 272 -167 b 381 -275 272 -226 321 -275 b 489 -167 439 -275 489 -226 b 381 -57 489 -107 439 -57 b 272 -167 321 -57 272 -107 z "},"ả":{"ha":765,"x_min":0,"x_max":0,"o":"m 315 861 b 371 907 325 888 343 907 b 418 857 394 907 418 893 b 385 772 418 826 408 799 l 497 772 b 522 863 513 801 522 826 b 371 994 522 956 450 994 b 222 892 304 994 246 961 z m 688 0 l 688 419 b 375 688 688 628 536 688 b 71 583 272 688 157 657 l 147 449 b 338 519 201 494 271 519 b 474 422 424 519 474 481 l 474 338 b 265 415 433 388 354 415 b 35 204 163 415 35 367 b 265 -17 35 53 163 -17 b 474 67 351 -17 432 17 l 474 0 z m 474 172 b 354 124 451 140 401 124 b 247 201 297 124 247 149 b 354 279 247 254 297 279 b 474 232 401 279 451 263 z "},"ấ":{"ha":765,"x_min":0,"x_max":0,"o":"m 926 1111 l 738 1111 l 561 911 l 706 911 z m 604 772 l 475 972 l 288 972 l 163 772 l 289 772 l 381 885 l 476 772 z m 688 0 l 688 419 b 375 688 688 628 536 688 b 71 583 272 688 157 657 l 147 449 b 338 519 201 494 271 519 b 474 422 424 519 474 481 l 474 338 b 265 415 433 388 354 415 b 35 204 163 415 35 367 b 265 -17 35 53 163 -17 b 474 67 351 -17 432 17 l 474 0 z m 474 172 b 354 124 451 140 401 124 b 247 201 297 124 247 149 b 354 279 247 254 297 279 b 474 232 401 279 451 263 z "},"ậ":{"ha":765,"x_min":0,"x_max":0,"o":"m 604 772 l 475 972 l 288 972 l 163 772 l 289 772 l 381 885 l 476 772 z m 688 0 l 688 419 b 375 688 688 628 536 688 b 71 583 272 688 157 657 l 147 449 b 338 519 201 494 271 519 b 474 422 424 519 474 481 l 474 338 b 265 415 433 388 354 415 b 35 204 163 415 35 367 b 265 -17 35 53 163 -17 b 474 67 351 -17 432 17 l 474 0 z m 474 172 b 354 124 451 140 401 124 b 247 201 297 124 247 149 b 354 279 247 254 297 279 b 474 232 401 279 451 263 z m 272 -167 b 381 -275 272 -226 321 -275 b 489 -167 439 -275 489 -226 b 381 -57 489 -107 439 -57 b 272 -167 321 -57 272 -107 z "},"ầ":{"ha":765,"x_min":0,"x_max":0,"o":"m 207 911 l 31 1111 l -158 1111 l 63 911 z m 604 772 l 475 972 l 288 972 l 163 772 l 289 772 l 381 885 l 476 772 z m 688 0 l 688 419 b 375 688 688 628 536 688 b 71 583 272 688 157 657 l 147 449 b 338 519 201 494 271 519 b 474 422 424 519 474 481 l 474 338 b 265 415 433 388 354 415 b 35 204 163 415 35 367 b 265 -17 35 53 163 -17 b 474 67 351 -17 432 17 l 474 0 z m 474 172 b 354 124 451 140 401 124 b 247 201 297 124 247 149 b 354 279 247 254 297 279 b 474 232 401 279 451 263 z "},"ẩ":{"ha":765,"x_min":0,"x_max":0,"o":"m 492 999 b 547 1044 501 1025 519 1044 b 594 994 571 1044 594 1031 b 561 910 594 964 585 936 l 674 910 b 699 1000 689 939 699 964 b 547 1132 699 1093 626 1132 b 399 1029 481 1132 422 1099 z m 604 772 l 475 972 l 288 972 l 163 772 l 289 772 l 381 885 l 476 772 z m 688 0 l 688 419 b 375 688 688 628 536 688 b 71 583 272 688 157 657 l 147 449 b 338 519 201 494 271 519 b 474 422 424 519 474 481 l 474 338 b 265 415 433 388 354 415 b 35 204 163 415 35 367 b 265 -17 35 53 163 -17 b 474 67 351 -17 432 17 l 474 0 z m 474 172 b 354 124 451 140 401 124 b 247 201 297 124 247 149 b 354 279 247 254 297 279 b 474 232 401 279 451 263 z "},"ắ":{"ha":765,"x_min":0,"x_max":0,"o":"m 668 1169 l 479 1169 l 303 969 l 447 969 z m 381 765 b 624 888 481 765 568 813 l 532 964 b 381 883 497 913 444 883 b 228 964 314 883 263 917 l 136 888 b 381 765 193 813 282 765 z m 688 0 l 688 419 b 375 688 688 628 536 688 b 71 583 272 688 157 657 l 147 449 b 338 519 201 494 271 519 b 474 422 424 519 474 481 l 474 338 b 265 415 433 388 354 415 b 35 204 163 415 35 367 b 265 -17 35 53 163 -17 b 474 67 351 -17 432 17 l 474 0 z m 474 172 b 354 124 451 140 401 124 b 247 201 297 124 247 149 b 354 279 247 254 297 279 b 474 232 401 279 451 263 z "},"ẫ":{"ha":765,"x_min":0,"x_max":0,"o":"m 349 1042 b 456 994 374 1021 403 994 b 613 1181 558 994 613 1058 l 504 1181 b 463 1113 504 1133 485 1113 b 413 1142 443 1113 429 1126 b 306 1189 388 1163 358 1189 b 149 1003 203 1189 149 1126 l 257 1003 b 299 1071 257 1050 276 1071 b 349 1042 318 1071 332 1057 z m 604 772 l 475 972 l 288 972 l 163 772 l 289 772 l 381 885 l 476 772 z m 688 0 l 688 419 b 375 688 688 628 536 688 b 71 583 272 688 157 657 l 147 449 b 338 519 201 494 271 519 b 474 422 424 519 474 481 l 474 338 b 265 415 433 388 354 415 b 35 204 163 415 35 367 b 265 -17 35 53 163 -17 b 474 67 351 -17 432 17 l 474 0 z m 474 172 b 354 124 451 140 401 124 b 247 201 297 124 247 149 b 354 279 247 254 297 279 b 474 232 401 279 451 263 z "},"ằ":{"ha":765,"x_min":0,"x_max":0,"o":"m 454 969 l 278 1169 l 89 1169 l 310 969 z m 381 765 b 624 888 481 765 568 813 l 532 964 b 381 883 497 913 444 883 b 228 964 314 883 263 917 l 136 888 b 381 765 193 813 282 765 z m 688 0 l 688 419 b 375 688 688 628 536 688 b 71 583 272 688 157 657 l 147 449 b 338 519 201 494 271 519 b 474 422 424 519 474 481 l 474 338 b 265 415 433 388 354 415 b 35 204 163 415 35 367 b 265 -17 35 53 163 -17 b 474 67 351 -17 432 17 l 474 0 z m 474 172 b 354 124 451 140 401 124 b 247 201 297 124 247 149 b 354 279 247 254 297 279 b 474 232 401 279 451 263 z "},"ẳ":{"ha":765,"x_min":0,"x_max":0,"o":"m 315 1058 b 371 1104 325 1085 343 1104 b 418 1054 394 1104 418 1090 b 385 969 418 1024 408 996 l 497 969 b 522 1060 513 999 522 1024 b 371 1192 522 1153 450 1192 b 222 1089 304 1192 246 1158 z m 381 765 b 624 888 481 765 568 813 l 532 964 b 381 883 497 913 444 883 b 228 964 314 883 263 917 l 136 888 b 381 765 193 813 282 765 z m 688 0 l 688 419 b 375 688 688 628 536 688 b 71 583 272 688 157 657 l 147 449 b 338 519 201 494 271 519 b 474 422 424 519 474 481 l 474 338 b 265 415 433 388 354 415 b 35 204 163 415 35 367 b 265 -17 35 53 163 -17 b 474 67 351 -17 432 17 l 474 0 z m 474 172 b 354 124 451 140 401 124 b 247 201 297 124 247 149 b 354 279 247 254 297 279 b 474 232 401 279 451 263 z "},"ẵ":{"ha":765,"x_min":0,"x_max":0,"o":"m 349 1014 b 456 967 374 993 403 967 b 613 1153 558 967 613 1031 l 504 1153 b 463 1085 504 1106 485 1085 b 413 1114 443 1085 429 1099 b 306 1161 388 1135 358 1161 b 149 975 203 1161 149 1099 l 257 975 b 299 1043 257 1022 276 1043 b 349 1014 318 1043 332 1029 z m 381 765 b 624 888 481 765 568 813 l 532 964 b 381 883 497 913 444 883 b 228 964 314 883 263 917 l 136 888 b 381 765 193 813 282 765 z m 688 0 l 688 419 b 375 688 688 628 536 688 b 71 583 272 688 157 657 l 147 449 b 338 519 201 494 271 519 b 474 422 424 519 474 481 l 474 338 b 265 415 433 388 354 415 b 35 204 163 415 35 367 b 265 -17 35 53 163 -17 b 474 67 351 -17 432 17 l 474 0 z m 474 172 b 354 124 451 140 401 124 b 247 201 297 124 247 149 b 354 279 247 254 297 279 b 474 232 401 279 451 263 z "},"ặ":{"ha":765,"x_min":0,"x_max":0,"o":"m 381 765 b 624 888 481 765 568 813 l 532 964 b 381 883 497 913 444 883 b 228 964 314 883 263 917 l 136 888 b 381 765 193 813 282 765 z m 688 0 l 688 419 b 375 688 688 628 536 688 b 71 583 272 688 157 657 l 147 449 b 338 519 201 494 271 519 b 474 422 424 519 474 481 l 474 338 b 265 415 433 388 354 415 b 35 204 163 415 35 367 b 265 -17 35 53 163 -17 b 474 67 351 -17 432 17 l 474 0 z m 474 172 b 354 124 451 140 401 124 b 247 201 297 124 247 149 b 354 279 247 254 297 279 b 474 232 401 279 451 263 z m 272 -167 b 381 -275 272 -226 321 -275 b 489 -167 439 -275 489 -226 b 381 -57 489 -107 439 -57 b 272 -167 321 -57 272 -107 z "},"æ":{"ha":1194,"x_min":0,"x_max":0,"o":"m 1167 268 l 1167 314 b 843 688 1167 542 1028 688 b 603 589 722 688 653 643 b 378 688 563 651 492 688 b 71 583 274 688 157 657 l 147 447 b 349 519 206 494 278 519 b 493 422 439 519 493 479 l 493 344 b 274 419 447 393 361 419 b 35 201 144 419 35 350 b 322 -17 35 50 167 -17 b 600 90 440 -17 542 29 b 850 -17 663 14 747 -17 b 1115 72 936 -17 1049 13 l 1021 210 b 871 153 986 175 925 153 b 708 268 775 153 724 208 z m 706 407 b 833 522 714 457 749 522 b 963 407 925 522 957 454 z m 493 224 b 351 140 493 186 431 140 b 247 210 300 140 247 161 b 363 279 247 257 301 279 b 493 231 414 279 468 261 z "},"ǽ":{"ha":1194,"x_min":0,"x_max":0,"o":"m 888 972 l 699 972 l 522 772 l 667 772 z m 1167 268 l 1167 314 b 843 688 1167 542 1028 688 b 603 589 722 688 653 643 b 378 688 563 651 492 688 b 71 583 274 688 157 657 l 147 447 b 349 519 206 494 278 519 b 493 422 439 519 493 479 l 493 344 b 274 419 447 393 361 419 b 35 201 144 419 35 350 b 322 -17 35 50 167 -17 b 600 90 440 -17 542 29 b 850 -17 663 14 747 -17 b 1115 72 936 -17 1049 13 l 1021 210 b 871 153 986 175 925 153 b 708 268 775 153 724 208 z m 706 407 b 833 522 714 457 749 522 b 963 407 925 522 957 454 z m 493 224 b 351 140 493 186 431 140 b 247 210 300 140 247 161 b 363 279 247 257 301 279 b 493 231 414 279 468 261 z "},"ḃ":{"ha":821,"x_min":0,"x_max":0,"o":"m 311 1096 b 419 988 311 1036 360 988 b 528 1096 478 988 528 1036 b 419 1206 528 1156 478 1206 b 311 1096 360 1206 311 1156 z m 292 0 l 292 78 b 490 -17 347 14 415 -17 b 786 336 656 -17 786 108 b 490 688 786 556 657 688 b 292 592 417 688 344 658 l 292 926 l 78 926 l 78 0 z m 292 438 b 419 499 318 474 374 499 b 568 336 504 499 568 436 b 419 172 568 235 504 172 b 292 232 374 172 318 196 z "},"ć":{"ha":694,"x_min":0,"x_max":0,"o":"m 682 972 l 493 972 l 317 772 l 461 772 z m 33 336 b 400 -17 33 125 190 -17 b 675 107 544 -17 635 49 l 536 238 b 410 172 510 200 467 172 b 253 336 321 172 253 235 b 410 499 253 438 321 499 b 536 435 467 499 510 474 l 675 564 b 400 688 635 624 544 688 b 33 336 190 688 33 546 z "},"ç":{"ha":694,"x_min":0,"x_max":0,"o":"m 410 172 b 253 336 321 172 253 235 b 410 499 253 438 321 499 b 536 435 467 499 510 474 l 675 564 b 400 688 635 624 544 688 b 33 336 190 688 33 546 b 338 -12 33 146 160 13 l 306 -97 l 379 -139 b 419 -121 389 -129 403 -121 b 454 -150 442 -121 454 -132 b 389 -190 454 -178 422 -190 b 275 -149 351 -190 311 -175 l 236 -229 b 394 -275 265 -253 325 -275 b 554 -153 482 -275 554 -231 b 460 -54 554 -96 511 -54 b 413 -68 442 -54 426 -60 l 435 -15 b 675 107 558 -6 638 53 l 536 238 b 410 172 510 200 467 172 z "},"ĉ":{"ha":694,"x_min":0,"x_max":0,"o":"m 618 772 l 489 972 l 301 972 l 176 772 l 303 772 l 394 885 l 490 772 z m 33 336 b 400 -17 33 125 190 -17 b 675 107 544 -17 635 49 l 536 238 b 410 172 510 200 467 172 b 253 336 321 172 253 235 b 410 499 253 438 321 499 b 536 435 467 499 510 474 l 675 564 b 400 688 635 624 544 688 b 33 336 190 688 33 546 z "},"ċ":{"ha":694,"x_min":0,"x_max":0,"o":"m 286 864 b 394 756 286 804 335 756 b 503 864 453 756 503 804 b 394 974 503 924 453 974 b 286 864 335 974 286 924 z m 33 336 b 400 -17 33 125 190 -17 b 675 107 544 -17 635 49 l 536 238 b 410 172 510 200 467 172 b 253 336 321 172 253 235 b 410 499 253 438 321 499 b 536 435 467 499 510 474 l 675 564 b 400 688 635 624 544 688 b 33 336 190 688 33 546 z "},"č":{"ha":694,"x_min":0,"x_max":0,"o":"m 489 772 l 614 972 l 486 972 l 394 860 l 299 972 l 172 972 l 301 772 z m 33 336 b 400 -17 33 125 190 -17 b 675 107 544 -17 635 49 l 536 238 b 410 172 510 200 467 172 b 253 336 321 172 253 235 b 410 499 253 438 321 499 b 536 435 467 499 510 474 l 675 564 b 400 688 635 624 544 688 b 33 336 190 688 33 546 z "},"ď":{"ha":990,"x_min":0,"x_max":0,"o":"m 875 600 b 999 819 950 653 999 732 b 889 943 999 899 946 943 b 792 844 836 943 792 900 b 874 757 792 792 828 757 b 897 761 883 757 894 758 b 807 656 888 721 842 674 z m 742 0 l 742 926 l 529 926 l 529 592 b 331 688 475 658 404 688 b 33 336 163 688 33 556 b 331 -17 33 108 165 -17 b 529 78 406 -17 474 14 l 529 0 z m 529 233 b 400 172 501 197 446 172 b 253 336 315 172 253 236 b 400 499 253 436 315 499 b 529 439 446 499 501 475 z "},"đ":{"ha":828,"x_min":0,"x_max":0,"o":"m 742 846 l 742 926 l 529 926 l 529 846 l 335 846 l 335 729 l 529 729 l 529 592 b 331 688 475 658 404 688 b 33 336 163 688 33 556 b 331 -17 33 108 165 -17 b 529 78 406 -17 474 14 l 529 0 l 742 0 l 742 729 l 817 729 l 817 846 z m 529 233 b 400 172 501 197 446 172 b 253 336 315 172 253 236 b 400 499 253 436 315 499 b 529 439 446 499 501 475 z "},"ḋ":{"ha":821,"x_min":0,"x_max":0,"o":"m 306 1096 b 414 988 306 1036 354 988 b 522 1096 472 988 522 1036 b 414 1206 522 1156 472 1206 b 306 1096 354 1206 306 1156 z m 742 0 l 742 926 l 529 926 l 529 592 b 331 688 475 658 404 688 b 33 336 163 688 33 556 b 331 -17 33 108 165 -17 b 529 78 406 -17 474 14 l 529 0 z m 529 233 b 400 172 501 197 446 172 b 253 336 315 172 253 236 b 400 499 253 436 315 499 b 529 439 446 499 501 475 z "},"é":{"ha":761,"x_min":0,"x_max":0,"o":"m 678 972 l 489 972 l 313 772 l 457 772 z m 33 336 b 400 -17 33 118 193 -17 b 681 72 503 -17 614 13 l 590 206 b 426 149 553 172 486 149 b 256 268 326 149 268 206 l 733 268 l 733 314 b 390 688 733 542 589 688 b 33 336 181 688 33 531 z m 390 522 b 529 407 489 522 524 454 l 253 407 b 390 522 261 456 297 522 z "},"ĕ":{"ha":761,"x_min":0,"x_max":0,"o":"m 390 765 b 633 888 490 765 578 813 l 542 964 b 390 883 507 913 454 883 b 238 964 324 883 272 917 l 146 888 b 390 765 203 813 292 765 z m 33 336 b 400 -17 33 118 193 -17 b 681 72 503 -17 614 13 l 590 206 b 426 149 553 172 486 149 b 256 268 326 149 268 206 l 733 268 l 733 314 b 390 688 733 542 589 688 b 33 336 181 688 33 531 z m 390 522 b 529 407 489 522 524 454 l 253 407 b 390 522 261 456 297 522 z "},"ê":{"ha":761,"x_min":0,"x_max":0,"o":"m 614 772 l 485 972 l 297 972 l 172 772 l 299 772 l 390 885 l 486 772 z m 33 336 b 400 -17 33 118 193 -17 b 681 72 503 -17 614 13 l 590 206 b 426 149 553 172 486 149 b 256 268 326 149 268 206 l 733 268 l 733 314 b 390 688 733 542 589 688 b 33 336 181 688 33 531 z m 390 522 b 529 407 489 522 524 454 l 253 407 b 390 522 261 456 297 522 z "},"ë":{"ha":761,"x_min":0,"x_max":0,"o":"m 243 756 b 351 864 304 756 351 803 b 243 974 351 925 304 974 b 133 864 182 974 133 925 b 243 756 133 803 182 756 z m 540 756 b 650 864 600 756 650 803 b 540 974 650 925 600 974 b 431 864 479 974 431 925 b 540 756 431 803 479 756 z m 33 336 b 400 -17 33 118 193 -17 b 681 72 503 -17 614 13 l 590 206 b 426 149 553 172 486 149 b 256 268 326 149 268 206 l 733 268 l 733 314 b 390 688 733 542 589 688 b 33 336 181 688 33 531 z m 390 522 b 529 407 489 522 524 454 l 253 407 b 390 522 261 456 297 522 z "},"ė":{"ha":761,"x_min":0,"x_max":0,"o":"m 282 864 b 390 756 282 804 331 756 b 499 864 449 756 499 804 b 390 974 499 924 449 974 b 282 864 331 974 282 924 z m 33 336 b 400 -17 33 118 193 -17 b 681 72 503 -17 614 13 l 590 206 b 426 149 553 172 486 149 b 256 268 326 149 268 206 l 733 268 l 733 314 b 390 688 733 542 589 688 b 33 336 181 688 33 531 z m 390 522 b 529 407 489 522 524 454 l 253 407 b 390 522 261 456 297 522 z "},"è":{"ha":761,"x_min":0,"x_max":0,"o":"m 465 772 l 289 972 l 100 972 l 321 772 z m 33 336 b 400 -17 33 118 193 -17 b 681 72 503 -17 614 13 l 590 206 b 426 149 553 172 486 149 b 256 268 326 149 268 206 l 733 268 l 733 314 b 390 688 733 542 589 688 b 33 336 181 688 33 531 z m 390 522 b 529 407 489 522 524 454 l 253 407 b 390 522 261 456 297 522 z "},"ē":{"ha":761,"x_min":0,"x_max":0,"o":"m 632 772 l 632 890 l 147 890 l 147 772 z m 33 336 b 400 -17 33 118 193 -17 b 681 72 503 -17 614 13 l 590 206 b 426 149 553 172 486 149 b 256 268 326 149 268 206 l 733 268 l 733 314 b 390 688 733 542 589 688 b 33 336 181 688 33 531 z m 390 522 b 529 407 489 522 524 454 l 253 407 b 390 522 261 456 297 522 z "},"ę":{"ha":761,"x_min":0,"x_max":0,"o":"m 400 -17 b 476 -11 428 -17 453 -14 b 369 -142 408 -42 369 -89 b 540 -258 369 -229 464 -258 b 676 -232 599 -258 636 -253 l 640 -126 b 604 -135 629 -132 617 -135 b 556 -89 579 -135 556 -119 b 681 72 556 -44 604 17 l 590 206 b 424 149 553 169 471 149 b 256 268 326 149 268 206 l 733 268 l 733 314 b 390 688 733 542 589 688 b 33 336 181 688 33 531 b 400 -17 33 118 193 -17 z m 390 522 b 529 407 489 522 524 454 l 253 407 b 390 522 261 456 297 522 z "},"ě":{"ha":761,"x_min":0,"x_max":0,"o":"m 485 772 l 610 972 l 482 972 l 390 860 l 294 972 l 168 972 l 297 772 z m 33 336 b 400 -17 33 118 193 -17 b 681 72 503 -17 614 13 l 590 206 b 426 149 553 172 486 149 b 256 268 326 149 268 206 l 733 268 l 733 314 b 390 688 733 542 589 688 b 33 336 181 688 33 531 z m 390 522 b 529 407 489 522 524 454 l 253 407 b 390 522 261 456 297 522 z "},"ẹ":{"ha":761,"x_min":0,"x_max":0,"o":"m 33 336 b 400 -17 33 118 193 -17 b 681 72 503 -17 614 13 l 590 206 b 426 149 553 172 486 149 b 256 268 326 149 268 206 l 733 268 l 733 314 b 390 688 733 542 589 688 b 33 336 181 688 33 531 z m 390 522 b 529 407 489 522 524 454 l 253 407 b 390 522 261 456 297 522 z m 282 -167 b 390 -275 282 -226 331 -275 b 499 -167 449 -275 499 -226 b 390 -57 499 -107 449 -57 b 282 -167 331 -57 282 -107 z "},"ẻ":{"ha":761,"x_min":0,"x_max":0,"o":"m 325 861 b 381 907 335 888 353 907 b 428 857 404 907 428 893 b 394 772 428 826 418 799 l 507 772 b 532 863 522 801 532 826 b 381 994 532 956 460 994 b 232 892 314 994 256 961 z m 33 336 b 400 -17 33 118 193 -17 b 681 72 503 -17 614 13 l 590 206 b 426 149 553 172 486 149 b 256 268 326 149 268 206 l 733 268 l 733 314 b 390 688 733 542 589 688 b 33 336 181 688 33 531 z m 390 522 b 529 407 489 522 524 454 l 253 407 b 390 522 261 456 297 522 z "},"ẽ":{"ha":761,"x_min":0,"x_max":0,"o":"m 360 817 b 467 769 385 796 414 769 b 624 956 569 769 624 833 l 515 956 b 474 888 515 908 496 888 b 424 917 454 888 440 901 b 317 964 399 938 369 964 b 160 778 214 964 160 901 l 268 778 b 310 846 268 825 288 846 b 360 817 329 846 343 832 z m 33 336 b 400 -17 33 118 193 -17 b 681 72 503 -17 614 13 l 590 206 b 426 149 553 172 486 149 b 256 268 326 149 268 206 l 733 268 l 733 314 b 390 688 733 542 589 688 b 33 336 181 688 33 531 z m 390 522 b 529 407 489 522 524 454 l 253 407 b 390 522 261 456 297 522 z "},"ế":{"ha":761,"x_min":0,"x_max":0,"o":"m 938 1111 l 749 1111 l 572 911 l 717 911 z m 614 772 l 485 972 l 297 972 l 172 772 l 299 772 l 390 885 l 486 772 z m 33 336 b 400 -17 33 118 193 -17 b 681 72 503 -17 614 13 l 590 206 b 426 149 553 172 486 149 b 256 268 326 149 268 206 l 733 268 l 733 314 b 390 688 733 542 589 688 b 33 336 181 688 33 531 z m 390 522 b 529 407 489 522 524 454 l 253 407 b 390 522 261 456 297 522 z "},"ề":{"ha":761,"x_min":0,"x_max":0,"o":"m 217 911 l 40 1111 l -149 1111 l 72 911 z m 614 772 l 485 972 l 297 972 l 172 772 l 299 772 l 390 885 l 486 772 z m 33 336 b 400 -17 33 118 193 -17 b 681 72 503 -17 614 13 l 590 206 b 426 149 553 172 486 149 b 256 268 326 149 268 206 l 733 268 l 733 314 b 390 688 733 542 589 688 b 33 336 181 688 33 531 z m 390 522 b 529 407 489 522 524 454 l 253 407 b 390 522 261 456 297 522 z "},"ể":{"ha":761,"x_min":0,"x_max":0,"o":"m 501 999 b 557 1044 511 1025 529 1044 b 604 994 581 1044 604 1031 b 571 910 604 964 594 936 l 683 910 b 708 1000 699 939 708 964 b 557 1132 708 1093 636 1132 b 408 1029 490 1132 432 1099 z m 614 772 l 485 972 l 297 972 l 172 772 l 299 772 l 390 885 l 486 772 z m 33 336 b 400 -17 33 118 193 -17 b 681 72 503 -17 614 13 l 590 206 b 426 149 553 172 486 149 b 256 268 326 149 268 206 l 733 268 l 733 314 b 390 688 733 542 589 688 b 33 336 181 688 33 531 z m 390 522 b 529 407 489 522 524 454 l 253 407 b 390 522 261 456 297 522 z "},"ễ":{"ha":761,"x_min":0,"x_max":0,"o":"m 360 1042 b 467 994 385 1021 414 994 b 624 1181 569 994 624 1058 l 515 1181 b 474 1113 515 1133 496 1113 b 424 1142 454 1113 440 1126 b 317 1189 399 1163 369 1189 b 160 1003 214 1189 160 1126 l 268 1003 b 310 1071 268 1050 288 1071 b 360 1042 329 1071 343 1057 z m 614 772 l 485 972 l 297 972 l 172 772 l 299 772 l 390 885 l 486 772 z m 33 336 b 400 -17 33 118 193 -17 b 681 72 503 -17 614 13 l 590 206 b 426 149 553 172 486 149 b 256 268 326 149 268 206 l 733 268 l 733 314 b 390 688 733 542 589 688 b 33 336 181 688 33 531 z m 390 522 b 529 407 489 522 524 454 l 253 407 b 390 522 261 456 297 522 z "},"ệ":{"ha":761,"x_min":0,"x_max":0,"o":"m 614 772 l 485 972 l 297 972 l 172 772 l 299 772 l 390 885 l 486 772 z m 33 336 b 400 -17 33 118 193 -17 b 681 72 503 -17 614 13 l 590 206 b 426 149 553 172 486 149 b 256 268 326 149 268 206 l 733 268 l 733 314 b 390 688 733 542 589 688 b 33 336 181 688 33 531 z m 390 522 b 529 407 489 522 524 454 l 253 407 b 390 522 261 456 297 522 z m 282 -167 b 390 -275 282 -226 331 -275 b 499 -167 449 -275 499 -226 b 390 -57 499 -107 449 -57 b 282 -167 331 -57 282 -107 z "},"ﬀ":{"ha":969,"x_min":0,"x_max":0,"o":"m 338 0 l 338 485 l 474 485 l 474 671 l 338 671 l 338 699 b 411 778 338 750 367 778 b 467 764 431 778 450 774 l 506 910 b 364 940 472 928 422 940 b 124 704 225 940 124 847 l 124 671 l 13 671 l 13 485 l 124 485 l 124 0 z m 822 0 l 822 485 l 958 485 l 958 671 l 822 671 l 822 699 b 896 778 822 750 851 778 b 951 764 915 778 935 774 l 990 910 b 849 940 957 928 907 940 b 608 704 710 940 608 847 l 608 671 l 497 671 l 497 485 l 608 485 l 608 0 z "},"ﬁ":{"ha":854,"x_min":0,"x_max":0,"o":"m 669 756 b 792 878 738 756 792 810 b 669 1000 792 946 738 1000 b 547 878 601 1000 547 946 b 669 756 547 810 601 756 z m 338 485 l 474 485 l 474 671 l 338 671 l 338 704 b 408 778 338 750 367 778 b 465 761 432 778 453 771 l 506 910 b 364 940 472 928 422 940 b 124 704 225 940 124 847 l 124 671 l 13 671 l 13 485 l 124 485 l 124 0 l 338 0 z m 776 0 l 776 671 l 563 671 l 563 0 z "},"":{"ha":854,"x_min":0,"x_max":0,"o":"m 669 756 b 792 878 738 756 792 810 b 669 1000 792 946 738 1000 b 547 878 601 1000 547 946 b 669 756 547 810 601 756 z m 474 485 l 474 671 l 338 671 l 338 704 b 408 778 338 750 367 778 b 465 761 432 778 453 771 l 506 910 b 364 940 472 928 422 940 b 124 704 225 940 124 847 l 124 671 l 13 671 l 13 485 l 124 485 l 124 0 l 338 0 l 338 485 z m 563 671 l 563 6 b 482 -96 563 -64 531 -96 b 446 -93 472 -96 458 -96 l 440 -267 b 517 -272 461 -271 486 -272 b 776 6 696 -272 776 -157 l 776 671 z "},"ﬂ":{"ha":854,"x_min":0,"x_max":0,"o":"m 474 485 l 474 671 l 338 671 l 338 704 b 408 778 338 750 367 778 b 465 761 432 778 453 771 l 506 910 b 364 940 472 928 422 940 b 124 704 225 940 124 847 l 124 671 l 13 671 l 13 485 l 124 485 l 124 0 l 338 0 l 338 485 z m 776 0 l 776 926 l 563 926 l 563 0 z "},"ﬃ":{"ha":1339,"x_min":0,"x_max":0,"o":"m 1154 756 b 1276 878 1222 756 1276 810 b 1154 1000 1276 946 1222 1000 b 1032 878 1086 1000 1032 946 b 1154 756 1032 810 1086 756 z m 338 485 l 474 485 l 474 671 l 338 671 l 338 699 b 411 778 338 750 367 778 b 467 764 431 778 450 774 l 506 910 b 364 940 472 928 422 940 b 124 704 225 940 124 847 l 124 671 l 13 671 l 13 485 l 124 485 l 124 0 l 338 0 z m 958 671 l 822 671 l 822 704 b 893 778 822 750 851 778 b 950 761 917 778 938 771 l 990 910 b 849 940 957 928 907 940 b 608 704 710 940 608 847 l 608 671 l 497 671 l 497 485 l 608 485 l 608 0 l 822 0 l 822 485 l 958 485 z m 1261 0 l 1261 671 l 1047 671 l 1047 0 z "},"":{"ha":1339,"x_min":0,"x_max":0,"o":"m 1154 756 b 1276 878 1222 756 1276 810 b 1154 1000 1276 946 1222 1000 b 1032 878 1086 1000 1032 946 b 1154 756 1032 810 1086 756 z m 474 485 l 474 671 l 338 671 l 338 699 b 411 778 338 750 367 778 b 467 764 431 778 450 774 l 506 910 b 364 940 472 928 422 940 b 124 704 225 940 124 847 l 124 671 l 13 671 l 13 485 l 124 485 l 124 0 l 338 0 l 338 485 z m 822 671 l 822 704 b 893 778 822 750 851 778 b 950 761 917 778 938 771 l 990 910 b 849 940 957 928 907 940 b 608 704 710 940 608 847 l 608 671 l 497 671 l 497 485 l 608 485 l 608 0 l 822 0 l 822 485 l 958 485 l 958 671 z m 1047 671 l 1047 6 b 967 -96 1047 -64 1015 -96 b 931 -93 957 -96 943 -96 l 925 -267 b 1001 -272 946 -271 971 -272 b 1261 6 1181 -272 1261 -157 l 1261 671 z "},"ﬄ":{"ha":1339,"x_min":0,"x_max":0,"o":"m 474 485 l 474 671 l 338 671 l 338 699 b 411 778 338 750 367 778 b 467 764 431 778 450 774 l 506 910 b 364 940 472 928 422 940 b 124 704 225 940 124 847 l 124 671 l 13 671 l 13 485 l 124 485 l 124 0 l 338 0 l 338 485 z m 822 671 l 822 704 b 893 778 822 750 851 778 b 950 761 917 778 938 771 l 990 910 b 849 940 957 928 907 940 b 608 704 710 940 608 847 l 608 671 l 497 671 l 497 485 l 608 485 l 608 0 l 822 0 l 822 485 l 958 485 l 958 671 z m 1261 0 l 1261 926 l 1047 926 l 1047 0 z "},"ḟ":{"ha":485,"x_min":0,"x_max":0,"o":"m 219 1096 b 328 988 219 1036 268 988 b 436 1096 386 988 436 1036 b 328 1206 436 1156 386 1206 b 219 1096 268 1206 219 1156 z m 474 485 l 474 671 l 338 671 l 338 699 b 411 778 338 750 367 778 b 467 764 431 778 450 774 l 506 910 b 364 940 472 928 422 940 b 124 704 225 940 124 847 l 124 671 l 13 671 l 13 485 l 124 485 l 124 0 l 338 0 l 338 485 z "},"ĝ":{"ha":819,"x_min":0,"x_max":0,"o":"m 638 772 l 508 972 l 321 972 l 196 772 l 322 772 l 414 885 l 510 772 z m 60 -172 b 357 -272 146 -243 242 -272 b 740 60 524 -272 740 -214 l 740 671 l 528 671 l 528 592 b 329 688 474 658 404 688 b 33 350 161 688 33 571 b 329 11 33 124 165 11 b 528 108 406 11 472 43 l 528 57 b 357 -97 528 -68 428 -97 b 153 -19 279 -97 204 -75 z m 528 260 b 400 200 501 224 444 200 b 253 350 315 200 253 251 b 400 499 253 447 315 499 b 528 439 444 499 501 475 z "},"ğ":{"ha":819,"x_min":0,"x_max":0,"o":"m 414 765 b 657 888 514 765 601 813 l 565 964 b 414 883 531 913 478 883 b 261 964 347 883 296 917 l 169 888 b 414 765 226 813 315 765 z m 60 -172 b 357 -272 146 -243 242 -272 b 740 60 524 -272 740 -214 l 740 671 l 528 671 l 528 592 b 329 688 474 658 404 688 b 33 350 161 688 33 571 b 329 11 33 124 165 11 b 528 108 406 11 472 43 l 528 57 b 357 -97 528 -68 428 -97 b 153 -19 279 -97 204 -75 z m 528 260 b 400 200 501 224 444 200 b 253 350 315 200 253 251 b 400 499 253 447 315 499 b 528 439 444 499 501 475 z "},"ġ":{"ha":819,"x_min":0,"x_max":0,"o":"m 306 864 b 414 756 306 804 354 756 b 522 864 472 756 522 804 b 414 974 522 924 472 974 b 306 864 354 974 306 924 z m 60 -172 b 357 -272 146 -243 242 -272 b 740 60 524 -272 740 -214 l 740 671 l 528 671 l 528 592 b 329 688 474 658 404 688 b 33 350 161 688 33 571 b 329 11 33 124 165 11 b 528 108 406 11 472 43 l 528 57 b 357 -97 528 -68 428 -97 b 153 -19 279 -97 204 -75 z m 528 260 b 400 200 501 224 444 200 b 253 350 315 200 253 251 b 400 499 253 447 315 499 b 528 439 444 499 501 475 z "},"ģ":{"ha":819,"x_min":0,"x_max":0,"o":"m 425 1083 b 307 857 346 1028 307 947 b 407 740 307 764 368 740 b 507 840 463 740 507 786 b 413 932 507 893 458 932 b 404 931 408 932 406 931 b 493 1028 411 969 463 1014 z m 60 -172 b 357 -272 146 -243 242 -272 b 740 60 524 -272 740 -214 l 740 671 l 528 671 l 528 592 b 329 688 474 658 404 688 b 33 350 161 688 33 571 b 329 11 33 124 165 11 b 528 108 406 11 472 43 l 528 57 b 357 -97 528 -68 428 -97 b 153 -19 279 -97 204 -75 z m 528 260 b 400 200 501 224 444 200 b 253 350 315 200 253 251 b 400 499 253 447 315 499 b 528 439 444 499 501 475 z "},"ǧ":{"ha":819,"x_min":0,"x_max":0,"o":"m 508 772 l 633 972 l 506 972 l 414 860 l 318 972 l 192 972 l 321 772 z m 60 -172 b 357 -272 146 -243 242 -272 b 740 60 524 -272 740 -214 l 740 671 l 528 671 l 528 592 b 329 688 474 658 404 688 b 33 350 161 688 33 571 b 329 11 33 124 165 11 b 528 108 406 11 472 43 l 528 57 b 357 -97 528 -68 428 -97 b 153 -19 279 -97 204 -75 z m 528 260 b 400 200 501 224 444 200 b 253 350 315 200 253 251 b 400 499 253 447 315 499 b 528 439 444 499 501 475 z "},"ħ":{"ha":831,"x_min":0,"x_max":0,"o":"m 532 688 b 299 589 418 688 339 636 l 299 729 l 493 729 l 493 846 l 299 846 l 299 926 l 85 926 l 85 846 l 11 846 l 11 729 l 85 729 l 85 0 l 299 0 l 299 433 b 428 499 325 464 365 499 b 539 390 496 499 539 472 l 539 0 l 753 0 l 753 478 b 532 688 753 601 683 688 z "},"ĥ":{"ha":825,"x_min":0,"x_max":0,"o":"m 636 1004 l 507 1204 l 319 1204 l 194 1004 l 321 1004 l 413 1117 l 508 1004 z m 747 0 l 747 478 b 525 688 747 601 678 688 b 293 589 413 688 333 636 l 293 926 l 79 926 l 79 0 l 293 0 l 293 433 b 422 499 318 464 360 499 b 533 390 490 499 533 472 l 533 0 z "},"ḣ":{"ha":825,"x_min":0,"x_max":0,"o":"m 304 1096 b 413 988 304 1036 353 988 b 521 1096 471 988 521 1036 b 413 1206 521 1156 471 1206 b 304 1096 353 1206 304 1156 z m 747 0 l 747 478 b 525 688 747 601 678 688 b 293 589 413 688 333 636 l 293 926 l 79 926 l 79 0 l 293 0 l 293 433 b 422 499 318 464 360 499 b 533 390 490 499 533 472 l 533 0 z "},"ı":{"ha":369,"x_min":0,"x_max":0,"o":"m 292 0 l 292 671 l 78 671 l 78 0 z "},"í":{"ha":369,"x_min":0,"x_max":0,"o":"m 472 972 l 283 972 l 107 772 l 251 772 z m 292 0 l 292 671 l 78 671 l 78 0 z "},"ĭ":{"ha":369,"x_min":0,"x_max":0,"o":"m 185 765 b 428 888 285 765 372 813 l 336 964 b 185 883 301 913 249 883 b 32 964 118 883 67 917 l -60 888 b 185 765 -3 813 86 765 z m 292 0 l 292 671 l 78 671 l 78 0 z "},"î":{"ha":369,"x_min":0,"x_max":0,"o":"m 408 772 l 279 972 l 92 972 l -33 772 l 93 772 l 185 885 l 281 772 z m 292 0 l 292 671 l 78 671 l 78 0 z "},"ï":{"ha":369,"x_min":0,"x_max":0,"o":"m 36 756 b 144 864 97 756 144 803 b 36 974 144 925 97 974 b -74 864 -25 974 -74 925 b 36 756 -74 803 -25 756 z m 333 756 b 443 864 393 756 443 803 b 333 974 443 925 393 974 b 224 864 272 974 224 925 b 333 756 224 803 272 756 z m 292 0 l 292 671 l 78 671 l 78 0 z "},"ì":{"ha":369,"x_min":0,"x_max":0,"o":"m 258 772 l 82 972 l -107 972 l 114 772 z m 292 0 l 292 671 l 78 671 l 78 0 z "},"ī":{"ha":369,"x_min":0,"x_max":0,"o":"m 426 772 l 426 890 l -58 890 l -58 772 z m 292 0 l 292 671 l 78 671 l 78 0 z "},"į":{"ha":369,"x_min":0,"x_max":0,"o":"m 185 756 b 307 878 253 756 307 810 b 185 1000 307 946 253 1000 b 63 878 117 1000 63 946 b 185 756 63 810 117 756 z m 136 0 b -17 -142 38 -33 -17 -79 b 154 -258 -17 -229 76 -258 b 289 -232 211 -258 250 -253 l 253 -126 b 217 -135 242 -132 229 -135 b 169 -93 192 -135 169 -119 b 292 0 169 -53 208 -15 l 292 671 l 78 671 l 78 0 z "},"ĩ":{"ha":369,"x_min":0,"x_max":0,"o":"m 153 817 b 260 769 178 796 207 769 b 417 956 363 769 417 833 l 308 956 b 267 888 308 908 289 888 b 217 917 247 888 233 901 b 110 964 192 938 163 964 b -47 778 7 964 -47 901 l 61 778 b 103 846 61 825 81 846 b 153 817 122 846 136 832 z m 292 0 l 292 671 l 78 671 l 78 0 z "},"ỉ":{"ha":369,"x_min":0,"x_max":0,"o":"m 119 861 b 175 907 129 888 147 907 b 222 857 199 907 222 893 b 189 772 222 826 213 799 l 301 772 b 326 863 317 801 326 826 b 175 994 326 956 254 994 b 26 892 108 994 50 961 z m 292 0 l 292 671 l 78 671 l 78 0 z "},"ị":{"ha":369,"x_min":0,"x_max":0,"o":"m 185 756 b 307 878 253 756 307 810 b 185 1000 307 946 253 1000 b 63 878 117 1000 63 946 b 185 756 63 810 117 756 z m 292 0 l 292 671 l 78 671 l 78 0 z m 76 -167 b 185 -275 76 -226 125 -275 b 293 -167 243 -275 293 -226 b 185 -57 293 -107 243 -57 b 76 -167 125 -57 76 -107 z "},"ĳ":{"ha":740,"x_min":0,"x_max":0,"o":"m 185 756 b 307 878 253 756 307 810 b 185 1000 307 946 253 1000 b 63 878 117 1000 63 946 b 185 756 63 810 117 756 z m 554 756 b 676 878 622 756 676 810 b 554 1000 676 946 622 1000 b 432 878 486 1000 432 946 b 554 756 432 810 486 756 z m 292 0 l 292 671 l 78 671 l 78 0 z m 447 671 l 447 6 b 367 -96 447 -64 415 -96 b 331 -93 357 -96 343 -96 l 325 -267 b 401 -272 346 -271 371 -272 b 661 6 581 -272 661 -157 l 661 671 z "},"ȷ":{"ha":369,"x_min":0,"x_max":0,"o":"m -44 -267 b 32 -272 -24 -271 1 -272 b 292 6 211 -272 292 -157 l 292 671 l 78 671 l 78 6 b -3 -96 78 -64 46 -96 b -39 -93 -12 -96 -26 -96 z "},"ĵ":{"ha":369,"x_min":0,"x_max":0,"o":"m 408 772 l 279 972 l 92 972 l -33 772 l 93 772 l 185 885 l 281 772 z m -44 -267 b 32 -272 -24 -271 1 -272 b 292 6 211 -272 292 -157 l 292 671 l 78 671 l 78 6 b -3 -96 78 -64 46 -96 b -39 -93 -12 -96 -26 -96 z "},"ķ":{"ha":758,"x_min":0,"x_max":0,"o":"m 767 0 l 507 365 l 754 671 l 496 671 l 292 403 l 292 926 l 78 926 l 78 0 l 292 0 l 292 161 l 356 238 l 503 0 z m 365 -411 b 488 -193 439 -358 488 -281 b 379 -68 488 -114 436 -68 b 282 -167 326 -68 282 -112 b 364 -254 282 -219 318 -254 b 388 -250 374 -254 383 -253 b 297 -357 376 -290 332 -337 z "},"ĸ":{"ha":758,"x_min":0,"x_max":0,"o":"m 767 0 l 507 365 l 754 671 l 496 671 l 292 403 l 292 671 l 78 671 l 78 0 l 292 0 l 292 161 l 356 238 l 503 0 z "},"ĺ":{"ha":369,"x_min":0,"x_max":0,"o":"m 472 1204 l 283 1204 l 107 1004 l 251 1004 z m 292 0 l 292 926 l 78 926 l 78 0 z "},"ļ":{"ha":369,"x_min":0,"x_max":0,"o":"m 292 0 l 292 926 l 78 926 l 78 0 z m 171 -411 b 293 -193 244 -358 293 -281 b 185 -68 293 -114 242 -68 b 88 -167 132 -68 88 -112 b 169 -254 88 -219 124 -254 b 193 -250 179 -254 189 -253 b 103 -357 182 -290 138 -337 z "},"ľ":{"ha":536,"x_min":0,"x_max":0,"o":"m 425 606 b 547 824 499 658 547 736 b 439 947 547 903 494 947 b 342 849 385 947 342 904 b 424 763 342 797 378 763 b 447 765 433 763 443 764 b 356 660 436 725 392 678 z m 292 0 l 292 926 l 78 926 l 78 0 z "},"ŀ":{"ha":588,"x_min":0,"x_max":0,"o":"m 292 0 l 292 926 l 78 926 l 78 0 z m 478 210 b 608 339 549 210 608 269 b 478 469 608 410 549 469 b 349 339 407 469 349 410 b 478 210 349 269 407 210 z "},"ł":{"ha":443,"x_min":0,"x_max":0,"o":"m 328 601 l 328 926 l 115 926 l 115 478 l 11 418 l 11 267 l 115 326 l 115 0 l 328 0 l 328 450 l 432 510 l 432 661 z "},"ń":{"ha":824,"x_min":0,"x_max":0,"o":"m 699 972 l 510 972 l 333 772 l 478 772 z m 746 0 l 746 475 b 524 688 746 599 676 688 b 292 589 411 688 332 636 l 292 671 l 78 671 l 78 0 l 292 0 l 292 433 b 422 499 317 464 358 499 b 532 388 489 499 532 469 l 532 0 z "},"ŉ":{"ha":824,"x_min":0,"x_max":0,"o":"m 131 733 b 254 951 206 786 254 864 b 144 1076 254 1031 201 1076 b 47 978 92 1076 47 1032 b 129 890 47 925 83 890 b 153 894 139 890 150 892 b 63 788 143 854 97 806 z m 746 0 l 746 475 b 524 688 746 599 676 688 b 292 589 411 688 332 636 l 292 671 l 78 671 l 78 0 l 292 0 l 292 433 b 422 499 317 464 358 499 b 532 388 489 499 532 469 l 532 0 z "},"ň":{"ha":824,"x_min":0,"x_max":0,"o":"m 506 772 l 631 972 l 503 972 l 411 860 l 315 972 l 189 972 l 318 772 z m 746 0 l 746 475 b 524 688 746 599 676 688 b 292 589 411 688 332 636 l 292 671 l 78 671 l 78 0 l 292 0 l 292 433 b 422 499 317 464 358 499 b 532 388 489 499 532 469 l 532 0 z "},"ņ":{"ha":824,"x_min":0,"x_max":0,"o":"m 746 0 l 746 475 b 524 688 746 599 676 688 b 292 589 411 688 332 636 l 292 671 l 78 671 l 78 0 l 292 0 l 292 433 b 422 499 317 464 358 499 b 532 388 489 499 532 469 l 532 0 z m 399 -411 b 521 -193 472 -358 521 -281 b 413 -68 521 -114 469 -68 b 315 -167 360 -68 315 -112 b 397 -254 315 -219 351 -254 b 421 -250 407 -254 417 -253 b 331 -357 410 -290 365 -337 z "},"ñ":{"ha":824,"x_min":0,"x_max":0,"o":"m 381 817 b 488 769 406 796 435 769 b 644 956 590 769 644 833 l 536 956 b 494 888 536 908 517 888 b 444 917 475 888 461 901 b 338 964 419 938 390 964 b 181 778 235 964 181 901 l 289 778 b 331 846 289 825 308 846 b 381 817 350 846 364 832 z m 746 0 l 746 475 b 524 688 746 599 676 688 b 292 589 411 688 332 636 l 292 671 l 78 671 l 78 0 l 292 0 l 292 433 b 422 499 317 464 358 499 b 532 388 489 499 532 469 l 532 0 z "},"ɲ":{"ha":824,"x_min":0,"x_max":0,"o":"m 524 688 b 292 589 411 688 332 636 l 292 671 l 78 671 l 78 6 b -3 -96 78 -64 46 -96 b -39 -93 -12 -96 -26 -96 l -44 -267 b 32 -272 -24 -271 1 -272 b 292 6 211 -272 292 -157 l 292 433 b 422 499 317 464 358 499 b 532 388 489 499 532 469 l 532 0 l 746 0 l 746 475 b 524 688 746 599 676 688 z "},"ŋ":{"ha":824,"x_min":0,"x_max":0,"o":"m 746 475 b 524 688 746 599 676 688 b 292 589 411 688 332 636 l 292 671 l 78 671 l 78 0 l 292 0 l 292 433 b 422 499 317 464 358 499 b 532 388 489 499 532 469 l 532 6 b 451 -96 532 -64 499 -96 b 415 -93 442 -96 428 -96 l 410 -267 b 486 -272 431 -271 454 -272 b 746 6 664 -272 746 -157 z "},"ó":{"ha":800,"x_min":0,"x_max":0,"o":"m 686 972 l 497 972 l 321 772 l 465 772 z m 399 -17 b 765 336 629 -17 765 147 b 399 688 765 525 629 688 b 33 336 171 688 33 525 b 399 -17 33 147 171 -17 z m 399 172 b 254 336 306 172 254 246 b 399 499 254 425 306 499 b 546 336 493 499 546 425 b 399 172 546 246 493 172 z "},"ŏ":{"ha":800,"x_min":0,"x_max":0,"o":"m 399 765 b 642 888 499 765 586 813 l 550 964 b 399 883 515 913 463 883 b 246 964 332 883 281 917 l 154 888 b 399 765 211 813 300 765 z m 399 -17 b 765 336 629 -17 765 147 b 399 688 765 525 629 688 b 33 336 171 688 33 525 b 399 -17 33 147 171 -17 z m 399 172 b 254 336 306 172 254 246 b 399 499 254 425 306 499 b 546 336 493 499 546 425 b 399 172 546 246 493 172 z "},"ô":{"ha":800,"x_min":0,"x_max":0,"o":"m 622 772 l 493 972 l 306 972 l 181 772 l 307 772 l 399 885 l 494 772 z m 399 -17 b 765 336 629 -17 765 147 b 399 688 765 525 629 688 b 33 336 171 688 33 525 b 399 -17 33 147 171 -17 z m 399 172 b 254 336 306 172 254 246 b 399 499 254 425 306 499 b 546 336 493 499 546 425 b 399 172 546 246 493 172 z "},"ö":{"ha":800,"x_min":0,"x_max":0,"o":"m 251 756 b 360 864 313 756 360 803 b 251 974 360 925 313 974 b 142 864 190 974 142 925 b 251 756 142 803 190 756 z m 549 756 b 658 864 608 756 658 803 b 549 974 658 925 608 974 b 439 864 488 974 439 925 b 549 756 439 803 488 756 z m 399 -17 b 765 336 629 -17 765 147 b 399 688 765 525 629 688 b 33 336 171 688 33 525 b 399 -17 33 147 171 -17 z m 399 172 b 254 336 306 172 254 246 b 399 499 254 425 306 499 b 546 336 493 499 546 425 b 399 172 546 246 493 172 z "},"ò":{"ha":800,"x_min":0,"x_max":0,"o":"m 474 772 l 297 972 l 108 972 l 329 772 z m 399 -17 b 765 336 629 -17 765 147 b 399 688 765 525 629 688 b 33 336 171 688 33 525 b 399 -17 33 147 171 -17 z m 399 172 b 254 336 306 172 254 246 b 399 499 254 425 306 499 b 546 336 493 499 546 425 b 399 172 546 246 493 172 z "},"ő":{"ha":800,"x_min":0,"x_max":0,"o":"m 511 972 l 347 972 l 231 772 l 351 772 z m 724 972 l 558 972 l 443 772 l 564 772 z m 399 -17 b 765 336 629 -17 765 147 b 399 688 765 525 629 688 b 33 336 171 688 33 525 b 399 -17 33 147 171 -17 z m 399 172 b 254 336 306 172 254 246 b 399 499 254 425 306 499 b 546 336 493 499 546 425 b 399 172 546 246 493 172 z "},"ō":{"ha":800,"x_min":0,"x_max":0,"o":"m 640 772 l 640 890 l 156 890 l 156 772 z m 399 -17 b 765 336 629 -17 765 147 b 399 688 765 525 629 688 b 33 336 171 688 33 525 b 399 -17 33 147 171 -17 z m 399 172 b 254 336 306 172 254 246 b 399 499 254 425 306 499 b 546 336 493 499 546 425 b 399 172 546 246 493 172 z "},"ø":{"ha":800,"x_min":0,"x_max":0,"o":"m 710 686 l 638 738 l 574 650 b 399 688 524 674 465 688 b 33 336 171 688 33 525 b 153 68 33 231 76 133 l 94 -14 l 168 -67 l 229 19 b 399 -17 278 -4 335 -17 b 765 336 629 -17 765 147 b 649 601 765 440 724 536 z m 254 336 b 399 499 254 425 306 499 b 457 488 421 499 440 494 l 278 240 b 254 336 263 267 254 300 z m 399 172 b 346 181 379 172 363 175 l 524 428 b 546 336 539 401 546 369 b 399 172 546 246 493 172 z "},"ǿ":{"ha":800,"x_min":0,"x_max":0,"o":"m 497 972 l 321 772 l 465 772 l 686 972 z m 710 686 l 638 738 l 574 650 b 399 688 524 674 465 688 b 33 336 171 688 33 525 b 153 68 33 231 76 133 l 94 -14 l 168 -67 l 229 19 b 399 -17 278 -4 335 -17 b 765 336 629 -17 765 147 b 649 601 765 440 724 536 z m 254 336 b 399 499 254 425 306 499 b 457 488 421 499 440 494 l 278 240 b 254 336 263 267 254 300 z m 399 172 b 346 181 379 172 363 175 l 524 428 b 546 336 539 401 546 369 b 399 172 546 246 493 172 z "},"õ":{"ha":800,"x_min":0,"x_max":0,"o":"m 368 817 b 475 769 393 796 422 769 b 632 956 578 769 632 833 l 524 956 b 482 888 524 908 504 888 b 432 917 463 888 449 901 b 325 964 407 938 378 964 b 168 778 222 964 168 901 l 276 778 b 318 846 276 825 296 846 b 368 817 338 846 351 832 z m 399 -17 b 765 336 629 -17 765 147 b 399 688 765 525 629 688 b 33 336 171 688 33 525 b 399 -17 33 147 171 -17 z m 399 172 b 254 336 306 172 254 246 b 399 499 254 425 306 499 b 546 336 493 499 546 425 b 399 172 546 246 493 172 z "},"ǫ":{"ha":800,"x_min":0,"x_max":0,"o":"m 478 -10 b 765 336 660 24 765 169 b 399 688 765 525 629 688 b 33 336 171 688 33 525 b 331 -11 33 167 144 18 b 208 -142 251 -44 208 -86 b 379 -258 208 -229 301 -258 b 514 -232 436 -258 475 -253 l 478 -126 b 442 -135 467 -132 454 -135 b 394 -93 417 -135 394 -119 b 478 -10 394 -60 421 -28 z m 254 336 b 399 499 254 425 306 499 b 546 336 493 499 546 425 b 399 172 546 246 493 172 b 254 336 306 172 254 246 z "},"ọ":{"ha":800,"x_min":0,"x_max":0,"o":"m 399 -17 b 765 336 629 -17 765 147 b 399 688 765 525 629 688 b 33 336 171 688 33 525 b 399 -17 33 147 171 -17 z m 399 172 b 254 336 306 172 254 246 b 399 499 254 425 306 499 b 546 336 493 499 546 425 b 399 172 546 246 493 172 z m 292 -167 b 400 -275 292 -226 340 -275 b 508 -167 458 -275 508 -226 b 400 -57 508 -107 458 -57 b 292 -167 340 -57 292 -107 z "},"ỏ":{"ha":800,"x_min":0,"x_max":0,"o":"m 333 861 b 389 907 343 888 361 907 b 436 857 413 907 436 893 b 403 772 436 826 426 799 l 515 772 b 540 863 531 801 540 826 b 389 994 540 956 468 994 b 240 892 322 994 264 961 z m 399 -17 b 765 336 629 -17 765 147 b 399 688 765 525 629 688 b 33 336 171 688 33 525 b 399 -17 33 147 171 -17 z m 399 172 b 254 336 306 172 254 246 b 399 499 254 425 306 499 b 546 336 493 499 546 425 b 399 172 546 246 493 172 z "},"ố":{"ha":800,"x_min":0,"x_max":0,"o":"m 946 1111 l 757 1111 l 581 911 l 725 911 z m 622 772 l 493 972 l 306 972 l 181 772 l 307 772 l 399 885 l 494 772 z m 399 -17 b 765 336 629 -17 765 147 b 399 688 765 525 629 688 b 33 336 171 688 33 525 b 399 -17 33 147 171 -17 z m 399 172 b 254 336 306 172 254 246 b 399 499 254 425 306 499 b 546 336 493 499 546 425 b 399 172 546 246 493 172 z "},"ồ":{"ha":800,"x_min":0,"x_max":0,"o":"m 226 911 l 50 1111 l -139 1111 l 82 911 z m 622 772 l 493 972 l 306 972 l 181 772 l 307 772 l 399 885 l 494 772 z m 399 -17 b 765 336 629 -17 765 147 b 399 688 765 525 629 688 b 33 336 171 688 33 525 b 399 -17 33 147 171 -17 z m 399 172 b 254 336 306 172 254 246 b 399 499 254 425 306 499 b 546 336 493 499 546 425 b 399 172 546 246 493 172 z "},"ổ":{"ha":800,"x_min":0,"x_max":0,"o":"m 511 999 b 567 1044 521 1025 539 1044 b 614 994 590 1044 614 1031 b 581 910 614 964 604 936 l 693 910 b 718 1000 708 939 718 964 b 567 1132 718 1093 646 1132 b 418 1029 500 1132 442 1099 z m 622 772 l 493 972 l 306 972 l 181 772 l 307 772 l 399 885 l 494 772 z m 399 -17 b 765 336 629 -17 765 147 b 399 688 765 525 629 688 b 33 336 171 688 33 525 b 399 -17 33 147 171 -17 z m 399 172 b 254 336 306 172 254 246 b 399 499 254 425 306 499 b 546 336 493 499 546 425 b 399 172 546 246 493 172 z "},"ỗ":{"ha":800,"x_min":0,"x_max":0,"o":"m 368 1042 b 475 994 393 1021 422 994 b 632 1181 578 994 632 1058 l 524 1181 b 482 1113 524 1133 504 1113 b 432 1142 463 1113 449 1126 b 325 1189 407 1163 378 1189 b 168 1003 222 1189 168 1126 l 276 1003 b 318 1071 276 1050 296 1071 b 368 1042 338 1071 351 1057 z m 622 772 l 493 972 l 306 972 l 181 772 l 307 772 l 399 885 l 494 772 z m 399 -17 b 765 336 629 -17 765 147 b 399 688 765 525 629 688 b 33 336 171 688 33 525 b 399 -17 33 147 171 -17 z m 399 172 b 254 336 306 172 254 246 b 399 499 254 425 306 499 b 546 336 493 499 546 425 b 399 172 546 246 493 172 z "},"ộ":{"ha":800,"x_min":0,"x_max":0,"o":"m 622 772 l 493 972 l 306 972 l 181 772 l 307 772 l 399 885 l 494 772 z m 399 -17 b 765 336 629 -17 765 147 b 399 688 765 525 629 688 b 33 336 171 688 33 525 b 399 -17 33 147 171 -17 z m 399 172 b 254 336 306 172 254 246 b 399 499 254 425 306 499 b 546 336 493 499 546 425 b 399 172 546 246 493 172 z m 292 -167 b 400 -275 292 -226 340 -275 b 508 -167 458 -275 508 -226 b 400 -57 508 -107 458 -57 b 292 -167 340 -57 292 -107 z "},"ơ":{"ha":800,"x_min":0,"x_max":0,"o":"m 783 740 b 688 850 783 810 739 850 b 601 764 640 850 601 811 b 675 686 601 717 633 686 b 696 690 683 686 692 688 b 638 610 689 663 664 631 b 399 688 578 658 496 688 b 33 336 171 688 33 525 b 399 -17 33 147 171 -17 b 765 336 629 -17 765 147 b 690 557 765 419 739 496 b 783 740 749 604 783 668 z m 399 172 b 254 336 306 172 254 246 b 399 499 254 425 306 499 b 546 336 493 499 546 425 b 399 172 546 246 493 172 z "},"ớ":{"ha":800,"x_min":0,"x_max":0,"o":"m 497 972 l 321 772 l 465 772 l 686 972 z m 783 740 b 688 850 783 810 739 850 b 601 764 640 850 601 811 b 675 686 601 717 633 686 b 696 690 683 686 692 688 b 638 610 689 663 664 631 b 399 688 578 658 496 688 b 33 336 171 688 33 525 b 399 -17 33 147 171 -17 b 765 336 629 -17 765 147 b 690 557 765 419 739 496 b 783 740 749 604 783 668 z m 399 172 b 254 336 306 172 254 246 b 399 499 254 425 306 499 b 546 336 493 499 546 425 b 399 172 546 246 493 172 z "},"ờ":{"ha":800,"x_min":0,"x_max":0,"o":"m 297 972 l 108 972 l 329 772 l 474 772 z m 783 740 b 688 850 783 810 739 850 b 601 764 640 850 601 811 b 675 686 601 717 633 686 b 696 690 683 686 692 688 b 638 610 689 663 664 631 b 399 688 578 658 496 688 b 33 336 171 688 33 525 b 399 -17 33 147 171 -17 b 765 336 629 -17 765 147 b 690 557 765 419 739 496 b 783 740 749 604 783 668 z m 399 172 b 254 336 306 172 254 246 b 399 499 254 425 306 499 b 546 336 493 499 546 425 b 399 172 546 246 493 172 z "},"ở":{"ha":800,"x_min":0,"x_max":0,"o":"m 389 907 b 436 857 413 907 436 893 b 403 772 436 826 426 799 l 515 772 b 540 863 531 801 540 826 b 389 994 540 956 468 994 b 240 892 322 994 264 961 l 333 861 b 389 907 343 888 361 907 z m 783 740 b 688 850 783 810 739 850 b 601 764 640 850 601 811 b 675 686 601 717 633 686 b 696 690 683 686 692 688 b 638 610 689 663 664 631 b 399 688 578 658 496 688 b 33 336 171 688 33 525 b 399 -17 33 147 171 -17 b 765 336 629 -17 765 147 b 690 557 765 419 739 496 b 783 740 749 604 783 668 z m 399 172 b 254 336 306 172 254 246 b 399 499 254 425 306 499 b 546 336 493 499 546 425 b 399 172 546 246 493 172 z "},"ỡ":{"ha":800,"x_min":0,"x_max":0,"o":"m 318 846 b 368 817 338 846 351 832 b 475 769 393 796 422 769 b 632 956 578 769 632 833 l 524 956 b 482 888 524 908 504 888 b 432 917 463 888 449 901 b 325 964 407 938 378 964 b 168 778 222 964 168 901 l 276 778 b 318 846 276 825 296 846 z m 783 740 b 688 850 783 810 739 850 b 601 764 640 850 601 811 b 675 686 601 717 633 686 b 696 690 683 686 692 688 b 638 610 689 663 664 631 b 399 688 578 658 496 688 b 33 336 171 688 33 525 b 399 -17 33 147 171 -17 b 765 336 629 -17 765 147 b 690 557 765 419 739 496 b 783 740 749 604 783 668 z m 399 172 b 254 336 306 172 254 246 b 399 499 254 425 306 499 b 546 336 493 499 546 425 b 399 172 546 246 493 172 z "},"ợ":{"ha":800,"x_min":0,"x_max":0,"o":"m 783 740 b 688 850 783 810 739 850 b 601 764 640 850 601 811 b 675 686 601 717 633 686 b 696 690 683 686 692 688 b 638 610 689 663 664 631 b 399 688 578 658 496 688 b 33 336 171 688 33 525 b 399 -17 33 147 171 -17 b 765 336 629 -17 765 147 b 690 557 765 419 739 496 b 783 740 749 604 783 668 z m 399 172 b 254 336 306 172 254 246 b 399 499 254 425 306 499 b 546 336 493 499 546 425 b 399 172 546 246 493 172 z m 399 -57 b 290 -167 339 -57 290 -107 b 399 -275 290 -226 339 -275 b 507 -167 457 -275 507 -226 b 399 -57 507 -107 457 -57 z "},"œ":{"ha":1272,"x_min":0,"x_max":0,"o":"m 1244 268 l 1244 314 b 903 688 1244 542 1101 688 b 654 560 776 688 701 619 b 399 688 601 618 526 688 b 33 336 171 688 33 525 b 399 -17 33 147 171 -17 b 653 110 526 -17 603 50 b 911 -17 706 50 776 -17 b 1193 72 1014 -17 1125 13 l 1099 204 b 940 149 1060 169 997 149 b 767 268 838 149 783 208 z m 765 407 b 901 524 772 457 808 524 b 1040 407 1000 524 1035 454 z m 399 499 b 546 336 486 499 546 436 b 399 171 546 235 486 171 b 254 336 314 171 254 235 b 399 499 254 436 314 499 z "},"ṗ":{"ha":819,"x_min":0,"x_max":0,"o":"m 344 864 b 453 756 344 804 393 756 b 561 864 511 756 561 804 b 453 974 561 924 511 974 b 344 864 393 974 344 924 z m 292 79 b 490 -17 347 13 415 -17 b 785 336 658 -17 785 108 b 490 688 785 563 658 688 b 292 593 414 688 344 657 l 292 671 l 78 671 l 78 -256 l 292 -256 z m 567 336 b 419 172 567 235 503 172 b 292 233 374 172 318 199 l 292 438 b 419 499 318 474 374 499 b 567 336 503 499 567 436 z "},"ŕ":{"ha":521,"x_min":0,"x_max":0,"o":"m 576 972 l 388 972 l 211 772 l 356 772 z m 292 0 l 292 425 b 449 488 319 464 393 488 b 501 481 471 488 489 485 l 501 688 b 292 586 421 688 336 640 l 292 671 l 78 671 l 78 0 z "},"ř":{"ha":521,"x_min":0,"x_max":0,"o":"m 383 772 l 508 972 l 381 972 l 289 860 l 193 972 l 67 972 l 196 772 z m 292 0 l 292 425 b 449 488 319 464 393 488 b 501 481 471 488 489 485 l 501 688 b 292 586 421 688 336 640 l 292 671 l 78 671 l 78 0 z "},"ŗ":{"ha":521,"x_min":0,"x_max":0,"o":"m 292 0 l 292 425 b 449 488 319 464 393 488 b 501 481 471 488 489 485 l 501 688 b 292 586 421 688 336 640 l 292 671 l 78 671 l 78 0 z m 175 -411 b 297 -193 249 -358 297 -281 b 189 -68 297 -114 246 -68 b 92 -167 136 -68 92 -112 b 174 -254 92 -219 128 -254 b 197 -250 183 -254 193 -253 b 107 -357 186 -290 142 -337 z "},"ś":{"ha":672,"x_min":0,"x_max":0,"o":"m 621 972 l 432 972 l 256 772 l 400 772 z m 21 86 b 335 -17 92 24 215 -17 b 640 206 528 -17 640 78 b 357 431 640 383 471 411 b 250 485 286 443 250 454 b 335 531 250 514 285 531 b 532 457 415 531 492 496 l 614 599 b 333 688 542 651 446 688 b 46 467 147 688 46 585 b 321 253 46 296 207 272 b 436 194 390 242 436 229 b 346 144 436 165 410 144 b 110 233 267 144 160 189 z "},"š":{"ha":672,"x_min":0,"x_max":0,"o":"m 428 772 l 553 972 l 425 972 l 333 860 l 238 972 l 111 972 l 240 772 z m 21 86 b 335 -17 92 24 215 -17 b 640 206 528 -17 640 78 b 357 431 640 383 471 411 b 250 485 286 443 250 454 b 335 531 250 514 285 531 b 532 457 415 531 492 496 l 614 599 b 333 688 542 651 446 688 b 46 467 147 688 46 585 b 321 253 46 296 207 272 b 436 194 390 242 436 229 b 346 144 436 165 410 144 b 110 233 267 144 160 189 z "},"ŝ":{"ha":672,"x_min":0,"x_max":0,"o":"m 557 772 l 428 972 l 240 972 l 115 772 l 242 772 l 333 885 l 429 772 z m 21 86 b 335 -17 92 24 215 -17 b 640 206 528 -17 640 78 b 357 431 640 383 471 411 b 250 485 286 443 250 454 b 335 531 250 514 285 531 b 532 457 415 531 492 496 l 614 599 b 333 688 542 651 446 688 b 46 467 147 688 46 585 b 321 253 46 296 207 272 b 436 194 390 242 436 229 b 346 144 436 165 410 144 b 110 233 267 144 160 189 z "},"ş":{"ha":672,"x_min":0,"x_max":0,"o":"m 640 206 b 357 431 640 383 471 411 b 250 485 286 443 250 454 b 335 531 250 514 285 531 b 532 457 415 531 492 496 l 614 599 b 333 688 542 651 446 688 b 46 467 147 688 46 585 b 321 253 46 296 207 272 b 436 194 390 242 436 229 b 346 144 436 165 410 144 b 110 233 267 144 160 189 l 21 86 b 276 -14 81 33 176 -3 l 244 -97 l 318 -139 b 358 -121 328 -129 342 -121 b 393 -150 381 -121 393 -132 b 328 -190 393 -178 361 -190 b 214 -149 290 -190 250 -175 l 175 -229 b 333 -275 204 -253 264 -275 b 493 -153 421 -275 493 -231 b 399 -54 493 -96 450 -54 b 351 -68 381 -54 365 -60 l 374 -15 b 640 206 543 -4 640 86 z "},"ș":{"ha":672,"x_min":0,"x_max":0,"o":"m 21 86 b 335 -17 92 24 215 -17 b 640 206 528 -17 640 78 b 357 431 640 383 471 411 b 250 485 286 443 250 454 b 335 531 250 514 285 531 b 532 457 415 531 492 496 l 614 599 b 333 688 542 651 446 688 b 46 467 147 688 46 585 b 321 253 46 296 207 272 b 436 194 390 242 436 229 b 346 144 436 165 410 144 b 110 233 267 144 160 189 z m 319 -411 b 442 -193 393 -358 442 -281 b 333 -68 442 -114 390 -68 b 236 -167 281 -68 236 -112 b 318 -254 236 -219 272 -254 b 342 -250 328 -254 338 -253 b 251 -357 331 -290 286 -337 z "},"ṡ":{"ha":672,"x_min":0,"x_max":0,"o":"m 225 864 b 333 756 225 804 274 756 b 442 864 392 756 442 804 b 333 974 442 924 392 974 b 225 864 274 974 225 924 z m 21 86 b 335 -17 92 24 215 -17 b 640 206 528 -17 640 78 b 357 431 640 383 471 411 b 250 485 286 443 250 454 b 335 531 250 514 285 531 b 532 457 415 531 492 496 l 614 599 b 333 688 542 651 446 688 b 46 467 147 688 46 585 b 321 253 46 296 207 272 b 436 194 390 242 436 229 b 346 144 436 165 410 144 b 110 233 267 144 160 189 z "},"ß":{"ha":818,"x_min":0,"x_max":0,"o":"m 586 493 b 714 685 664 529 714 597 b 401 940 714 836 571 940 b 79 619 219 940 79 808 l 79 0 l 293 0 l 293 617 b 407 751 293 707 340 751 b 500 661 457 751 500 719 b 372 560 500 610 465 560 l 372 396 b 561 272 501 399 561 343 b 463 164 561 200 515 164 b 382 185 433 164 404 172 l 340 28 b 514 -17 376 6 436 -17 b 779 249 656 -17 779 79 b 586 493 779 357 703 458 z "},"ſ":{"ha":485,"x_min":0,"x_max":0,"o":"m 338 0 l 338 699 b 411 778 338 750 367 778 b 467 764 431 778 450 774 l 506 910 b 364 940 472 928 422 940 b 124 704 225 940 124 847 l 124 671 l 13 671 l 13 485 l 124 485 l 124 0 z "},"ŧ":{"ha":500,"x_min":0,"x_max":0,"o":"m 449 189 b 394 172 442 181 418 172 b 335 240 357 172 335 201 l 335 278 l 429 278 l 429 396 l 335 396 l 335 485 l 471 485 l 471 671 l 335 671 l 335 854 l 122 854 l 122 671 l 11 671 l 11 485 l 122 485 l 122 396 l 11 396 l 11 278 l 122 278 l 122 181 b 332 -17 122 51 196 -17 b 490 28 411 -17 464 3 z "},"ť":{"ha":574,"x_min":0,"x_max":0,"o":"m 488 733 b 611 951 563 786 611 864 b 501 1076 611 1031 558 1076 b 404 978 449 1076 404 1032 b 486 890 404 925 442 890 b 511 894 496 890 507 892 b 419 788 500 854 454 806 z m 332 -17 b 490 28 411 -17 464 3 l 449 189 b 394 172 442 181 418 172 b 335 240 357 172 335 201 l 335 485 l 471 485 l 471 671 l 335 671 l 335 854 l 122 854 l 122 671 l 11 671 l 11 485 l 122 485 l 122 181 b 332 -17 122 51 196 -17 z "},"ţ":{"ha":500,"x_min":0,"x_max":0,"o":"m 332 -17 b 490 28 411 -17 464 3 l 449 189 b 394 172 442 181 418 172 b 335 240 357 172 335 201 l 335 485 l 471 485 l 471 671 l 335 671 l 335 854 l 122 854 l 122 671 l 11 671 l 11 485 l 122 485 l 122 181 b 332 -17 122 51 196 -17 z m 236 -411 b 358 -193 310 -358 358 -281 b 250 -68 358 -114 307 -68 b 153 -167 197 -68 153 -112 b 235 -254 153 -219 189 -254 b 258 -250 244 -254 254 -253 b 168 -357 247 -290 203 -337 z "},"ț":{"ha":500,"x_min":0,"x_max":0,"o":"m 332 -17 b 490 28 411 -17 464 3 l 449 189 b 394 172 442 181 418 172 b 335 240 357 172 335 201 l 335 485 l 471 485 l 471 671 l 335 671 l 335 854 l 122 854 l 122 671 l 11 671 l 11 485 l 122 485 l 122 181 b 332 -17 122 51 196 -17 z m 236 -411 b 358 -193 310 -358 358 -281 b 250 -68 358 -114 307 -68 b 153 -167 197 -68 153 -112 b 235 -254 153 -219 189 -254 b 258 -250 244 -254 254 -253 b 168 -357 247 -290 203 -337 z "},"ṫ":{"ha":500,"x_min":0,"x_max":0,"o":"m 122 1096 b 231 988 122 1036 171 988 b 339 1096 289 988 339 1036 b 231 1206 339 1156 289 1206 b 122 1096 171 1206 122 1156 z m 332 -17 b 490 28 411 -17 464 3 l 449 189 b 394 172 442 181 418 172 b 335 240 357 172 335 201 l 335 485 l 471 485 l 471 671 l 335 671 l 335 854 l 122 854 l 122 671 l 11 671 l 11 485 l 122 485 l 122 181 b 332 -17 122 51 196 -17 z "},"ú":{"ha":822,"x_min":0,"x_max":0,"o":"m 699 972 l 510 972 l 333 772 l 478 772 z m 744 0 l 744 671 l 531 671 l 531 238 b 403 172 506 206 464 172 b 292 281 333 172 292 200 l 292 671 l 78 671 l 78 193 b 299 -17 78 69 146 -17 b 531 81 411 -17 489 33 l 531 0 z "},"ŭ":{"ha":822,"x_min":0,"x_max":0,"o":"m 411 765 b 654 888 511 765 599 813 l 563 964 b 411 883 528 913 475 883 b 258 964 344 883 293 917 l 167 888 b 411 765 224 813 313 765 z m 744 0 l 744 671 l 531 671 l 531 238 b 403 172 506 206 464 172 b 292 281 333 172 292 200 l 292 671 l 78 671 l 78 193 b 299 -17 78 69 146 -17 b 531 81 411 -17 489 33 l 531 0 z "},"û":{"ha":822,"x_min":0,"x_max":0,"o":"m 635 772 l 506 972 l 318 972 l 193 772 l 319 772 l 411 885 l 507 772 z m 744 0 l 744 671 l 531 671 l 531 238 b 403 172 506 206 464 172 b 292 281 333 172 292 200 l 292 671 l 78 671 l 78 193 b 299 -17 78 69 146 -17 b 531 81 411 -17 489 33 l 531 0 z "},"ü":{"ha":822,"x_min":0,"x_max":0,"o":"m 263 756 b 371 864 324 756 371 803 b 263 974 371 925 324 974 b 153 864 201 974 153 925 b 263 756 153 803 201 756 z m 560 756 b 669 864 619 756 669 803 b 560 974 669 925 619 974 b 450 864 499 974 450 925 b 560 756 450 803 499 756 z m 744 0 l 744 671 l 531 671 l 531 238 b 403 172 506 206 464 172 b 292 281 333 172 292 200 l 292 671 l 78 671 l 78 193 b 299 -17 78 69 146 -17 b 531 81 411 -17 489 33 l 531 0 z "},"ù":{"ha":822,"x_min":0,"x_max":0,"o":"m 486 772 l 310 972 l 121 972 l 342 772 z m 744 0 l 744 671 l 531 671 l 531 238 b 403 172 506 206 464 172 b 292 281 333 172 292 200 l 292 671 l 78 671 l 78 193 b 299 -17 78 69 146 -17 b 531 81 411 -17 489 33 l 531 0 z "},"ű":{"ha":822,"x_min":0,"x_max":0,"o":"m 522 972 l 358 972 l 242 772 l 363 772 z m 735 972 l 569 972 l 454 772 l 575 772 z m 744 0 l 744 671 l 531 671 l 531 238 b 403 172 506 206 464 172 b 292 281 333 172 292 200 l 292 671 l 78 671 l 78 193 b 299 -17 78 69 146 -17 b 531 81 411 -17 489 33 l 531 0 z "},"ū":{"ha":822,"x_min":0,"x_max":0,"o":"m 653 772 l 653 890 l 168 890 l 168 772 z m 744 0 l 744 671 l 531 671 l 531 238 b 403 172 506 206 464 172 b 292 281 333 172 292 200 l 292 671 l 78 671 l 78 193 b 299 -17 78 69 146 -17 b 531 81 411 -17 489 33 l 531 0 z "},"ų":{"ha":822,"x_min":0,"x_max":0,"o":"m 744 671 l 531 671 l 531 238 b 403 172 506 206 464 172 b 292 281 333 172 292 200 l 292 671 l 78 671 l 78 193 b 299 -17 78 69 146 -17 b 531 81 411 -17 489 33 l 531 0 l 589 0 b 436 -142 490 -33 436 -79 b 607 -258 436 -229 529 -258 b 742 -232 664 -258 703 -253 l 706 -126 b 669 -135 694 -132 682 -135 b 622 -93 644 -135 622 -119 b 744 0 622 -53 661 -15 z "},"ů":{"ha":822,"x_min":0,"x_max":0,"o":"m 263 879 b 414 729 263 797 331 729 b 561 879 496 729 561 797 b 414 1031 561 963 496 1031 b 263 879 331 1031 263 963 z m 468 879 b 414 824 468 849 444 824 b 357 879 382 824 357 849 b 414 936 357 911 382 936 b 468 879 444 936 468 911 z m 744 0 l 744 671 l 531 671 l 531 238 b 403 172 506 206 464 172 b 292 281 333 172 292 200 l 292 671 l 78 671 l 78 193 b 299 -17 78 69 146 -17 b 531 81 411 -17 489 33 l 531 0 z "},"ũ":{"ha":822,"x_min":0,"x_max":0,"o":"m 381 817 b 488 769 406 796 435 769 b 644 956 590 769 644 833 l 536 956 b 494 888 536 908 517 888 b 444 917 475 888 461 901 b 338 964 419 938 390 964 b 181 778 235 964 181 901 l 289 778 b 331 846 289 825 308 846 b 381 817 350 846 364 832 z m 744 0 l 744 671 l 531 671 l 531 238 b 403 172 506 206 464 172 b 292 281 333 172 292 200 l 292 671 l 78 671 l 78 193 b 299 -17 78 69 146 -17 b 531 81 411 -17 489 33 l 531 0 z "},"ụ":{"ha":822,"x_min":0,"x_max":0,"o":"m 744 0 l 744 671 l 531 671 l 531 238 b 403 172 506 206 464 172 b 292 281 333 172 292 200 l 292 671 l 78 671 l 78 193 b 299 -17 78 69 146 -17 b 531 81 411 -17 489 33 l 531 0 z m 303 -167 b 411 -275 303 -226 351 -275 b 519 -167 469 -275 519 -226 b 411 -57 519 -107 469 -57 b 303 -167 351 -57 303 -107 z "},"ư":{"ha":822,"x_min":0,"x_max":0,"o":"m 851 763 b 754 874 851 833 806 874 b 668 788 707 874 668 835 b 742 708 668 740 700 708 b 763 713 750 708 760 710 b 742 671 760 699 751 685 l 531 671 l 531 238 b 403 172 506 206 464 172 b 292 281 333 172 292 200 l 292 671 l 78 671 l 78 193 b 299 -17 78 69 146 -17 b 531 81 411 -17 489 33 l 531 0 l 744 0 l 744 571 b 851 763 817 622 851 696 z "},"ủ":{"ha":822,"x_min":0,"x_max":0,"o":"m 346 861 b 401 907 356 888 374 907 b 449 857 425 907 449 893 b 415 772 449 826 439 799 l 528 772 b 553 863 543 801 553 826 b 401 994 553 956 481 994 b 253 892 335 994 276 961 z m 744 0 l 744 671 l 531 671 l 531 238 b 403 172 506 206 464 172 b 292 281 333 172 292 200 l 292 671 l 78 671 l 78 193 b 299 -17 78 69 146 -17 b 531 81 411 -17 489 33 l 531 0 z "},"ứ":{"ha":822,"x_min":0,"x_max":0,"o":"m 510 972 l 333 772 l 478 772 l 699 972 z m 851 763 b 754 874 851 833 806 874 b 668 788 707 874 668 835 b 742 708 668 740 700 708 b 763 713 750 708 760 710 b 742 671 760 699 751 685 l 531 671 l 531 238 b 403 172 506 206 464 172 b 292 281 333 172 292 200 l 292 671 l 78 671 l 78 193 b 299 -17 78 69 146 -17 b 531 81 411 -17 489 33 l 531 0 l 744 0 l 744 571 b 851 763 817 622 851 696 z "},"ừ":{"ha":822,"x_min":0,"x_max":0,"o":"m 310 972 l 121 972 l 342 772 l 486 772 z m 851 763 b 754 874 851 833 806 874 b 668 788 707 874 668 835 b 742 708 668 740 700 708 b 763 713 750 708 760 710 b 742 671 760 699 751 685 l 531 671 l 531 238 b 403 172 506 206 464 172 b 292 281 333 172 292 200 l 292 671 l 78 671 l 78 193 b 299 -17 78 69 146 -17 b 531 81 411 -17 489 33 l 531 0 l 744 0 l 744 571 b 851 763 817 622 851 696 z "},"ử":{"ha":822,"x_min":0,"x_max":0,"o":"m 401 907 b 449 857 425 907 449 893 b 415 772 449 826 439 799 l 528 772 b 553 863 543 801 553 826 b 401 994 553 956 481 994 b 253 892 335 994 276 961 l 346 861 b 401 907 356 888 374 907 z m 851 763 b 754 874 851 833 806 874 b 668 788 707 874 668 835 b 742 708 668 740 700 708 b 763 713 750 708 760 710 b 742 671 760 699 751 685 l 531 671 l 531 238 b 403 172 506 206 464 172 b 292 281 333 172 292 200 l 292 671 l 78 671 l 78 193 b 299 -17 78 69 146 -17 b 531 81 411 -17 489 33 l 531 0 l 744 0 l 744 571 b 851 763 817 622 851 696 z "},"ữ":{"ha":822,"x_min":0,"x_max":0,"o":"m 331 846 b 381 817 350 846 364 832 b 488 769 406 796 435 769 b 644 956 590 769 644 833 l 536 956 b 494 888 536 908 517 888 b 444 917 475 888 461 901 b 338 964 419 938 390 964 b 181 778 235 964 181 901 l 289 778 b 331 846 289 825 308 846 z m 851 763 b 754 874 851 833 806 874 b 668 788 707 874 668 835 b 742 708 668 740 700 708 b 763 713 750 708 760 710 b 742 671 760 699 751 685 l 531 671 l 531 238 b 403 172 506 206 464 172 b 292 281 333 172 292 200 l 292 671 l 78 671 l 78 193 b 299 -17 78 69 146 -17 b 531 81 411 -17 489 33 l 531 0 l 744 0 l 744 571 b 851 763 817 622 851 696 z "},"ự":{"ha":822,"x_min":0,"x_max":0,"o":"m 851 763 b 754 874 851 833 806 874 b 668 788 707 874 668 835 b 742 708 668 740 700 708 b 763 713 750 708 760 710 b 742 671 760 699 751 685 l 531 671 l 531 238 b 403 172 506 206 464 172 b 292 281 333 172 292 200 l 292 671 l 78 671 l 78 193 b 299 -17 78 69 146 -17 b 531 81 411 -17 489 33 l 531 0 l 744 0 l 744 571 b 851 763 817 622 851 696 z m 411 -57 b 303 -167 351 -57 303 -107 b 411 -275 303 -226 351 -275 b 519 -167 469 -275 519 -226 b 411 -57 519 -107 469 -57 z "},"ẃ":{"ha":1093,"x_min":0,"x_max":0,"o":"m 833 972 l 644 972 l 468 772 l 613 772 z m 903 0 l 1101 671 l 881 671 l 774 260 l 642 671 l 451 671 l 319 260 l 211 671 l -8 671 l 190 0 l 421 0 l 546 415 l 672 0 z "},"ŵ":{"ha":1093,"x_min":0,"x_max":0,"o":"m 769 772 l 640 972 l 453 972 l 328 772 l 454 772 l 546 885 l 642 772 z m 903 0 l 1101 671 l 881 671 l 774 260 l 642 671 l 451 671 l 319 260 l 211 671 l -8 671 l 190 0 l 421 0 l 546 415 l 672 0 z "},"ẅ":{"ha":1093,"x_min":0,"x_max":0,"o":"m 399 756 b 507 864 460 756 507 803 b 399 974 507 925 460 974 b 289 864 338 974 289 925 b 399 756 289 803 338 756 z m 696 756 b 806 864 756 756 806 803 b 696 974 806 925 756 974 b 586 864 635 974 586 925 b 696 756 586 803 635 756 z m 903 0 l 1101 671 l 881 671 l 774 260 l 642 671 l 451 671 l 319 260 l 211 671 l -8 671 l 190 0 l 421 0 l 546 415 l 672 0 z "},"ẁ":{"ha":1093,"x_min":0,"x_max":0,"o":"m 621 772 l 444 972 l 256 972 l 476 772 z m 903 0 l 1101 671 l 881 671 l 774 260 l 642 671 l 451 671 l 319 260 l 211 671 l -8 671 l 190 0 l 421 0 l 546 415 l 672 0 z "},"ý":{"ha":728,"x_min":0,"x_max":0,"o":"m 650 972 l 461 972 l 285 772 l 429 772 z m 64 -261 b 156 -272 86 -268 136 -272 b 439 -96 283 -269 385 -237 l 742 671 l 515 671 l 363 246 l 211 671 l -14 671 l 253 -10 l 238 -46 b 147 -83 226 -74 196 -83 b 94 -71 131 -83 110 -79 z "},"ŷ":{"ha":728,"x_min":0,"x_max":0,"o":"m 586 772 l 457 972 l 269 972 l 144 772 l 271 772 l 363 885 l 458 772 z m 64 -261 b 156 -272 86 -268 136 -272 b 439 -96 283 -269 385 -237 l 742 671 l 515 671 l 363 246 l 211 671 l -14 671 l 253 -10 l 238 -46 b 147 -83 226 -74 196 -83 b 94 -71 131 -83 110 -79 z "},"ÿ":{"ha":728,"x_min":0,"x_max":0,"o":"m 215 756 b 324 864 276 756 324 803 b 215 974 324 925 276 974 b 106 864 154 974 106 925 b 215 756 106 803 154 756 z m 513 756 b 622 864 572 756 622 803 b 513 974 622 925 572 974 b 403 864 451 974 403 925 b 513 756 403 803 451 756 z m 64 -261 b 156 -272 86 -268 136 -272 b 439 -96 283 -269 385 -237 l 742 671 l 515 671 l 363 246 l 211 671 l -14 671 l 253 -10 l 238 -46 b 147 -83 226 -74 196 -83 b 94 -71 131 -83 110 -79 z "},"ỳ":{"ha":728,"x_min":0,"x_max":0,"o":"m 438 772 l 261 972 l 72 972 l 293 772 z m 64 -261 b 156 -272 86 -268 136 -272 b 439 -96 283 -269 385 -237 l 742 671 l 515 671 l 363 246 l 211 671 l -14 671 l 253 -10 l 238 -46 b 147 -83 226 -74 196 -83 b 94 -71 131 -83 110 -79 z "},"ȳ":{"ha":728,"x_min":0,"x_max":0,"o":"m 604 772 l 604 890 l 119 890 l 119 772 z m 64 -261 b 156 -272 86 -268 136 -272 b 439 -96 283 -269 385 -237 l 742 671 l 515 671 l 363 246 l 211 671 l -14 671 l 253 -10 l 238 -46 b 147 -83 226 -74 196 -83 b 94 -71 131 -83 110 -79 z "},"ỵ":{"ha":728,"x_min":0,"x_max":0,"o":"m 64 -261 b 156 -272 86 -268 136 -272 b 439 -96 283 -269 385 -237 l 742 671 l 515 671 l 363 246 l 211 671 l -14 671 l 253 -10 l 238 -46 b 147 -83 226 -74 196 -83 b 94 -71 131 -83 110 -79 z m 254 -389 b 363 -497 254 -449 303 -497 b 471 -389 421 -497 471 -449 b 363 -279 471 -329 421 -279 b 254 -389 303 -279 254 -329 z "},"ỷ":{"ha":728,"x_min":0,"x_max":0,"o":"m 297 861 b 353 907 307 888 325 907 b 400 857 376 907 400 893 b 367 772 400 826 390 799 l 479 772 b 504 863 494 801 504 826 b 353 994 504 956 432 994 b 204 892 286 994 228 961 z m 64 -261 b 156 -272 86 -268 136 -272 b 439 -96 283 -269 385 -237 l 742 671 l 515 671 l 363 246 l 211 671 l -14 671 l 253 -10 l 238 -46 b 147 -83 226 -74 196 -83 b 94 -71 131 -83 110 -79 z "},"ỹ":{"ha":728,"x_min":0,"x_max":0,"o":"m 332 817 b 439 769 357 796 386 769 b 596 956 542 769 596 833 l 488 956 b 446 888 488 908 468 888 b 396 917 426 888 413 901 b 289 964 371 938 342 964 b 132 778 186 964 132 901 l 240 778 b 282 846 240 825 260 846 b 332 817 301 846 315 832 z m 64 -261 b 156 -272 86 -268 136 -272 b 439 -96 283 -269 385 -237 l 742 671 l 515 671 l 363 246 l 211 671 l -14 671 l 253 -10 l 238 -46 b 147 -83 226 -74 196 -83 b 94 -71 131 -83 110 -79 z "},"ź":{"ha":671,"x_min":0,"x_max":0,"o":"m 622 972 l 433 972 l 257 772 l 401 772 z m 618 0 l 618 185 l 338 185 l 613 519 l 613 671 l 53 671 l 53 485 l 322 485 l 53 157 l 53 0 z "},"ž":{"ha":671,"x_min":0,"x_max":0,"o":"m 429 772 l 554 972 l 426 972 l 335 860 l 239 972 l 113 972 l 242 772 z m 618 0 l 618 185 l 338 185 l 613 519 l 613 671 l 53 671 l 53 485 l 322 485 l 53 157 l 53 0 z "},"ż":{"ha":671,"x_min":0,"x_max":0,"o":"m 226 864 b 335 756 226 804 275 756 b 443 864 393 756 443 804 b 335 974 443 924 393 974 b 226 864 275 974 226 924 z m 618 0 l 618 185 l 338 185 l 613 519 l 613 671 l 53 671 l 53 485 l 322 485 l 53 157 l 53 0 z "},"ð":{"ha":800,"x_min":0,"x_max":0,"o":"m 631 854 l 590 946 l 451 885 b 272 1004 397 925 338 965 l 157 835 b 233 789 182 821 207 806 l 90 726 l 129 631 l 335 722 b 550 494 433 653 521 574 b 328 625 500 578 426 625 b 33 306 164 625 33 496 b 399 -17 33 117 179 -17 b 765 354 629 -17 765 132 b 538 813 765 532 685 679 z m 399 172 b 254 306 306 172 254 231 b 399 438 254 379 306 438 b 546 306 493 438 546 379 b 399 172 546 231 493 172 z "},"þ":{"ha":819,"x_min":0,"x_max":0,"o":"m 292 79 b 490 -17 347 13 415 -17 b 785 336 658 -17 785 108 b 490 688 785 563 658 688 b 292 593 414 688 344 657 l 292 926 l 78 926 l 78 -256 l 292 -256 z m 567 336 b 419 172 567 235 503 172 b 292 233 374 172 318 199 l 292 438 b 419 499 318 474 374 499 b 567 336 503 499 567 436 z "},"´":{"ha":365,"x_min":0,"x_max":0,"o":"m 365 972 l 176 972 l 0 772 l 144 772 z "},"́":{"ha":0,"x_min":0,"x_max":0,"o":"m 0 972 l -189 972 l -365 772 l -221 772 z "},"`":{"ha":365,"x_min":0,"x_max":0,"o":"m 365 772 l 189 972 l 0 972 l 221 772 z "},"̀":{"ha":0,"x_min":0,"x_max":0,"o":"m 0 772 l -176 972 l -365 972 l -144 772 z "},"ˋ":{"ha":365,"x_min":0,"x_max":0,"o":"m 365 772 l 189 972 l 0 972 l 221 772 z "},"ˆ":{"ha":442,"x_min":0,"x_max":0,"o":"m 442 772 l 313 972 l 125 972 l 0 772 l 126 772 l 218 885 l 314 772 z "},"̂":{"ha":0,"x_min":0,"x_max":0,"o":"m 1 772 l -129 972 l -317 972 l -442 772 l -315 772 l -224 885 l -128 772 z "},"ˇ":{"ha":442,"x_min":0,"x_max":0,"o":"m 317 772 l 442 972 l 314 972 l 222 860 l 126 972 l 0 972 l 129 772 z "},"̌":{"ha":0,"x_min":0,"x_max":0,"o":"m -125 772 l 1 972 l -128 972 l -219 860 l -315 972 l -442 972 l -312 772 z "},"˝":{"ha":493,"x_min":0,"x_max":0,"o":"m 281 972 l 117 972 l 0 772 l 121 772 z m 493 972 l 328 972 l 213 772 l 333 772 z "},"̋":{"ha":0,"x_min":0,"x_max":0,"o":"m -212 972 l -376 972 l -493 772 l -372 772 z m 0 972 l -165 972 l -281 772 l -160 772 z "},"̏":{"ha":0,"x_min":0,"x_max":0,"o":"m -212 772 l -328 972 l -493 972 l -333 772 z m 0 772 l -117 972 l -281 972 l -121 772 z "},"¨":{"ha":594,"x_min":0,"x_max":0,"o":"m 149 756 b 257 864 210 756 257 803 b 149 974 257 925 210 974 b 39 864 88 974 39 925 b 149 756 39 803 88 756 z m 446 756 b 556 864 506 756 556 803 b 446 974 556 925 506 974 b 336 864 385 974 336 925 b 446 756 336 803 385 756 z "},"̈":{"ha":0,"x_min":0,"x_max":0,"o":"m -446 756 b -337 864 -385 756 -337 803 b -446 974 -337 925 -385 974 b -556 864 -507 974 -556 925 b -446 756 -556 803 -507 756 z m -149 756 b -39 864 -89 756 -39 803 b -149 974 -39 925 -89 974 b -258 864 -210 974 -258 925 b -149 756 -258 803 -210 756 z "},"˙":{"ha":240,"x_min":0,"x_max":0,"o":"m 13 864 b 121 756 13 804 61 756 b 229 864 179 756 229 804 b 121 974 229 924 179 974 b 13 864 61 974 13 924 z "},"̇":{"ha":0,"x_min":0,"x_max":0,"o":"m -228 864 b -119 756 -228 804 -179 756 b -11 864 -61 756 -11 804 b -119 974 -11 924 -61 974 b -228 864 -179 974 -228 924 z "},"̣":{"ha":0,"x_min":0,"x_max":0,"o":"m -228 -167 b -119 -275 -228 -226 -179 -275 b -11 -167 -61 -275 -11 -226 b -119 -57 -11 -107 -61 -57 b -228 -167 -179 -57 -228 -107 z "},"˚":{"ha":354,"x_min":0,"x_max":0,"o":"m 28 879 b 179 729 28 797 96 729 b 326 879 261 729 326 797 b 179 1031 326 963 261 1031 b 28 879 96 1031 28 963 z m 233 879 b 179 824 233 849 210 824 b 122 879 147 824 122 849 b 179 936 122 911 147 936 b 233 879 210 936 233 911 z "},"̊":{"ha":0,"x_min":0,"x_max":0,"o":"m -326 879 b -175 729 -326 797 -258 729 b -28 879 -93 729 -28 797 b -175 1031 -28 963 -93 1031 b -326 879 -258 1031 -326 963 z m -121 879 b -175 824 -121 849 -144 824 b -232 879 -207 824 -232 849 b -175 936 -232 911 -207 936 b -121 879 -144 936 -121 911 z "},"˜":{"ha":464,"x_min":0,"x_max":0,"o":"m 200 817 b 307 769 225 796 254 769 b 464 956 410 769 464 833 l 356 956 b 314 888 356 908 336 888 b 264 917 294 888 281 901 b 157 964 239 938 210 964 b 0 778 54 964 0 901 l 108 778 b 150 846 108 825 128 846 b 200 817 169 846 183 832 z "},"̃":{"ha":0,"x_min":0,"x_max":0,"o":"m -264 817 b -157 769 -239 796 -210 769 b 0 956 -54 769 0 833 l -108 956 b -150 888 -108 908 -128 888 b -200 917 -169 888 -183 901 b -307 964 -225 938 -254 964 b -464 778 -410 964 -464 901 l -356 778 b -314 846 -356 825 -336 846 b -264 817 -294 846 -281 832 z "},"¯":{"ha":504,"x_min":0,"x_max":0,"o":"m 494 772 l 494 890 l 10 890 l 10 772 z "},"̄":{"ha":0,"x_min":0,"x_max":0,"o":"m -10 772 l -10 890 l -494 890 l -494 772 z "},"̱":{"ha":0,"x_min":0,"x_max":0,"o":"m -10 -226 l -10 -108 l -494 -108 l -494 -226 z "},"‾":{"ha":504,"x_min":0,"x_max":0,"o":"m 494 772 l 494 890 l 10 890 l 10 772 z "},"ˉ":{"ha":504,"x_min":0,"x_max":0,"o":"m 494 772 l 494 890 l 10 890 l 10 772 z "},"˘":{"ha":488,"x_min":0,"x_max":0,"o":"m 244 765 b 488 888 344 765 432 813 l 396 964 b 244 883 361 913 308 883 b 92 964 178 883 126 917 l 0 888 b 244 765 57 813 146 765 z "},"̆":{"ha":0,"x_min":0,"x_max":0,"o":"m -243 765 b 0 888 -143 765 -56 813 l -92 964 b -243 883 -126 913 -179 883 b -396 964 -310 883 -361 917 l -487 888 b -243 765 -431 813 -342 765 z "},"̮":{"ha":0,"x_min":0,"x_max":0,"o":"m -243 -267 b 0 -144 -143 -267 -56 -219 l -92 -69 b -243 -149 -126 -119 -179 -149 b -396 -69 -310 -149 -361 -117 l -487 -144 b -243 -267 -431 -219 -342 -267 z "},"̑":{"ha":0,"x_min":0,"x_max":0,"o":"m -243 964 b -487 842 -342 964 -431 917 l -396 765 b -243 846 -361 814 -310 846 b -92 765 -179 846 -126 817 l 0 842 b -243 964 -56 917 -143 964 z "},"¸":{"ha":318,"x_min":0,"x_max":0,"o":"m 0 -229 b 158 -275 29 -253 89 -275 b 318 -153 246 -275 318 -231 b 224 -54 318 -96 275 -54 b 176 -68 206 -54 190 -60 l 211 15 l 113 15 l 69 -97 l 143 -139 b 183 -121 153 -129 167 -121 b 218 -150 206 -121 218 -132 b 153 -190 218 -178 186 -190 b 39 -149 115 -190 75 -175 z "},"̧":{"ha":0,"x_min":0,"x_max":0,"o":"m -318 -229 b -160 -275 -289 -253 -229 -275 b 0 -153 -72 -275 0 -231 b -94 -54 0 -96 -43 -54 b -142 -68 -112 -54 -128 -60 l -107 15 l -206 15 l -249 -97 l -175 -139 b -135 -121 -165 -129 -151 -121 b -100 -150 -112 -121 -100 -132 b -165 -190 -100 -178 -132 -190 b -279 -149 -203 -190 -243 -175 z "},"˛":{"ha":328,"x_min":0,"x_max":0,"o":"m 279 -126 b 243 -135 268 -132 256 -135 b 196 -93 218 -135 196 -119 b 318 0 196 -53 235 -15 l 194 10 b 10 -142 75 -25 10 -74 b 181 -258 10 -229 103 -258 b 315 -232 238 -258 276 -253 z "},"̨":{"ha":0,"x_min":0,"x_max":0,"o":"m -49 -126 b -85 -135 -60 -132 -72 -135 b -132 -93 -110 -135 -132 -119 b -10 0 -132 -53 -93 -15 l -133 10 b -318 -142 -253 -25 -318 -74 b -147 -258 -318 -229 -225 -258 b -12 -232 -90 -258 -51 -253 z "},"":{"ha":0,"x_min":0,"x_max":0,"o":"m -201 -411 b -79 -193 -128 -358 -79 -281 b -187 -68 -79 -114 -131 -68 b -285 -167 -240 -68 -285 -112 b -203 -254 -285 -219 -249 -254 b -179 -250 -193 -254 -183 -253 b -269 -357 -190 -290 -235 -337 z "},"̦":{"ha":0,"x_min":0,"x_max":0,"o":"m -201 -411 b -79 -193 -128 -358 -79 -281 b -187 -68 -79 -114 -131 -68 b -285 -167 -240 -68 -285 -112 b -203 -254 -285 -219 -249 -254 b -179 -250 -193 -254 -183 -253 b -269 -357 -190 -290 -235 -337 z "},"̉":{"ha":0,"x_min":0,"x_max":0,"o":"m -204 861 b -149 907 -194 888 -176 907 b -101 857 -125 907 -101 893 b -135 772 -101 826 -111 799 l -22 772 b 3 863 -7 801 3 826 b -149 994 3 956 -69 994 b -297 892 -215 994 -274 961 z "},"ʻ":{"ha":372,"x_min":0,"x_max":0,"o":"m 206 942 b 47 660 108 872 47 774 b 190 499 47 558 115 499 b 317 628 258 499 317 557 b 210 742 317 696 269 742 b 178 738 197 742 183 739 b 294 869 193 788 250 847 z "},"Α":{"ha":968,"x_min":0,"x_max":0,"o":"m 983 0 l 633 926 l 333 926 l -15 0 l 244 0 l 292 140 l 676 140 l 724 0 z m 614 342 l 354 342 l 483 718 z "},"Β":{"ha":944,"x_min":0,"x_max":0,"o":"m 625 0 b 897 251 807 0 897 117 b 721 478 897 368 819 463 b 879 690 808 497 879 575 b 608 926 879 807 792 926 l 83 926 l 83 0 z m 322 728 l 554 728 b 636 649 603 728 636 694 b 554 568 636 603 603 568 l 322 568 z m 322 371 l 563 371 b 654 283 621 371 654 331 b 563 199 654 233 619 199 l 322 199 z "},"Γ":{"ha":808,"x_min":0,"x_max":0,"o":"m 322 0 l 322 718 l 763 718 l 763 926 l 83 926 l 83 0 z "},"Δ":{"ha":968,"x_min":0,"x_max":0,"o":"m 983 0 l 633 926 l 333 926 l -15 0 z m 647 208 l 321 208 l 483 690 z "},"∆":{"ha":968,"x_min":0,"x_max":0,"o":"m 983 0 l 633 926 l 333 926 l -15 0 z m 647 208 l 321 208 l 483 690 z "},"Ε":{"ha":818,"x_min":0,"x_max":0,"o":"m 763 0 l 763 201 l 322 201 l 322 368 l 753 368 l 753 571 l 322 571 l 322 725 l 763 725 l 763 926 l 83 926 l 83 0 z "},"Ζ":{"ha":828,"x_min":0,"x_max":0,"o":"m 774 0 l 774 208 l 368 208 l 764 736 l 764 926 l 54 926 l 54 718 l 449 718 l 54 190 l 54 0 z "},"Η":{"ha":1029,"x_min":0,"x_max":0,"o":"m 946 0 l 946 926 l 707 926 l 707 581 l 322 581 l 322 926 l 83 926 l 83 0 l 322 0 l 322 372 l 707 372 l 707 0 z "},"Θ":{"ha":1064,"x_min":0,"x_max":0,"o":"m 36 463 b 532 -17 36 181 249 -17 b 1026 463 815 -17 1026 181 b 532 942 1026 744 815 942 b 36 463 249 942 36 744 z m 783 463 b 532 194 783 313 685 194 b 279 463 378 194 279 313 b 532 731 279 614 378 731 b 783 463 685 731 783 614 z m 721 365 l 721 574 l 342 574 l 342 365 z "},"Ι":{"ha":406,"x_min":0,"x_max":0,"o":"m 322 0 l 322 926 l 83 926 l 83 0 z "},"Κ":{"ha":908,"x_min":0,"x_max":0,"o":"m 921 0 l 542 493 l 901 926 l 607 926 l 322 546 l 322 926 l 83 926 l 83 0 l 322 0 l 322 271 l 385 349 l 628 0 z "},"Λ":{"ha":968,"x_min":0,"x_max":0,"o":"m 983 0 l 633 926 l 333 926 l -15 0 l 256 0 l 483 690 l 713 0 z "},"Μ":{"ha":1218,"x_min":0,"x_max":0,"o":"m 1135 0 l 1135 926 l 803 926 l 608 401 l 415 926 l 83 926 l 83 0 l 322 0 l 322 625 l 556 0 l 661 0 l 896 625 l 896 0 z "},"Ν":{"ha":1028,"x_min":0,"x_max":0,"o":"m 944 0 l 944 926 l 704 926 l 704 393 l 329 926 l 83 926 l 83 0 l 322 0 l 322 560 l 714 0 z "},"Ξ":{"ha":872,"x_min":0,"x_max":0,"o":"m 814 725 l 814 926 l 57 926 l 57 725 z m 806 368 l 806 571 l 67 571 l 67 368 z m 815 0 l 815 201 l 57 201 l 57 0 z "},"Ο":{"ha":1064,"x_min":0,"x_max":0,"o":"m 36 463 b 532 -17 36 181 249 -17 b 1026 463 815 -17 1026 181 b 532 942 1026 744 815 942 b 36 463 249 942 36 744 z m 783 463 b 532 194 783 313 685 194 b 279 463 378 194 279 313 b 532 731 279 614 378 731 b 783 463 685 731 783 614 z "},"Π":{"ha":1029,"x_min":0,"x_max":0,"o":"m 946 0 l 946 926 l 83 926 l 83 0 l 322 0 l 322 718 l 707 718 l 707 0 z "},"Ρ":{"ha":893,"x_min":0,"x_max":0,"o":"m 322 0 l 322 314 l 547 314 b 869 618 756 314 869 451 b 547 926 869 786 756 926 l 83 926 l 83 0 z m 626 619 b 515 517 626 557 579 517 l 322 517 l 322 725 l 515 725 b 626 619 579 725 626 683 z "},"Σ":{"ha":821,"x_min":0,"x_max":0,"o":"m 613 474 l 357 718 l 764 718 l 764 926 l 58 926 l 58 718 l 319 472 l 57 208 l 57 0 l 764 0 l 764 208 l 346 208 z "},"Τ":{"ha":818,"x_min":0,"x_max":0,"o":"m 529 0 l 529 718 l 788 718 l 788 926 l 31 926 l 31 718 l 290 718 l 290 0 z "},"Υ":{"ha":910,"x_min":0,"x_max":0,"o":"m 575 0 l 575 374 l 925 926 l 654 926 l 456 585 l 254 926 l -15 926 l 336 374 l 336 0 z "},"Φ":{"ha":1222,"x_min":0,"x_max":0,"o":"m 1185 463 b 731 832 1185 679 1017 806 l 731 926 l 490 926 l 490 832 b 36 463 204 806 36 679 b 490 93 36 246 204 119 l 490 0 l 731 0 l 731 93 b 1185 463 1017 119 1185 246 z m 279 463 b 490 619 279 549 351 603 l 490 306 b 279 463 351 322 279 376 z m 731 619 b 942 463 869 603 942 549 b 731 306 942 376 869 322 z "},"Χ":{"ha":939,"x_min":0,"x_max":0,"o":"m 953 0 l 631 476 l 932 926 l 649 926 l 469 636 l 288 926 l 6 926 l 308 475 l -15 0 l 268 0 l 469 311 l 671 0 z "},"Ψ":{"ha":1253,"x_min":0,"x_max":0,"o":"m 925 572 b 746 394 925 479 864 417 l 746 926 l 507 926 l 507 394 b 326 572 388 417 326 479 l 326 926 l 83 926 l 83 564 b 507 179 83 361 219 211 l 507 0 l 746 0 l 746 179 b 1169 565 1032 211 1169 361 l 1169 926 l 925 926 z "},"Ω":{"ha":1064,"x_min":0,"x_max":0,"o":"m 60 208 l 60 0 l 454 0 l 454 208 b 279 465 340 242 279 351 b 532 729 279 582 346 729 b 783 465 717 729 783 582 b 610 208 783 351 722 242 l 610 0 l 1003 0 l 1003 208 l 850 208 b 1026 519 938 271 1026 375 b 532 942 1026 783 815 942 b 36 519 250 942 36 783 b 214 208 36 375 128 271 z "},"Ω":{"ha":1064,"x_min":0,"x_max":0,"o":"m 60 208 l 60 0 l 454 0 l 454 208 b 279 465 340 242 279 351 b 532 729 279 582 346 729 b 783 465 717 729 783 582 b 610 208 783 351 722 242 l 610 0 l 1003 0 l 1003 208 l 850 208 b 1026 519 938 271 1026 375 b 532 942 1026 783 815 942 b 36 519 250 942 36 783 b 214 208 36 375 128 271 z "},"α":{"ha":840,"x_min":0,"x_max":0,"o":"m 821 176 b 794 172 813 174 804 172 b 742 225 764 172 742 190 l 742 671 l 528 671 l 528 592 b 331 688 475 658 404 688 b 33 336 163 688 33 556 b 331 -17 33 108 165 -17 b 543 100 419 -17 497 26 b 739 -17 569 22 639 -17 b 833 -4 769 -17 810 -12 z m 529 233 b 400 172 501 197 446 172 b 253 336 315 172 253 236 b 400 497 253 436 315 497 b 529 438 446 497 501 474 z "},"β":{"ha":821,"x_min":0,"x_max":0,"o":"m 292 78 b 514 -17 347 14 415 -17 b 786 232 656 -17 786 94 b 569 478 786 392 668 468 b 765 686 679 496 765 578 b 435 940 765 839 653 940 b 78 618 275 940 78 854 l 78 -256 l 292 -256 z m 292 618 b 435 750 292 697 349 750 b 546 656 500 750 546 715 b 429 563 546 600 506 563 l 378 563 l 378 372 l 436 372 b 568 274 519 372 568 333 b 438 172 568 215 522 172 b 292 232 374 172 325 196 z "},"γ":{"ha":728,"x_min":0,"x_max":0,"o":"m 469 -256 l 469 7 b 707 671 601 174 707 449 l 494 671 b 390 242 494 525 444 331 b 211 671 375 369 297 563 l -28 671 b 257 -126 133 489 257 183 l 257 -256 z "},"δ":{"ha":800,"x_min":0,"x_max":0,"o":"m 415 681 b 317 731 358 696 317 707 b 400 776 317 757 350 776 b 597 703 481 776 557 742 l 679 854 b 399 943 607 907 513 943 b 111 722 214 943 111 840 b 178 585 111 657 138 615 b 33 329 100 539 33 453 b 413 -17 33 147 171 -17 b 765 321 642 -17 765 147 b 415 681 765 588 546 646 z m 406 172 b 254 329 308 172 254 246 b 371 504 254 399 293 468 b 560 321 469 472 560 433 b 406 172 560 246 504 172 z "},"ε":{"ha":689,"x_min":0,"x_max":0,"o":"m 357 -17 b 671 90 496 -17 607 28 l 571 219 b 360 147 510 171 426 147 b 254 208 285 147 254 174 b 369 267 254 249 292 267 l 490 267 l 490 410 l 369 410 b 267 468 294 410 267 432 b 367 524 267 501 306 524 b 560 451 446 524 511 499 l 663 574 b 354 686 597 640 497 686 b 46 500 157 688 47 614 b 217 344 46 422 126 360 b 33 186 136 339 33 283 b 357 -17 33 67 157 -15 z "},"ζ":{"ha":672,"x_min":0,"x_max":0,"o":"m 394 0 b 424 -28 417 0 424 -12 b 336 -218 424 -69 365 -178 l 560 -218 b 640 14 611 -128 640 -50 b 421 189 640 117 583 189 b 253 311 315 189 253 211 b 622 775 253 496 440 679 l 622 926 l 56 926 l 56 740 l 347 740 b 33 293 156 640 33 475 b 394 0 33 103 176 0 z "},"η":{"ha":824,"x_min":0,"x_max":0,"o":"m 746 -256 l 746 475 b 524 688 746 599 676 688 b 292 589 411 688 332 636 l 292 671 l 78 671 l 78 0 l 292 0 l 292 433 b 422 499 317 464 358 499 b 532 388 489 499 532 469 l 532 -256 z "},"θ":{"ha":800,"x_min":0,"x_max":0,"o":"m 399 943 b 33 464 165 943 33 722 b 399 -17 33 206 165 -17 b 765 464 635 -17 765 206 b 399 943 765 722 635 943 z m 399 754 b 542 558 485 754 529 686 l 258 558 b 399 754 271 686 314 754 z m 399 172 b 258 372 314 172 269 240 l 542 372 b 399 172 531 240 486 172 z "},"ι":{"ha":389,"x_min":0,"x_max":0,"o":"m 78 181 b 289 -17 78 51 151 -17 b 383 -4 319 -17 358 -12 l 369 176 b 343 172 363 174 353 172 b 292 225 314 172 292 190 l 292 671 l 78 671 z "},"κ":{"ha":758,"x_min":0,"x_max":0,"o":"m 767 0 l 507 365 l 754 671 l 496 671 l 292 403 l 292 671 l 78 671 l 78 0 l 292 0 l 292 161 l 356 238 l 503 0 z "},"λ":{"ha":728,"x_min":0,"x_max":0,"o":"m 156 943 b 64 932 136 943 86 939 l 94 742 b 147 754 110 750 131 754 b 238 717 196 754 226 744 l 253 681 l -14 0 l 211 0 l 363 425 l 515 0 l 742 0 l 439 767 b 156 943 385 908 283 939 z "},"μ":{"ha":842,"x_min":0,"x_max":0,"o":"m 292 8 b 367 -17 304 -4 331 -17 b 543 104 446 -17 508 35 b 742 -17 571 22 636 -17 b 836 -4 772 -17 811 -12 l 822 176 b 796 172 815 174 806 172 b 744 225 767 172 744 190 l 744 671 l 531 671 l 531 238 b 403 172 506 206 464 172 b 292 281 333 172 292 203 l 292 671 l 78 671 l 78 -256 l 292 -256 z "},"µ":{"ha":842,"x_min":0,"x_max":0,"o":"m 292 8 b 367 -17 304 -4 331 -17 b 543 104 446 -17 508 35 b 742 -17 571 22 636 -17 b 836 -4 772 -17 811 -12 l 822 176 b 796 172 815 174 806 172 b 744 225 767 172 744 190 l 744 671 l 531 671 l 531 238 b 403 172 506 206 464 172 b 292 281 333 172 292 203 l 292 671 l 78 671 l 78 -256 l 292 -256 z "},"ν":{"ha":728,"x_min":0,"x_max":0,"o":"m 464 0 b 707 671 599 165 707 446 l 494 671 b 374 213 494 525 453 338 l 211 671 l -14 671 l 250 0 z "},"ξ":{"ha":672,"x_min":0,"x_max":0,"o":"m 33 228 b 393 0 33 83 154 0 b 421 -22 414 0 421 -7 b 336 -218 421 -64 365 -178 l 560 -218 b 640 14 611 -128 640 -50 b 421 189 640 117 583 189 b 254 281 314 189 254 215 b 408 376 254 350 310 376 l 614 376 l 614 560 l 408 560 b 269 646 322 560 269 590 b 354 740 269 692 303 728 l 619 740 l 619 926 l 64 926 l 64 740 l 174 740 b 49 578 101 713 49 649 b 190 431 49 492 118 443 b 33 228 106 404 33 340 z "},"ο":{"ha":800,"x_min":0,"x_max":0,"o":"m 399 -17 b 765 336 629 -17 765 147 b 399 688 765 525 629 688 b 33 336 171 688 33 525 b 399 -17 33 147 171 -17 z m 399 172 b 254 336 306 172 254 246 b 399 499 254 425 306 499 b 546 336 493 499 546 425 b 399 172 546 246 493 172 z "},"π":{"ha":911,"x_min":0,"x_max":0,"o":"m 789 0 l 789 485 l 900 485 l 900 671 l 11 671 l 11 485 l 122 485 l 122 0 l 335 0 l 335 485 l 576 485 l 576 0 z "},"ρ":{"ha":818,"x_min":0,"x_max":0,"o":"m 292 79 b 490 -17 347 13 415 -17 b 785 336 658 -17 785 108 b 432 688 785 525 654 688 b 78 336 210 688 78 525 l 78 -256 l 292 -256 z m 567 336 b 419 172 567 235 503 172 b 292 233 374 172 318 199 l 292 336 b 429 499 292 425 340 499 b 567 336 518 499 567 425 z "},"ς":{"ha":690,"x_min":0,"x_max":0,"o":"m 33 336 b 410 0 33 121 194 0 b 436 -22 426 0 436 -7 b 351 -218 436 -64 381 -178 l 574 -218 b 654 31 625 -128 654 -33 b 419 189 654 133 582 189 b 253 340 326 189 253 233 b 410 499 253 442 321 499 b 536 435 467 499 510 474 l 675 564 b 400 688 635 624 544 688 b 33 336 190 688 33 546 z "},"σ":{"ha":800,"x_min":0,"x_max":0,"o":"m 399 -17 b 749 292 629 -17 749 125 b 668 482 749 368 726 431 l 775 482 l 775 671 l 404 671 b 33 336 171 671 33 522 b 399 -17 33 147 171 -17 z m 469 482 b 546 335 518 450 546 397 b 399 172 546 246 493 172 b 254 336 306 172 254 246 b 404 482 254 411 306 482 z "},"τ":{"ha":664,"x_min":0,"x_max":0,"o":"m 218 181 b 429 -17 218 51 293 -17 b 588 28 508 -17 561 3 l 546 189 b 490 172 539 181 515 172 b 432 240 454 172 432 201 l 432 485 l 640 485 l 640 671 l 25 671 l 25 485 l 218 485 z "},"υ":{"ha":811,"x_min":0,"x_max":0,"o":"m 411 -17 b 778 367 642 -17 778 144 b 682 688 778 468 749 590 l 486 606 b 558 367 533 538 558 446 b 411 172 558 246 506 172 b 292 311 336 172 292 231 l 292 671 l 78 671 l 78 307 b 411 -17 78 118 186 -17 z "},"φ":{"ha":1014,"x_min":0,"x_max":0,"o":"m 981 328 b 563 671 981 549 833 671 l 400 671 l 400 172 b 254 347 315 172 254 229 b 367 513 254 413 290 485 l 276 682 b 33 347 138 626 33 517 b 401 -15 33 111 181 -7 l 400 -256 l 614 -256 l 613 -15 b 981 328 833 -7 981 107 z m 614 482 b 760 328 699 482 760 433 b 614 172 760 221 699 172 z "},"χ":{"ha":711,"x_min":0,"x_max":0,"o":"m 719 -256 l 490 221 l 704 671 l 471 671 l 356 421 l 240 671 l 6 671 l 221 221 l -8 -256 l 225 -256 l 356 22 l 486 -256 z "},"ψ":{"ha":1067,"x_min":0,"x_max":0,"o":"m 775 346 b 640 182 775 256 746 200 l 640 926 l 426 926 l 426 182 b 292 346 319 201 292 256 l 292 671 l 78 671 l 78 344 b 426 -11 78 150 165 17 l 426 -256 l 640 -256 l 640 -11 b 989 344 900 17 989 150 l 989 671 l 775 671 z "},"ω":{"ha":1103,"x_min":0,"x_max":0,"o":"m 788 -17 b 1069 322 981 -17 1069 147 b 925 688 1069 492 1010 611 l 726 614 b 849 322 828 528 849 417 b 757 172 849 246 824 172 b 658 336 686 172 658 246 l 658 504 l 444 504 l 444 336 b 346 172 444 246 418 172 b 254 322 279 172 254 246 b 376 614 254 417 275 528 l 179 688 b 33 322 94 611 33 492 b 315 -17 33 147 122 -17 b 551 167 440 -17 504 54 b 788 -17 600 54 664 -17 z "},"Ά":{"ha":968,"x_min":0,"x_max":0,"o":"m 983 0 l 633 926 l 333 926 l -15 0 l 244 0 l 292 140 l 676 140 l 724 0 z m 142 624 l 247 926 l 81 926 l 51 624 z m 614 342 l 354 342 l 483 718 z "},"Έ":{"ha":969,"x_min":0,"x_max":0,"o":"m 83 624 l 189 926 l 22 926 l -7 624 z m 914 0 l 914 201 l 474 201 l 474 368 l 904 368 l 904 571 l 474 571 l 474 725 l 914 725 l 914 926 l 235 926 l 235 0 z "},"Ή":{"ha":1181,"x_min":0,"x_max":0,"o":"m 83 624 l 189 926 l 22 926 l -7 624 z m 1097 0 l 1097 926 l 858 926 l 858 581 l 474 581 l 474 926 l 235 926 l 235 0 l 474 0 l 474 372 l 858 372 l 858 0 z "},"Ί":{"ha":557,"x_min":0,"x_max":0,"o":"m 83 624 l 189 926 l 22 926 l -7 624 z m 474 0 l 474 926 l 235 926 l 235 0 z "},"Ό":{"ha":1157,"x_min":0,"x_max":0,"o":"m 129 463 b 625 -17 129 181 342 -17 b 1119 463 908 -17 1119 181 b 625 942 1119 744 908 942 b 129 463 342 942 129 744 z m 93 624 l 199 926 l 32 926 l 3 624 z m 876 463 b 625 194 876 313 778 194 b 372 463 471 194 372 313 b 625 731 372 614 471 731 b 876 463 778 731 876 614 z "},"Ύ":{"ha":1129,"x_min":0,"x_max":0,"o":"m 83 624 l 189 926 l 22 926 l -7 624 z m 796 0 l 796 374 l 1144 926 l 875 926 l 676 585 l 475 926 l 204 926 l 557 374 l 557 0 z "},"Ώ":{"ha":1169,"x_min":0,"x_max":0,"o":"m 167 208 l 167 0 l 561 0 l 561 208 b 386 465 447 242 386 351 b 638 729 386 582 453 729 b 890 465 824 729 890 582 b 715 208 890 351 829 242 l 715 0 l 1110 0 l 1110 208 l 957 208 b 1133 519 1043 271 1133 375 b 638 942 1133 783 921 942 b 143 519 356 942 143 783 b 321 208 143 375 235 271 z m 83 624 l 189 926 l 22 926 l -7 624 z "},"Ϊ":{"ha":406,"x_min":0,"x_max":0,"o":"m 56 988 b 164 1096 117 988 164 1035 b 56 1206 164 1157 117 1206 b -54 1096 -6 1206 -54 1157 b 56 988 -54 1035 -6 988 z m 353 988 b 463 1096 413 988 463 1035 b 353 1206 463 1157 413 1206 b 243 1096 292 1206 243 1157 b 353 988 243 1035 292 988 z m 322 0 l 322 926 l 83 926 l 83 0 z "},"Ϋ":{"ha":910,"x_min":0,"x_max":0,"o":"m 307 988 b 415 1096 368 988 415 1035 b 307 1206 415 1157 368 1206 b 197 1096 246 1206 197 1157 b 307 988 197 1035 246 988 z m 604 988 b 714 1096 664 988 714 1035 b 604 1206 714 1157 664 1206 b 494 1096 543 1206 494 1157 b 604 988 494 1035 543 988 z m 575 0 l 575 374 l 925 926 l 654 926 l 456 585 l 254 926 l -15 926 l 336 374 l 336 0 z "},"ά":{"ha":840,"x_min":0,"x_max":0,"o":"m 458 767 l 564 1069 l 397 1069 l 368 767 z m 821 176 b 794 172 813 174 804 172 b 742 225 764 172 742 190 l 742 671 l 528 671 l 528 592 b 331 688 475 658 404 688 b 33 336 163 688 33 556 b 331 -17 33 108 165 -17 b 543 100 419 -17 497 26 b 739 -17 569 22 639 -17 b 833 -4 769 -17 810 -12 z m 529 233 b 400 172 501 197 446 172 b 253 336 315 172 253 236 b 400 497 253 436 315 497 b 529 438 446 497 501 474 z "},"έ":{"ha":689,"x_min":0,"x_max":0,"o":"m 399 767 l 504 1069 l 338 1069 l 308 767 z m 357 -17 b 671 90 496 -17 607 28 l 571 219 b 360 147 510 171 426 147 b 254 208 285 147 254 174 b 369 267 254 249 292 267 l 490 267 l 490 410 l 369 410 b 267 468 294 410 267 432 b 367 524 267 501 306 524 b 560 451 446 524 511 499 l 663 574 b 354 686 597 640 497 686 b 46 500 157 688 47 614 b 217 344 46 422 126 360 b 33 186 136 339 33 283 b 357 -17 33 67 157 -15 z "},"ή":{"ha":824,"x_min":0,"x_max":0,"o":"m 456 767 l 561 1069 l 394 1069 l 365 767 z m 746 -256 l 746 475 b 524 688 746 599 676 688 b 292 589 411 688 332 636 l 292 671 l 78 671 l 78 0 l 292 0 l 292 433 b 422 499 317 464 358 499 b 532 388 489 499 532 469 l 532 -256 z "},"ί":{"ha":389,"x_min":0,"x_max":0,"o":"m 229 767 l 335 1069 l 168 1069 l 139 767 z m 78 181 b 289 -17 78 51 151 -17 b 383 -4 319 -17 358 -12 l 369 176 b 343 172 363 174 353 172 b 292 225 314 172 292 190 l 292 671 l 78 671 z "},"ϊ":{"ha":389,"x_min":0,"x_max":0,"o":"m 36 756 b 144 864 97 756 144 803 b 36 974 144 925 97 974 b -74 864 -25 974 -74 925 b 36 756 -74 803 -25 756 z m 333 756 b 443 864 393 756 443 803 b 333 974 443 925 393 974 b 224 864 272 974 224 925 b 333 756 224 803 272 756 z m 78 181 b 289 -17 78 51 151 -17 b 383 -4 319 -17 358 -12 l 369 176 b 343 172 363 174 353 172 b 292 225 314 172 292 190 l 292 671 l 78 671 z "},"ΐ":{"ha":389,"x_min":0,"x_max":0,"o":"m 231 767 l 335 1069 l 168 1069 l 139 767 z m -8 751 b 100 861 53 751 100 800 b -8 969 100 921 53 969 b -117 861 -69 969 -117 921 b -8 751 -117 800 -69 751 z m 431 751 b 540 861 492 751 540 800 b 431 969 540 921 492 969 b 321 861 369 969 321 921 b 431 751 321 800 369 751 z m 78 181 b 289 -17 78 51 151 -17 b 383 -4 319 -17 358 -12 l 369 176 b 343 172 363 174 353 172 b 292 225 314 172 292 190 l 292 671 l 78 671 z "},"ύ":{"ha":811,"x_min":0,"x_max":0,"o":"m 456 767 l 561 1069 l 394 1069 l 365 767 z m 411 -17 b 778 367 642 -17 778 144 b 682 688 778 468 749 590 l 486 606 b 558 367 533 538 558 446 b 411 172 558 246 506 172 b 292 311 336 172 292 231 l 292 671 l 78 671 l 78 307 b 411 -17 78 118 186 -17 z "},"ϋ":{"ha":811,"x_min":0,"x_max":0,"o":"m 263 756 b 371 864 324 756 371 803 b 263 974 371 925 324 974 b 153 864 201 974 153 925 b 263 756 153 803 201 756 z m 560 756 b 669 864 619 756 669 803 b 560 974 669 925 619 974 b 450 864 499 974 450 925 b 560 756 450 803 499 756 z m 411 -17 b 778 367 642 -17 778 144 b 682 688 778 468 749 590 l 486 606 b 558 367 533 538 558 446 b 411 172 558 246 506 172 b 292 311 336 172 292 231 l 292 671 l 78 671 l 78 307 b 411 -17 78 118 186 -17 z "},"ΰ":{"ha":811,"x_min":0,"x_max":0,"o":"m 457 767 l 561 1069 l 394 1069 l 365 767 z m 218 751 b 326 861 279 751 326 800 b 218 969 326 921 279 969 b 110 861 157 969 110 921 b 218 751 110 800 157 751 z m 657 751 b 767 861 718 751 767 800 b 657 969 767 921 718 969 b 547 861 596 969 547 921 b 657 751 547 800 596 751 z m 411 -17 b 778 367 642 -17 778 144 b 682 688 778 468 749 590 l 486 606 b 558 367 533 538 558 446 b 411 172 558 246 506 172 b 292 311 336 172 292 231 l 292 671 l 78 671 l 78 307 b 411 -17 78 118 186 -17 z "},"ό":{"ha":800,"x_min":0,"x_max":0,"o":"m 443 767 l 549 1069 l 382 1069 l 353 767 z m 399 -17 b 765 336 629 -17 765 147 b 399 688 765 525 629 688 b 33 336 171 688 33 525 b 399 -17 33 147 171 -17 z m 399 172 b 254 336 306 172 254 246 b 399 499 254 425 306 499 b 546 336 493 499 546 425 b 399 172 546 246 493 172 z "},"ώ":{"ha":1103,"x_min":0,"x_max":0,"o":"m 596 767 l 701 1069 l 535 1069 l 506 767 z m 788 -17 b 1069 322 981 -17 1069 147 b 925 688 1069 492 1010 611 l 726 614 b 849 322 828 528 849 417 b 757 172 849 246 824 172 b 658 336 686 172 658 246 l 658 504 l 444 504 l 444 336 b 346 172 444 246 418 172 b 254 322 279 172 254 246 b 376 614 254 417 275 528 l 179 688 b 33 322 94 611 33 492 b 315 -17 33 147 122 -17 b 551 167 440 -17 504 54 b 788 -17 600 54 664 -17 z "},"ϗ":{"ha":776,"x_min":0,"x_max":0,"o":"m 507 365 l 754 671 l 496 671 l 292 403 l 292 671 l 78 671 l 78 0 l 292 0 l 292 161 l 356 238 l 442 101 b 551 11 469 57 517 18 l 551 -1 b 388 -96 551 -71 483 -96 b 339 -93 369 -96 353 -96 l 333 -267 b 422 -272 356 -271 383 -272 b 756 50 636 -272 756 -157 l 756 167 b 610 224 683 167 639 182 z "},"΄":{"ha":214,"x_min":0,"x_max":0,"o":"m 100 767 l 206 1069 l 39 1069 l 10 767 z "},"΅":{"ha":675,"x_min":0,"x_max":0,"o":"m 357 767 l 461 1069 l 294 1069 l 265 767 z m 118 751 b 226 861 179 751 226 800 b 118 969 226 921 179 969 b 10 861 57 969 10 921 b 118 751 10 800 57 751 z m 557 751 b 667 861 618 751 667 800 b 557 969 667 921 618 969 b 447 861 496 969 447 921 b 557 751 447 800 496 751 z "},"ʹ":{"ha":242,"x_min":0,"x_max":0,"o":"m 114 556 l 219 926 l 53 926 l 24 556 z "},"͵":{"ha":242,"x_min":0,"x_max":0,"o":"m 114 -181 l 219 190 l 53 190 l 24 -181 z "},"·":{"ha":374,"x_min":0,"x_max":0,"o":"m 186 210 b 317 339 257 210 317 269 b 186 469 317 410 257 469 b 57 339 115 469 57 410 b 186 210 57 269 115 210 z "},"А":{"ha":968,"x_min":0,"x_max":0,"o":"m 983 0 l 633 926 l 333 926 l -15 0 l 244 0 l 292 140 l 676 140 l 724 0 z m 614 342 l 354 342 l 483 718 z "},"Б":{"ha":893,"x_min":0,"x_max":0,"o":"m 83 926 l 83 0 l 556 0 b 869 297 760 0 869 135 b 556 594 869 460 760 594 l 322 594 l 322 725 l 807 725 l 807 926 z m 526 393 b 626 297 583 393 626 354 b 526 201 626 240 583 201 l 322 201 l 322 393 z "},"В":{"ha":944,"x_min":0,"x_max":0,"o":"m 625 0 b 897 251 807 0 897 117 b 721 478 897 368 819 463 b 879 690 808 497 879 575 b 608 926 879 807 792 926 l 83 926 l 83 0 z m 322 728 l 554 728 b 636 649 603 728 636 694 b 554 568 636 603 603 568 l 322 568 z m 322 371 l 563 371 b 654 283 621 371 654 331 b 563 199 654 233 619 199 l 322 199 z "},"Г":{"ha":808,"x_min":0,"x_max":0,"o":"m 322 0 l 322 718 l 763 718 l 763 926 l 83 926 l 83 0 z "},"Д":{"ha":1038,"x_min":0,"x_max":0,"o":"m 21 -171 l 229 -171 l 229 0 l 808 0 l 808 -171 l 1018 -171 l 1018 208 l 907 208 l 907 926 l 238 926 l 217 686 b 93 208 189 363 135 249 l 21 208 z m 431 718 l 668 718 l 668 208 l 335 208 b 422 617 368 258 403 379 z "},"Е":{"ha":818,"x_min":0,"x_max":0,"o":"m 763 0 l 763 201 l 322 201 l 322 368 l 753 368 l 753 571 l 322 571 l 322 725 l 763 725 l 763 926 l 83 926 l 83 0 z "},"Ё":{"ha":818,"x_min":0,"x_max":0,"o":"m 285 988 b 393 1096 346 988 393 1035 b 285 1206 393 1157 346 1206 b 175 1096 224 1206 175 1157 b 285 988 175 1035 224 988 z m 582 988 b 692 1096 642 988 692 1035 b 582 1206 692 1157 642 1206 b 472 1096 521 1206 472 1157 b 582 988 472 1035 521 988 z m 763 0 l 763 201 l 322 201 l 322 368 l 753 368 l 753 571 l 322 571 l 322 725 l 763 725 l 763 926 l 83 926 l 83 0 z "},"Ж":{"ha":1349,"x_min":0,"x_max":0,"o":"m 1363 0 l 1032 482 l 1342 926 l 1064 926 l 843 569 l 794 569 l 794 926 l 556 926 l 556 569 l 507 569 l 285 926 l 7 926 l 318 483 l -12 0 l 269 0 l 507 383 l 556 383 l 556 0 l 794 0 l 794 383 l 843 383 l 1079 0 z "},"З":{"ha":867,"x_min":0,"x_max":0,"o":"m 22 129 b 419 -17 94 46 243 -17 b 819 258 651 -17 819 96 b 601 478 819 392 700 468 b 804 686 711 496 804 578 b 421 940 804 839 657 940 b 35 790 250 940 113 878 l 150 646 b 396 736 215 704 311 736 b 565 649 492 736 565 707 b 401 568 565 600 518 568 l 231 568 l 231 367 l 401 367 b 581 281 535 367 581 336 b 411 188 581 228 521 188 b 143 285 331 188 210 219 z "},"И":{"ha":1028,"x_min":0,"x_max":0,"o":"m 83 0 l 314 0 l 704 604 l 704 0 l 944 0 l 944 926 l 697 926 l 322 349 l 322 926 l 83 926 z "},"Й":{"ha":1028,"x_min":0,"x_max":0,"o":"m 513 989 b 768 1117 618 989 710 1039 l 657 1210 b 513 1132 625 1163 574 1132 b 369 1210 451 1132 401 1163 l 257 1117 b 513 989 317 1039 410 989 z m 83 0 l 314 0 l 704 604 l 704 0 l 944 0 l 944 926 l 697 926 l 322 349 l 322 926 l 83 926 z "},"К":{"ha":908,"x_min":0,"x_max":0,"o":"m 921 0 l 542 493 l 901 926 l 607 926 l 322 546 l 322 926 l 83 926 l 83 0 l 322 0 l 322 271 l 385 349 l 628 0 z "},"Л":{"ha":1029,"x_min":0,"x_max":0,"o":"m 32 -17 b 444 615 235 -17 401 63 l 453 718 l 707 718 l 707 0 l 946 0 l 946 926 l 256 926 l 236 669 b 32 208 203 258 118 208 z "},"М":{"ha":1218,"x_min":0,"x_max":0,"o":"m 1135 0 l 1135 926 l 803 926 l 608 401 l 415 926 l 83 926 l 83 0 l 322 0 l 322 625 l 556 0 l 661 0 l 896 625 l 896 0 z "},"Н":{"ha":1029,"x_min":0,"x_max":0,"o":"m 946 0 l 946 926 l 707 926 l 707 581 l 322 581 l 322 926 l 83 926 l 83 0 l 322 0 l 322 372 l 707 372 l 707 0 z "},"О":{"ha":1064,"x_min":0,"x_max":0,"o":"m 36 463 b 532 -17 36 181 249 -17 b 1026 463 815 -17 1026 181 b 532 942 1026 744 815 942 b 36 463 249 942 36 744 z m 783 463 b 532 194 783 313 685 194 b 279 463 378 194 279 313 b 532 731 279 614 378 731 b 783 463 685 731 783 614 z "},"П":{"ha":1029,"x_min":0,"x_max":0,"o":"m 946 0 l 946 926 l 83 926 l 83 0 l 322 0 l 322 718 l 707 718 l 707 0 z "},"Р":{"ha":893,"x_min":0,"x_max":0,"o":"m 322 0 l 322 314 l 547 314 b 869 618 756 314 869 451 b 547 926 869 786 756 926 l 83 926 l 83 0 z m 626 619 b 515 517 626 557 579 517 l 322 517 l 322 725 l 515 725 b 626 619 579 725 626 683 z "},"С":{"ha":961,"x_min":0,"x_max":0,"o":"m 531 -17 b 942 232 761 -17 882 113 l 736 329 b 531 194 706 256 626 194 b 279 463 386 194 279 311 b 531 731 279 614 386 731 b 736 596 626 731 706 669 l 942 693 b 531 942 881 815 761 942 b 36 463 253 942 36 749 b 531 -17 36 178 253 -17 z "},"Т":{"ha":818,"x_min":0,"x_max":0,"o":"m 529 0 l 529 718 l 788 718 l 788 926 l 31 926 l 31 718 l 290 718 l 290 0 z "},"У":{"ha":910,"x_min":0,"x_max":0,"o":"m 482 492 l 258 926 l -15 926 l 358 256 b 244 194 331 214 299 194 b 183 207 222 194 201 197 l 136 1 b 263 -17 171 -11 219 -17 b 603 219 435 -17 533 65 l 925 926 l 661 926 z "},"Ф":{"ha":1222,"x_min":0,"x_max":0,"o":"m 1185 463 b 731 832 1185 679 1017 806 l 731 926 l 490 926 l 490 832 b 36 463 204 806 36 679 b 490 93 36 246 204 119 l 490 0 l 731 0 l 731 93 b 1185 463 1017 119 1185 246 z m 279 463 b 490 619 279 549 351 603 l 490 306 b 279 463 351 322 279 376 z m 731 619 b 942 463 869 603 942 549 b 731 306 942 376 869 322 z "},"Х":{"ha":939,"x_min":0,"x_max":0,"o":"m 953 0 l 631 476 l 932 926 l 649 926 l 469 636 l 288 926 l 6 926 l 308 475 l -15 0 l 268 0 l 469 311 l 671 0 z "},"Ц":{"ha":1049,"x_min":0,"x_max":0,"o":"m 819 -171 l 1029 -171 l 1029 208 l 918 208 l 918 926 l 679 926 l 679 208 l 322 208 l 322 926 l 83 926 l 83 0 l 819 0 z "},"Ч":{"ha":931,"x_min":0,"x_max":0,"o":"m 301 926 l 63 926 l 63 644 b 365 294 63 403 160 294 b 608 351 463 294 546 317 l 608 0 l 847 0 l 847 926 l 608 926 l 608 538 b 453 503 565 517 513 503 b 301 644 357 503 301 535 z "},"Ш":{"ha":1413,"x_min":0,"x_max":0,"o":"m 1090 926 l 1090 208 l 826 208 l 826 926 l 588 926 l 588 208 l 322 208 l 322 926 l 83 926 l 83 0 l 1329 0 l 1329 926 z "},"Щ":{"ha":1461,"x_min":0,"x_max":0,"o":"m 1090 926 l 1090 208 l 826 208 l 826 926 l 588 926 l 588 208 l 322 208 l 322 926 l 83 926 l 83 0 l 1231 0 l 1231 -171 l 1440 -171 l 1440 208 l 1329 208 l 1329 926 z "},"Ъ":{"ha":1100,"x_min":0,"x_max":0,"o":"m 754 0 b 1076 308 963 0 1076 140 b 754 615 1076 475 963 615 l 529 615 l 529 926 l 31 926 l 31 718 l 290 718 l 290 0 z m 722 407 b 833 308 785 407 833 371 b 722 208 833 244 785 208 l 529 208 l 529 407 z "},"Ы":{"ha":1260,"x_min":0,"x_max":0,"o":"m 83 926 l 83 0 l 547 0 b 869 308 756 0 869 140 b 547 615 869 475 756 615 l 322 615 l 322 926 z m 1176 0 l 1176 926 l 938 926 l 938 0 z m 515 407 b 626 308 579 407 626 371 b 515 208 626 244 579 208 l 322 208 l 322 407 z "},"Ь":{"ha":893,"x_min":0,"x_max":0,"o":"m 83 926 l 83 0 l 547 0 b 869 308 756 0 869 140 b 547 615 869 475 756 615 l 322 615 l 322 926 z m 515 407 b 626 308 579 407 626 371 b 515 208 626 244 579 208 l 322 208 l 322 407 z "},"Э":{"ha":961,"x_min":0,"x_max":0,"o":"m 424 942 b 19 693 200 942 79 815 l 225 596 b 431 731 256 669 333 731 b 663 571 547 731 629 665 l 285 571 l 285 368 l 665 368 b 431 194 638 265 553 194 b 225 329 333 194 256 256 l 19 232 b 424 -17 79 113 200 -17 b 925 463 707 -17 925 178 b 424 942 925 749 707 942 z "},"Ю":{"ha":1493,"x_min":0,"x_max":0,"o":"m 961 942 b 481 581 721 942 531 797 l 322 581 l 322 926 l 83 926 l 83 0 l 322 0 l 322 372 l 475 372 b 961 -17 515 139 710 -17 b 1457 463 1244 -17 1457 181 b 961 942 1457 744 1244 942 z m 961 194 b 710 463 808 194 710 313 b 961 731 710 614 808 731 b 1214 463 1114 731 1214 614 b 961 194 1214 313 1114 194 z "},"Я":{"ha":918,"x_min":0,"x_max":0,"o":"m 318 0 l 472 311 l 594 311 l 594 0 l 835 0 l 835 926 l 371 926 b 47 618 165 926 47 790 b 233 340 47 457 146 371 l 44 0 z m 406 519 b 292 619 343 519 292 554 b 406 718 292 682 343 718 l 594 718 l 594 519 z "},"Ђ":{"ha":1099,"x_min":0,"x_max":0,"o":"m 703 -17 b 1075 288 932 -17 1075 72 l 1075 311 b 771 611 1075 490 978 611 b 529 553 674 611 592 588 l 529 718 l 788 718 l 788 926 l 31 926 l 31 718 l 290 718 l 290 0 l 529 0 l 529 367 b 685 401 572 388 625 401 b 836 299 781 401 836 367 l 836 278 b 703 183 836 213 796 183 z "},"Ѓ":{"ha":808,"x_min":0,"x_max":0,"o":"m 733 1204 l 507 1204 l 331 1004 l 513 1004 z m 322 0 l 322 718 l 763 718 l 763 926 l 83 926 l 83 0 z "},"Є":{"ha":961,"x_min":0,"x_max":0,"o":"m 531 194 b 294 368 408 194 324 265 l 676 368 l 676 571 l 299 571 b 531 731 332 665 414 731 b 736 596 626 731 706 669 l 942 693 b 538 942 881 815 761 942 b 36 463 253 942 36 749 b 538 -17 36 178 253 -17 b 942 232 761 -17 882 113 l 736 329 b 531 194 706 256 626 194 z "},"Ѕ":{"ha":842,"x_min":0,"x_max":0,"o":"m 17 131 b 428 -17 110 42 240 -17 b 814 293 676 -17 814 107 b 450 579 814 503 603 547 b 290 664 347 599 290 615 b 400 736 290 704 321 736 b 661 640 482 736 583 704 l 792 811 b 415 940 693 896 564 940 b 46 650 178 940 46 806 b 413 361 46 431 260 392 b 571 267 511 340 571 319 b 439 188 571 222 521 188 b 143 310 313 188 210 243 z "},"І":{"ha":406,"x_min":0,"x_max":0,"o":"m 322 0 l 322 926 l 83 926 l 83 0 z "},"Ї":{"ha":406,"x_min":0,"x_max":0,"o":"m 56 988 b 164 1096 117 988 164 1035 b 56 1206 164 1157 117 1206 b -54 1096 -6 1206 -54 1157 b 56 988 -54 1035 -6 988 z m 353 988 b 463 1096 413 988 463 1035 b 353 1206 463 1157 413 1206 b 243 1096 292 1206 243 1157 b 353 988 243 1035 292 988 z m 322 0 l 322 926 l 83 926 l 83 0 z "},"Ј":{"ha":683,"x_min":0,"x_max":0,"o":"m 4 67 b 258 -17 74 6 165 -17 b 600 318 461 -17 600 89 l 600 926 l 361 926 l 361 321 b 238 194 361 243 313 194 b 104 249 182 194 138 221 z "},"Љ":{"ha":1517,"x_min":0,"x_max":0,"o":"m 32 -17 b 444 615 235 -17 401 63 l 453 718 l 707 718 l 707 0 l 1171 0 b 1493 308 1379 0 1493 140 b 1171 615 1493 475 1379 615 l 946 615 l 946 926 l 256 926 l 236 669 b 32 208 204 258 118 208 z m 1139 407 b 1250 308 1203 407 1250 371 b 1139 208 1250 244 1203 208 l 946 208 l 946 407 z "},"Њ":{"ha":1517,"x_min":0,"x_max":0,"o":"m 83 0 l 322 0 l 322 372 l 707 372 l 707 0 l 1189 0 b 1493 290 1386 0 1493 132 b 1189 581 1493 449 1386 581 l 946 581 l 946 926 l 707 926 l 707 581 l 322 581 l 322 926 l 83 926 z m 946 208 l 946 372 l 1160 372 b 1250 290 1211 372 1250 343 b 1160 208 1250 239 1211 208 z "},"Ћ":{"ha":1149,"x_min":0,"x_max":0,"o":"m 836 0 l 1075 0 l 1075 261 b 771 611 1075 501 978 611 b 529 553 674 611 592 588 l 529 718 l 788 718 l 788 926 l 31 926 l 31 718 l 290 718 l 290 0 l 529 0 l 529 367 b 685 401 572 388 625 401 b 836 261 781 401 836 369 z "},"Ќ":{"ha":908,"x_min":0,"x_max":0,"o":"m 771 1204 l 544 1204 l 368 1004 l 550 1004 z m 921 0 l 542 493 l 901 926 l 607 926 l 322 546 l 322 926 l 83 926 l 83 0 l 322 0 l 322 271 l 385 349 l 628 0 z "},"Ў":{"ha":910,"x_min":0,"x_max":0,"o":"m 454 989 b 710 1117 560 989 651 1039 l 599 1210 b 454 1132 567 1163 515 1132 b 311 1210 393 1132 343 1163 l 199 1117 b 454 989 258 1039 351 989 z m 482 492 l 258 926 l -15 926 l 358 256 b 244 194 331 214 299 194 b 183 207 222 194 201 197 l 136 1 b 263 -17 171 -11 219 -17 b 603 219 435 -17 533 65 l 925 926 l 661 926 z "},"Џ":{"ha":1001,"x_min":0,"x_max":0,"o":"m 679 926 l 679 208 l 322 208 l 322 926 l 83 926 l 83 0 l 397 0 l 397 -174 l 606 -174 l 606 0 l 918 0 l 918 926 z "},"а":{"ha":765,"x_min":0,"x_max":0,"o":"m 688 0 l 688 419 b 375 688 688 628 536 688 b 71 583 272 688 157 657 l 147 449 b 338 519 201 494 271 519 b 474 422 424 519 474 481 l 474 338 b 265 415 433 388 354 415 b 35 204 163 415 35 367 b 265 -17 35 53 163 -17 b 474 67 351 -17 432 17 l 474 0 z m 474 172 b 354 124 451 140 401 124 b 247 201 297 124 247 149 b 354 279 247 254 297 279 b 474 232 401 279 451 263 z "},"б":{"ha":799,"x_min":0,"x_max":0,"o":"m 35 408 b 399 -17 35 149 169 -17 b 765 329 631 -17 765 140 b 450 642 765 510 632 642 b 186 519 350 642 246 604 b 486 731 208 635 313 701 l 674 763 l 674 960 l 451 924 b 35 408 156 876 35 693 z m 546 338 b 399 172 546 246 493 172 b 254 338 306 172 254 246 b 399 499 254 425 306 499 b 546 338 493 499 546 425 z "},"в":{"ha":793,"x_min":0,"x_max":0,"o":"m 536 0 b 760 183 689 0 760 85 b 629 346 760 265 706 331 b 744 499 694 365 744 419 b 524 671 744 583 676 671 l 78 671 l 78 0 z m 529 467 b 478 418 529 442 511 418 l 292 418 l 292 515 l 478 515 b 529 467 511 515 529 493 z m 544 210 b 486 156 544 179 522 156 l 292 156 l 292 263 l 486 263 b 544 210 524 263 544 238 z "},"г":{"ha":632,"x_min":0,"x_max":0,"o":"m 610 671 l 78 671 l 78 0 l 292 0 l 292 485 l 610 485 z "},"д":{"ha":844,"x_min":0,"x_max":0,"o":"m 25 -171 l 211 -171 l 211 0 l 633 0 l 633 -171 l 819 -171 l 819 186 l 746 186 l 746 671 l 183 671 l 171 535 b 89 186 150 335 119 236 l 25 186 z m 349 485 l 532 485 l 532 186 l 283 186 b 344 436 306 222 328 281 z "},"е":{"ha":761,"x_min":0,"x_max":0,"o":"m 33 336 b 400 -17 33 118 193 -17 b 681 72 503 -17 614 13 l 590 206 b 426 149 553 172 486 149 b 256 268 326 149 268 206 l 733 268 l 733 314 b 390 688 733 542 589 688 b 33 336 181 688 33 531 z m 390 522 b 529 407 489 522 524 454 l 253 407 b 390 522 261 456 297 522 z "},"ё":{"ha":761,"x_min":0,"x_max":0,"o":"m 243 756 b 351 864 304 756 351 803 b 243 974 351 925 304 974 b 133 864 182 974 133 925 b 243 756 133 803 182 756 z m 540 756 b 650 864 600 756 650 803 b 540 974 650 925 600 974 b 431 864 479 974 431 925 b 540 756 431 803 479 756 z m 33 336 b 400 -17 33 118 193 -17 b 681 72 503 -17 614 13 l 590 206 b 426 149 553 172 486 149 b 256 268 326 149 268 206 l 733 268 l 733 314 b 390 688 733 542 589 688 b 33 336 181 688 33 531 z m 390 522 b 529 407 489 522 524 454 l 253 407 b 390 522 261 456 297 522 z "},"ж":{"ha":1071,"x_min":0,"x_max":0,"o":"m 1079 0 l 864 349 l 1067 671 l 822 671 l 682 407 l 642 407 l 642 671 l 428 671 l 428 407 l 389 407 l 249 671 l 3 671 l 207 349 l -8 0 l 242 0 l 388 268 l 428 268 l 428 0 l 642 0 l 642 268 l 683 268 l 828 0 z "},"з":{"ha":689,"x_min":0,"x_max":0,"o":"m 18 90 b 332 -17 82 28 192 -17 b 656 186 531 -15 656 67 b 472 344 656 283 553 339 b 642 500 563 360 642 422 b 335 686 642 614 532 688 b 26 574 192 686 92 640 l 128 451 b 322 524 178 499 243 524 b 421 468 383 524 421 501 b 319 410 421 432 394 410 l 199 410 l 199 267 l 319 267 b 433 208 397 267 433 249 b 329 147 433 174 403 147 b 118 219 263 147 178 171 z "},"и":{"ha":824,"x_min":0,"x_max":0,"o":"m 282 0 l 532 388 l 532 0 l 746 0 l 746 671 l 531 671 l 292 301 l 292 671 l 78 671 l 78 0 z "},"й":{"ha":824,"x_min":0,"x_max":0,"o":"m 411 757 b 667 885 517 757 608 807 l 556 978 b 411 900 524 931 472 900 b 268 978 350 900 300 931 l 156 885 b 411 757 215 807 308 757 z m 282 0 l 532 388 l 532 0 l 746 0 l 746 671 l 531 671 l 292 301 l 292 671 l 78 671 l 78 0 z "},"к":{"ha":758,"x_min":0,"x_max":0,"o":"m 767 0 l 507 365 l 754 671 l 496 671 l 292 403 l 292 671 l 78 671 l 78 0 l 292 0 l 292 161 l 356 238 l 503 0 z "},"л":{"ha":824,"x_min":0,"x_max":0,"o":"m 25 -17 b 346 436 222 -17 315 100 l 351 485 l 532 485 l 532 0 l 746 0 l 746 671 l 178 671 l 164 521 b 25 186 138 218 79 186 z "},"м":{"ha":1010,"x_min":0,"x_max":0,"o":"m 932 0 l 932 671 l 654 671 l 504 286 l 356 671 l 78 671 l 78 0 l 288 0 l 288 424 l 451 0 l 560 0 l 724 424 l 724 0 z "},"н":{"ha":824,"x_min":0,"x_max":0,"o":"m 292 0 l 292 254 l 532 254 l 532 0 l 746 0 l 746 671 l 532 671 l 532 440 l 292 440 l 292 671 l 78 671 l 78 0 z "},"о":{"ha":800,"x_min":0,"x_max":0,"o":"m 399 -17 b 765 336 629 -17 765 147 b 399 688 765 525 629 688 b 33 336 171 688 33 525 b 399 -17 33 147 171 -17 z m 399 172 b 254 336 306 172 254 246 b 399 499 254 425 306 499 b 546 336 493 499 546 425 b 399 172 546 246 493 172 z "},"п":{"ha":824,"x_min":0,"x_max":0,"o":"m 746 0 l 746 671 l 78 671 l 78 0 l 292 0 l 292 485 l 532 485 l 532 0 z "},"р":{"ha":819,"x_min":0,"x_max":0,"o":"m 292 79 b 490 -17 347 13 415 -17 b 785 336 658 -17 785 108 b 490 688 785 563 658 688 b 292 593 414 688 344 657 l 292 671 l 78 671 l 78 -256 l 292 -256 z m 567 336 b 419 172 567 235 503 172 b 292 233 374 172 318 199 l 292 438 b 419 499 318 474 374 499 b 567 336 503 499 567 436 z "},"с":{"ha":694,"x_min":0,"x_max":0,"o":"m 33 336 b 400 -17 33 125 190 -17 b 675 107 544 -17 635 49 l 536 238 b 410 172 510 200 467 172 b 253 336 321 172 253 235 b 410 499 253 438 321 499 b 536 435 467 499 510 474 l 675 564 b 400 688 635 624 544 688 b 33 336 190 688 33 546 z "},"т":{"ha":624,"x_min":0,"x_max":0,"o":"m 419 0 l 419 485 l 601 485 l 601 671 l 22 671 l 22 485 l 206 485 l 206 0 z "},"у":{"ha":728,"x_min":0,"x_max":0,"o":"m 64 -261 b 156 -272 86 -268 136 -272 b 439 -96 283 -269 385 -237 l 742 671 l 515 671 l 363 246 l 211 671 l -14 671 l 253 -10 l 238 -46 b 147 -83 226 -74 196 -83 b 94 -71 131 -83 110 -79 z "},"ф":{"ha":1014,"x_min":0,"x_max":0,"o":"m 981 336 b 614 688 981 557 833 678 l 614 926 l 400 926 l 400 688 b 33 336 181 678 33 557 b 400 -17 33 115 181 -7 l 400 -256 l 614 -256 l 614 -17 b 981 336 833 -7 981 115 z m 254 336 b 404 513 254 442 315 513 l 404 158 b 254 336 315 158 254 229 z m 610 513 b 760 336 699 513 760 442 b 610 158 760 229 699 158 z "},"х":{"ha":711,"x_min":0,"x_max":0,"o":"m 719 0 l 490 344 l 704 671 l 469 671 l 356 489 l 240 671 l 6 671 l 221 344 l -8 0 l 225 0 l 356 203 l 485 0 z "},"ц":{"ha":831,"x_min":0,"x_max":0,"o":"m 619 -171 l 806 -171 l 806 186 l 732 186 l 732 671 l 518 671 l 518 186 l 292 186 l 292 671 l 78 671 l 78 0 l 619 0 z "},"ч":{"ha":807,"x_min":0,"x_max":0,"o":"m 61 671 l 61 425 b 314 194 61 282 131 194 b 515 242 403 194 474 218 l 515 0 l 728 0 l 728 671 l 515 671 l 515 411 b 393 383 489 397 453 383 b 275 493 317 383 275 413 l 275 671 z "},"ш":{"ha":1193,"x_min":0,"x_max":0,"o":"m 901 671 l 901 186 l 704 186 l 704 671 l 490 671 l 490 186 l 292 186 l 292 671 l 78 671 l 78 0 l 1115 0 l 1115 671 z "},"щ":{"ha":1214,"x_min":0,"x_max":0,"o":"m 901 671 l 901 186 l 704 186 l 704 671 l 490 671 l 490 186 l 292 186 l 292 671 l 78 671 l 78 0 l 1008 0 l 1008 -171 l 1193 -171 l 1193 186 l 1115 186 l 1115 671 z "},"ъ":{"ha":918,"x_min":0,"x_max":0,"o":"m 638 0 b 885 239 796 0 885 119 b 638 479 885 360 804 479 l 419 479 l 419 671 l 22 671 l 22 485 l 206 485 l 206 0 z m 597 307 b 668 239 644 307 668 276 b 597 172 668 203 644 172 l 419 172 l 419 307 z "},"ы":{"ha":1121,"x_min":0,"x_max":0,"o":"m 78 671 l 78 0 l 510 0 b 757 239 669 0 757 119 b 510 479 757 360 676 479 l 292 479 l 292 671 z m 1043 0 l 1043 671 l 829 671 l 829 0 z m 469 307 b 540 239 517 307 540 276 b 469 172 540 203 517 172 l 292 172 l 292 307 z "},"ь":{"ha":790,"x_min":0,"x_max":0,"o":"m 78 671 l 78 0 l 510 0 b 757 239 669 0 757 119 b 510 479 757 360 676 479 l 292 479 l 292 671 z m 469 307 b 540 239 517 307 540 276 b 469 172 540 203 517 172 l 292 172 l 292 307 z "},"э":{"ha":701,"x_min":0,"x_max":0,"o":"m 301 688 b 28 596 199 688 93 657 l 118 463 b 275 522 154 499 215 522 b 443 411 374 522 432 465 l 168 411 l 168 264 l 444 264 b 275 149 432 206 374 149 b 110 206 215 149 149 172 l 19 72 b 301 -17 86 13 199 -17 b 667 336 508 -17 667 118 b 301 688 667 549 510 688 z "},"ю":{"ha":1154,"x_min":0,"x_max":0,"o":"m 754 688 b 404 440 569 688 446 581 l 292 440 l 292 671 l 78 671 l 78 0 l 292 0 l 292 254 l 399 254 b 754 -17 432 101 560 -17 b 1121 336 985 -17 1121 147 b 754 688 1121 525 985 688 z m 754 172 b 608 336 661 172 608 246 b 754 499 608 425 661 499 b 901 336 849 499 901 425 b 754 172 901 246 849 172 z "},"я":{"ha":796,"x_min":0,"x_max":0,"o":"m 279 0 l 392 224 l 510 224 l 510 0 l 722 0 l 722 671 l 289 671 b 44 443 133 671 44 565 b 183 233 44 319 121 256 l 40 0 z m 335 379 b 260 449 286 379 260 413 b 335 515 260 482 286 515 l 510 515 l 510 379 z "},"ђ":{"ha":831,"x_min":0,"x_max":0,"o":"m 417 -267 b 493 -272 438 -271 461 -272 b 753 6 671 -272 753 -157 l 753 475 b 531 688 753 599 683 688 b 299 589 418 688 339 636 l 299 729 l 493 729 l 493 846 l 299 846 l 299 926 l 85 926 l 85 846 l 11 846 l 11 729 l 85 729 l 85 0 l 299 0 l 299 433 b 428 499 324 464 365 499 b 539 388 496 499 539 469 l 539 6 b 458 -96 539 -64 506 -96 b 422 -93 449 -96 435 -96 z "},"ѓ":{"ha":632,"x_min":0,"x_max":0,"o":"m 651 972 l 425 972 l 249 772 l 431 772 z m 610 671 l 78 671 l 78 0 l 292 0 l 292 485 l 610 485 z "},"є":{"ha":701,"x_min":0,"x_max":0,"o":"m 426 149 b 256 264 326 149 268 206 l 532 264 l 532 411 l 257 411 b 426 522 268 465 326 522 b 583 463 486 522 546 499 l 674 596 b 400 688 608 657 503 688 b 33 336 192 688 33 549 b 400 -17 33 118 193 -17 b 681 72 503 -17 614 13 l 590 206 b 426 149 553 172 486 149 z "},"ѕ":{"ha":672,"x_min":0,"x_max":0,"o":"m 21 86 b 335 -17 92 24 215 -17 b 640 206 528 -17 640 78 b 357 431 640 383 471 411 b 250 485 286 443 250 454 b 335 531 250 514 285 531 b 532 457 415 531 492 496 l 614 599 b 333 688 542 651 446 688 b 46 467 147 688 46 585 b 321 253 46 296 207 272 b 436 194 390 242 436 229 b 346 144 436 165 410 144 b 110 233 267 144 160 189 z "},"і":{"ha":369,"x_min":0,"x_max":0,"o":"m 185 756 b 307 878 253 756 307 810 b 185 1000 307 946 253 1000 b 63 878 117 1000 63 946 b 185 756 63 810 117 756 z m 292 0 l 292 671 l 78 671 l 78 0 z "},"ї":{"ha":369,"x_min":0,"x_max":0,"o":"m 36 756 b 144 864 97 756 144 803 b 36 974 144 925 97 974 b -74 864 -25 974 -74 925 b 36 756 -74 803 -25 756 z m 333 756 b 443 864 393 756 443 803 b 333 974 443 925 393 974 b 224 864 272 974 224 925 b 333 756 224 803 272 756 z m 292 0 l 292 671 l 78 671 l 78 0 z "},"ј":{"ha":369,"x_min":0,"x_max":0,"o":"m 185 756 b 307 878 253 756 307 810 b 185 1000 307 946 253 1000 b 63 878 117 1000 63 946 b 185 756 63 810 117 756 z m 78 671 l 78 6 b -3 -96 78 -64 46 -96 b -39 -93 -12 -96 -26 -96 l -44 -267 b 32 -272 -24 -271 1 -272 b 292 6 211 -272 292 -157 l 292 671 z "},"љ":{"ha":1244,"x_min":0,"x_max":0,"o":"m 25 -17 b 346 436 222 -17 315 100 l 351 485 l 532 485 l 532 0 l 964 0 b 1211 239 1124 0 1211 119 b 964 479 1211 360 1131 479 l 746 479 l 746 671 l 178 671 l 164 521 b 25 186 138 218 79 186 z m 924 307 b 994 239 971 307 994 276 b 924 172 994 203 971 172 l 746 172 l 746 307 z "},"њ":{"ha":1244,"x_min":0,"x_max":0,"o":"m 292 0 l 292 254 l 532 254 l 532 0 l 964 0 b 1211 238 1124 0 1211 118 b 964 476 1211 358 1131 476 l 746 476 l 746 671 l 532 671 l 532 440 l 292 440 l 292 671 l 78 671 l 78 0 z m 924 304 b 994 238 971 304 994 275 b 924 172 994 201 971 172 l 746 172 l 746 304 z "},"ћ":{"ha":831,"x_min":0,"x_max":0,"o":"m 532 688 b 299 589 418 688 339 636 l 299 729 l 493 729 l 493 846 l 299 846 l 299 926 l 85 926 l 85 846 l 11 846 l 11 729 l 85 729 l 85 0 l 299 0 l 299 433 b 428 499 325 464 365 499 b 539 390 496 499 539 472 l 539 0 l 753 0 l 753 478 b 532 688 753 601 683 688 z "},"ќ":{"ha":758,"x_min":0,"x_max":0,"o":"m 700 972 l 474 972 l 297 772 l 479 772 z m 767 0 l 507 365 l 754 671 l 496 671 l 292 403 l 292 671 l 78 671 l 78 0 l 292 0 l 292 161 l 356 238 l 503 0 z "},"ў":{"ha":728,"x_min":0,"x_max":0,"o":"m 363 757 b 618 885 468 757 560 807 l 507 978 b 363 900 475 931 424 900 b 219 978 301 900 251 931 l 107 885 b 363 757 167 807 260 757 z m 64 -261 b 156 -272 86 -268 136 -272 b 439 -96 283 -269 385 -237 l 742 671 l 515 671 l 363 246 l 211 671 l -14 671 l 253 -10 l 238 -46 b 147 -83 226 -74 196 -83 b 94 -71 131 -83 110 -79 z "},"џ":{"ha":810,"x_min":0,"x_max":0,"o":"m 518 671 l 518 186 l 292 186 l 292 671 l 78 671 l 78 0 l 313 0 l 313 -172 l 497 -172 l 497 0 l 732 0 l 732 671 z "},"Ѵ":{"ha":1058,"x_min":0,"x_max":0,"o":"m 483 258 l 256 926 l -15 926 l 333 0 l 633 0 l 883 660 b 971 724 899 701 928 724 b 1015 714 985 724 1000 721 l 1058 911 b 907 940 1008 933 953 940 b 654 754 788 940 696 878 z "},"ѵ":{"ha":838,"x_min":0,"x_max":0,"o":"m 478 0 l 646 424 b 726 494 665 474 693 494 b 792 472 751 494 774 483 l 860 631 b 676 688 815 663 738 688 b 457 503 571 688 497 619 l 363 246 l 211 671 l -14 671 l 250 0 z "},"Ҋ":{"ha":1075,"x_min":0,"x_max":0,"o":"m 514 989 b 768 1117 618 989 710 1039 l 658 1210 b 514 1132 626 1163 574 1132 b 369 1210 451 1132 403 1163 l 257 1117 b 514 989 317 1039 411 989 z m 944 926 l 697 926 l 322 349 l 322 926 l 83 926 l 83 0 l 314 0 l 704 604 l 704 0 l 840 0 l 804 -171 l 1013 -171 l 1096 208 l 944 208 z "},"ҋ":{"ha":844,"x_min":0,"x_max":0,"o":"m 411 757 b 667 885 517 757 608 807 l 556 978 b 411 900 524 931 472 900 b 268 978 350 900 300 931 l 156 885 b 411 757 215 807 308 757 z m 746 671 l 531 671 l 292 301 l 292 671 l 78 671 l 78 0 l 282 0 l 532 388 l 532 0 l 629 0 l 592 -171 l 778 -171 l 858 186 l 746 186 z "},"Ҍ":{"ha":893,"x_min":0,"x_max":0,"o":"m 322 615 l 322 688 l 571 688 l 571 843 l 322 843 l 322 926 l 83 926 l 83 843 l 11 843 l 11 688 l 83 688 l 83 0 l 547 0 b 869 308 756 0 869 140 b 547 615 869 475 756 615 z m 322 208 l 322 407 l 515 407 b 626 308 579 407 626 371 b 515 208 626 244 579 208 z "},"ҍ":{"ha":797,"x_min":0,"x_max":0,"o":"m 299 464 l 299 553 l 493 553 l 493 671 l 299 671 l 299 926 l 85 926 l 85 671 l 11 671 l 11 553 l 85 553 l 85 0 l 517 0 b 764 232 676 0 764 115 b 517 464 764 350 683 464 z m 299 172 l 299 307 l 476 307 b 547 239 524 307 547 276 b 476 172 547 203 524 172 z "},"Ҏ":{"ha":893,"x_min":0,"x_max":0,"o":"m 869 618 b 547 926 869 786 756 926 l 83 926 l 83 0 l 322 0 l 322 314 l 547 314 b 588 315 561 314 575 314 l 678 207 l 825 325 l 772 390 b 869 618 836 446 869 528 z m 515 725 b 626 619 579 725 626 683 b 603 554 626 593 618 571 l 514 661 l 407 574 l 454 517 l 322 517 l 322 725 z "},"ҏ":{"ha":819,"x_min":0,"x_max":0,"o":"m 785 336 b 490 688 785 563 658 688 b 292 593 414 688 344 657 l 292 671 l 78 671 l 78 -256 l 292 -256 l 292 79 b 490 -17 347 13 415 -17 b 549 -11 511 -17 531 -15 l 613 -89 l 744 21 l 701 75 b 785 336 753 135 785 222 z m 292 438 b 419 499 318 474 374 499 b 567 336 503 499 567 436 b 544 243 567 300 558 268 l 474 328 l 371 244 l 426 172 l 419 172 b 292 233 374 172 318 199 z "},"Ґ":{"ha":808,"x_min":0,"x_max":0,"o":"m 322 718 l 763 718 l 763 1097 l 553 1097 l 553 926 l 83 926 l 83 0 l 322 0 z "},"ґ":{"ha":632,"x_min":0,"x_max":0,"o":"m 292 485 l 610 485 l 610 843 l 425 843 l 425 671 l 78 671 l 78 0 l 292 0 z "},"Ғ":{"ha":808,"x_min":0,"x_max":0,"o":"m 763 926 l 83 926 l 83 553 l 11 553 l 11 368 l 83 368 l 83 0 l 322 0 l 322 368 l 547 368 l 547 553 l 322 553 l 322 718 l 763 718 z "},"ғ":{"ha":632,"x_min":0,"x_max":0,"o":"m 610 671 l 78 671 l 78 399 l 11 399 l 11 261 l 78 261 l 78 0 l 292 0 l 292 261 l 443 261 l 443 399 l 292 399 l 292 485 l 610 485 z "},"Ҕ":{"ha":925,"x_min":0,"x_max":0,"o":"m 450 -182 b 901 219 760 -182 901 -15 b 540 589 901 414 768 589 b 322 518 464 589 376 563 l 322 718 l 763 718 l 763 926 l 83 926 l 83 0 l 322 0 l 322 313 b 489 386 364 357 422 386 b 658 210 594 386 658 325 b 450 26 658 100 594 26 z "},"ҕ":{"ha":819,"x_min":0,"x_max":0,"o":"m 490 408 b 292 317 414 408 344 379 l 292 485 l 610 485 l 610 671 l 78 671 l 78 0 l 292 0 l 292 182 b 419 243 318 218 374 243 b 567 81 503 243 567 181 b 419 -81 567 -19 503 -81 l 419 -272 b 785 86 636 -272 785 -147 b 490 408 785 288 658 408 z "},"Җ":{"ha":1440,"x_min":0,"x_max":0,"o":"m 1032 482 l 1342 926 l 1064 926 l 843 569 l 794 569 l 794 926 l 556 926 l 556 569 l 507 569 l 285 926 l 7 926 l 318 483 l -12 0 l 269 0 l 507 383 l 556 383 l 556 0 l 794 0 l 794 383 l 843 383 l 1079 0 l 1221 0 l 1221 -171 l 1429 -171 l 1429 208 l 1221 208 z "},"җ":{"ha":1164,"x_min":0,"x_max":0,"o":"m 864 350 l 1067 671 l 822 671 l 682 407 l 642 407 l 642 671 l 428 671 l 428 407 l 389 407 l 249 671 l 3 671 l 207 349 l -8 0 l 242 0 l 388 268 l 428 268 l 428 0 l 642 0 l 642 268 l 683 268 l 828 0 l 957 0 l 957 -171 l 1143 -171 l 1143 186 l 968 186 z "},"Ҙ":{"ha":867,"x_min":0,"x_max":0,"o":"m 819 258 b 601 478 819 392 700 468 b 804 686 711 496 804 578 b 421 940 804 839 657 940 b 35 790 250 940 113 878 l 150 646 b 396 736 215 704 311 736 b 565 649 492 736 565 707 b 401 568 565 600 518 568 l 231 568 l 231 367 l 401 367 b 581 281 535 367 581 336 b 411 188 581 228 521 188 b 143 285 331 188 210 219 l 22 129 b 315 -10 79 63 186 10 l 315 -171 l 524 -171 l 524 -8 b 819 258 700 19 819 121 z "},"ҙ":{"ha":689,"x_min":0,"x_max":0,"o":"m 656 186 b 472 344 656 283 553 339 b 642 500 563 360 642 422 b 335 686 642 614 532 688 b 26 574 192 686 92 640 l 128 451 b 322 524 178 499 243 524 b 421 468 383 524 421 501 b 319 410 421 432 394 410 l 199 410 l 199 267 l 319 267 b 433 208 397 267 433 249 b 329 147 433 174 403 147 b 118 219 263 147 178 171 l 18 90 b 239 -10 67 43 143 6 l 239 -171 l 425 -171 l 425 -10 b 656 186 569 13 656 86 z "},"Қ":{"ha":969,"x_min":0,"x_max":0,"o":"m 542 493 l 901 926 l 607 926 l 322 546 l 322 926 l 83 926 l 83 0 l 322 0 l 322 271 l 385 349 l 628 0 l 750 0 l 750 -171 l 960 -171 l 960 208 l 763 208 z "},"қ":{"ha":838,"x_min":0,"x_max":0,"o":"m 507 365 l 754 671 l 496 671 l 292 403 l 292 671 l 78 671 l 78 0 l 292 0 l 292 161 l 356 238 l 503 0 l 632 0 l 632 -171 l 817 -171 l 817 186 l 638 186 z "},"Ҝ":{"ha":992,"x_min":0,"x_max":0,"o":"m 1004 0 l 714 482 l 985 926 l 706 926 l 521 569 l 492 569 l 492 764 l 390 764 l 390 569 l 322 569 l 322 926 l 83 926 l 83 0 l 322 0 l 322 383 l 390 383 l 390 189 l 492 189 l 492 383 l 522 383 l 721 0 z "},"ҝ":{"ha":843,"x_min":0,"x_max":0,"o":"m 851 0 l 636 349 l 840 671 l 594 671 l 454 407 l 425 407 l 425 549 l 339 549 l 339 407 l 292 407 l 292 671 l 78 671 l 78 0 l 292 0 l 292 268 l 339 268 l 339 115 l 425 115 l 425 268 l 456 268 l 601 0 z "},"Ҟ":{"ha":908,"x_min":0,"x_max":0,"o":"m 901 926 l 607 926 l 322 546 l 322 682 l 404 682 l 404 850 l 322 850 l 322 926 l 83 926 l 83 850 l 11 850 l 11 682 l 83 682 l 83 0 l 322 0 l 322 271 l 385 349 l 628 0 l 921 0 l 542 493 z "},"ҟ":{"ha":765,"x_min":0,"x_max":0,"o":"m 761 671 l 503 671 l 299 403 l 299 729 l 493 729 l 493 846 l 299 846 l 299 926 l 85 926 l 85 846 l 11 846 l 11 729 l 85 729 l 85 0 l 299 0 l 299 161 l 363 238 l 510 0 l 774 0 l 514 365 z "},"Ҡ":{"ha":1310,"x_min":0,"x_max":0,"o":"m 1303 926 l 1010 926 l 725 546 l 725 926 l 46 926 l 46 718 l 485 718 l 485 0 l 725 0 l 725 271 l 786 349 l 1031 0 l 1322 0 l 943 493 z "},"ҡ":{"ha":1021,"x_min":0,"x_max":0,"o":"m 554 0 l 554 161 l 618 238 l 765 0 l 1029 0 l 769 365 l 1017 671 l 758 671 l 554 403 l 554 671 l 22 671 l 22 485 l 340 485 l 340 0 z "},"Ң":{"ha":1076,"x_min":0,"x_max":0,"o":"m 946 926 l 707 926 l 707 581 l 322 581 l 322 926 l 83 926 l 83 0 l 322 0 l 322 372 l 707 372 l 707 0 l 847 0 l 847 -171 l 1057 -171 l 1057 208 l 946 208 z "},"ң":{"ha":844,"x_min":0,"x_max":0,"o":"m 746 671 l 532 671 l 532 440 l 292 440 l 292 671 l 78 671 l 78 0 l 292 0 l 292 254 l 532 254 l 532 0 l 633 0 l 633 -171 l 819 -171 l 819 186 l 746 186 z "},"Ҥ":{"ha":1432,"x_min":0,"x_max":0,"o":"m 707 926 l 707 581 l 322 581 l 322 926 l 83 926 l 83 0 l 322 0 l 322 372 l 707 372 l 707 0 l 946 0 l 946 718 l 1386 718 l 1386 926 z "},"ҥ":{"ha":1086,"x_min":0,"x_max":0,"o":"m 532 671 l 532 440 l 292 440 l 292 671 l 78 671 l 78 0 l 292 0 l 292 254 l 532 254 l 532 0 l 746 0 l 746 485 l 1064 485 l 1064 671 z "},"Ҧ":{"ha":1549,"x_min":0,"x_max":0,"o":"m 946 313 b 1113 386 988 357 1046 386 b 1282 210 1218 386 1282 325 b 1074 26 1282 100 1218 26 l 1074 -182 b 1525 219 1383 -182 1525 -15 b 1164 589 1525 414 1392 589 b 946 518 1088 589 1000 563 l 946 926 l 83 926 l 83 0 l 322 0 l 322 718 l 707 718 l 707 0 l 946 0 z "},"ҧ":{"ha":1274,"x_min":0,"x_max":0,"o":"m 944 408 b 746 317 868 408 799 379 l 746 671 l 78 671 l 78 0 l 292 0 l 292 485 l 532 485 l 532 0 l 746 0 l 746 182 b 874 243 772 218 828 243 b 1021 81 957 243 1021 181 b 874 -81 1021 -19 957 -81 l 874 -272 b 1239 86 1090 -272 1239 -147 b 944 408 1239 288 1113 408 z "}}}
